<svg width="53" height="40" viewBox="0 0 53 40" fill="none" xmlns="http://www.w3.org/2000/svg">
<path d="M45.2719 10.3187H52.3688C52.7353 10.3187 52.9739 11.0749 52.6894 11.4232C52.6512 11.4701 52.3215 11.6691 52.2982 11.6691H32.9848V25.5286C33.8901 24.805 35.1612 24.6536 36.2324 25.0673C37.6617 25.6195 38.5747 27.9451 40.4658 26.5542C41.7898 25.5797 42.2573 24.4653 44.3023 24.906C45.7253 25.213 46.2492 26.5343 47.3049 26.8591C48.97 27.3715 49.5427 25.675 50.8258 25.1121C51.2693 24.9173 52.2996 24.6551 52.6647 25.0524C52.981 25.3964 52.82 26.0438 52.3539 26.1526C51.6704 26.3125 51.527 26.1704 50.8873 26.6665C49.5999 27.6651 49.1035 28.5897 47.1609 28.2102C45.3538 27.857 44.6505 25.353 42.609 26.4369C41.4339 27.0609 41.1924 28.282 39.3713 28.3019C37.5395 28.3218 37.2817 27.2905 36.07 26.5087C34.2107 25.3097 33.4297 27.3872 32.0209 28.0048C31.1685 28.3786 30.103 28.3644 29.2648 27.9565C27.9259 27.3047 27.2268 25.348 25.3639 26.493C24.1642 27.2301 23.9071 28.3225 22.0782 28.3019C20.2365 28.2813 20 27.0915 18.7861 26.4205C16.9614 25.4113 16.2235 27.4291 14.8613 28.0048C13.9659 28.3836 12.8749 28.3708 12.0084 27.9117C10.8016 27.272 10.3835 25.7731 8.6923 26.2741C7.82655 26.53 7.34001 27.4561 6.55123 27.8861C5.69678 28.3516 4.48078 28.3936 3.59243 27.9963C2.70409 27.599 2.07561 26.4767 1.16749 26.2436C0.664003 26.1142 -0.139603 26.2059 0.0221064 25.3679C0.183816 24.53 1.47043 24.8761 2.00923 25.1121C3.07976 25.5804 3.67929 26.9301 4.91506 26.955C6.10564 26.9792 6.5131 26.0133 7.36966 25.4404C8.32862 24.7986 9.37444 24.6636 10.4563 25.0673C11.6243 25.503 12.2697 26.9515 13.5295 26.9557C15.0428 26.9614 15.5625 25.1426 17.0249 24.9593V11.6684H0.60751C0.186641 11.6684 -0.103589 11.0906 0.060945 10.6911C0.0891912 10.6229 0.370948 10.318 0.395663 10.318H17.0256C16.9974 8.55676 16.9769 6.86093 17.6273 5.20205C19.7966 -0.332493 27.0142 -1.78951 31.1234 2.49484C32.0534 1.68744 33.0512 0.934049 34.2191 0.508315C38.0776 -0.897533 42.3399 0.691687 44.2953 4.30012C44.6688 4.98883 45.2719 6.5347 45.2719 7.29732V10.318V10.3187ZM30.1912 3.46713C29.9229 3.12029 29.5168 2.80472 29.1518 2.55596C24.6091 -0.534343 18.7148 2.56378 18.3645 7.93486L18.3744 24.8825C18.9287 24.9251 19.3581 25.2514 19.8503 25.4575L19.8482 7.65127C20.4067 2.7699 26.563 1.05345 29.5606 4.91634L30.3063 3.53821C30.3021 3.49272 30.2138 3.49485 30.1926 3.46713H30.1912ZM42.5179 10.3187H43.8949C43.9726 10.3187 43.9959 10.1453 44.0044 10.0735C44.2105 8.30729 43.837 5.96752 42.8576 4.46857C39.9687 0.0491758 33.3181 0.382514 30.9574 5.11534C30.73 5.57093 30.2308 6.90357 30.2308 7.36911V26.879C30.711 27.0012 31.2272 26.9799 31.6459 26.6885L31.6403 8.00522C31.9743 2.75497 38.6107 0.841653 41.5872 5.1786C41.9318 5.68038 42.5186 6.99241 42.5186 7.58162V10.318L42.5179 10.3187ZM28.8891 10.3187C28.9187 9.45655 28.8509 8.58376 28.8862 7.72163C28.9004 7.37764 29.0769 6.86235 28.9985 6.55104C28.7111 5.40391 26.8659 4.24682 25.746 4.13594C23.5392 3.91774 21.1214 5.68536 21.1214 8.00877V10.2121C21.1214 10.2199 21.2195 10.3187 21.2273 10.3187H28.8891ZM41.1762 10.3187V7.58233C41.1762 7.29021 40.7878 6.42951 40.6233 6.14876C39.2717 3.84525 36.094 3.42449 34.1923 5.31506C33.7093 5.79552 32.9848 7.04501 32.9848 7.72448V10.3187H41.1762ZM28.8891 11.6691H21.1214V13.8724H28.8891V11.6691ZM28.8891 15.2228H21.1214V17.3906C21.1214 17.3984 21.2195 17.4972 21.2273 17.4972H28.8891V15.2228ZM28.8891 21.0509V18.8831C28.8891 18.8753 28.7909 18.7765 28.7832 18.7765H21.2273C21.2195 18.7765 21.1214 18.8753 21.1214 18.8831V21.0509H28.8891ZM28.8891 22.4013H21.1214V26.6302C21.1214 26.7432 21.8042 26.9287 21.9412 26.9422C23.2476 27.073 23.684 25.9557 24.6034 25.3722C26.0369 24.4625 27.6773 24.7787 28.8898 25.8839V22.4013H28.8891Z" fill="#ED1C25" fill-opacity="0.5"/>
<path d="M3.08415 37.5699C3.59753 37.9928 3.88564 38.5202 4.63205 38.6069C6.47512 38.8208 6.92706 36.7554 8.87817 36.5543C11.123 36.3226 11.2607 37.7377 12.7034 38.4442C14.4547 39.3013 15.1785 37.405 16.4835 36.8173C17.3563 36.4242 18.4847 36.4527 19.3342 36.8883C20.5742 37.5237 20.82 38.8009 22.4992 38.6076C23.3106 38.5145 23.7053 37.7832 24.266 37.3297C25.4086 36.4065 26.9558 36.2522 28.2078 37.0554C28.8504 37.4676 29.5149 38.4953 30.2733 38.6012C31.788 38.8123 31.9907 37.9552 32.992 37.2274C33.869 36.5898 34.8195 36.3851 35.8816 36.6524C37.743 37.12 38.4619 39.9218 40.7541 38.0042C41.9821 36.9772 42.7144 36.1243 44.5532 36.6659C46.0651 37.1115 46.404 38.7682 48.1348 38.6105C49.4539 38.4896 50.0351 36.6168 51.9431 36.5429C53.092 36.4989 53.0596 37.7199 52.2828 37.8805C51.3845 38.0668 51.3994 37.9324 50.6381 38.5707C49.509 39.5174 49.0514 40.1506 47.363 39.9502C45.4147 39.7185 44.4557 36.7412 42.3818 38.2921C41.0669 39.2757 40.8332 40.1627 38.8199 39.9488C36.7014 39.7242 35.8943 36.5493 33.588 38.4669C32.3995 39.4548 31.9956 40.1521 30.2041 39.9502C28.6068 39.7697 27.9387 38.098 26.8611 37.9132C25.1932 37.6282 24.8302 39.0326 23.5973 39.6403C22.7909 40.0383 21.7712 40.0796 20.9337 39.7569C19.3822 39.1584 18.5349 36.7654 16.499 38.3951C15.2555 39.3909 14.9546 40.1585 13.0459 39.9481C11.0072 39.7235 10.2502 36.7377 8.02513 38.324C6.75829 39.2267 6.57892 40.1087 4.63134 39.9602C2.80522 39.8209 2.38082 38.1933 1.14293 37.9274C0.700171 37.8322 -0.0151655 37.9481 0.00531302 37.2238C0.0293223 36.3766 0.919786 36.501 1.5059 36.6374C2.14567 36.7867 2.59479 37.1655 3.08627 37.5699H3.08415Z" fill="#ED1C25" fill-opacity="0.5"/>
<path d="M11.9118 31.9551C12.8637 32.7377 13.5437 33.2359 14.7477 32.3738C16.0936 31.41 16.2659 30.5095 18.3307 30.7184C20.5163 30.9388 21.1448 34.2132 23.6672 32.1058C24.7843 31.1726 25.1105 30.5656 26.8081 30.7149C28.5735 30.8705 29.1392 32.6175 30.4145 32.7704C31.9942 32.9594 32.3359 31.6111 33.5336 31.0219C34.2828 30.6531 35.3279 30.5983 36.1103 30.8755C37.5671 31.3915 38.5317 33.6986 40.3515 32.4825C41.7306 31.5607 41.8606 30.5294 43.967 30.7149C45.7239 30.8698 46.3553 32.6119 47.5013 32.7725C49.2343 33.0148 49.6601 31.2892 51.1458 30.8386C51.667 30.6808 52.8032 30.518 52.8321 31.3233C52.8611 32.1286 52.162 31.9992 51.6783 32.0845C50.9389 32.2146 50.2243 33.2814 49.5287 33.6879C48.9356 34.0355 48.1863 34.1883 47.5035 34.1201C45.2085 33.8905 44.5362 30.6133 42.059 32.7092C40.8684 33.7171 40.2541 34.4399 38.4753 34.0383C36.8179 33.6638 36.4733 31.813 34.578 32.0738C33.8485 32.174 33.2186 33.1023 32.6233 33.5181C31.545 34.2714 30.2245 34.3319 29.0777 33.6879C28.3461 33.2771 27.6068 32.162 26.8039 32.0674C24.6713 31.8158 24.4284 34.3489 21.7916 34.1272C19.9005 33.968 19.3645 32.0006 17.7651 32.0362C16.5569 32.0632 16.0739 33.2153 15.1184 33.7384C13.8834 34.4143 12.4972 34.1925 11.4118 33.3439C10.8624 32.9139 10.3829 32.1655 9.63653 32.0745C7.86973 31.8599 7.69178 33.2089 6.3755 33.823C5.41301 34.2714 4.21749 34.2295 3.3016 33.6886C2.66818 33.3141 2.15904 32.5415 1.56234 32.2409C1.02566 31.9701 0.148616 32.1833 0.0200952 31.5166C-0.191046 30.4221 1.3173 30.6886 1.9366 30.9402C3.27124 31.4832 3.66669 33.0035 5.33039 32.7718C6.4786 32.6119 7.12474 30.9054 8.73336 30.7241C10.3074 30.5472 10.8123 31.0525 11.9097 31.9544L11.9118 31.9551Z" fill="#ED1C25" fill-opacity="0.5"/>
</svg>
