<svg width="22" height="47" viewBox="0 0 22 47" fill="none" xmlns="http://www.w3.org/2000/svg">
<path d="M21.4555 46.9997C21.7244 46.8081 21.9423 46.4994 21.9117 46.1534L16.5493 19.0458C18.8801 18.4792 21.6901 16.9528 21.9219 14.3332C22.1639 11.6019 21.7531 8.51104 21.8959 5.74252C20.2893 0.939154 13.7671 0.378913 9.37632 0.595927C5.86167 0.769356 1.21503 2.04329 0.103436 5.74252C0.247137 8.51104 -0.16357 11.6019 0.0774765 14.3332C0.309252 16.9528 3.1193 18.4792 5.45004 19.0458L0.0867481 46.1534C0.0561543 46.4994 0.274023 46.8081 0.542883 46.9997H1.28271C1.42641 46.7909 1.58587 46.6964 1.68229 46.4395C1.95857 45.7049 2.12452 43.3141 2.48238 42.8737L11.0275 37.3167L19.5133 42.8737C19.8721 43.315 20.038 45.7049 20.3134 46.4395C20.4098 46.6964 20.5702 46.79 20.7129 46.9997H21.4528H21.4555ZM2.20981 5.13143C2.70952 4.29788 3.70708 3.65773 4.59618 3.25458C7.81508 1.79631 14.1861 1.79722 17.4041 3.25458C18.2932 3.65773 19.2908 4.29788 19.7905 5.13143H2.20981ZM1.74719 6.76221H20.2531V13.4688H1.74719V6.76221ZM2.02439 15.0995H19.975C19.2852 16.1973 18.0948 16.862 16.8766 17.276C13.5112 18.4201 6.46893 18.4528 3.41968 16.4961C2.88753 16.1547 2.36371 15.6207 2.02347 15.0995H2.02439ZM7.02148 19.359C9.64796 19.7504 12.3505 19.7504 14.9779 19.359L15.5128 22.2955L11.2138 25.5099L10.9033 25.5761L6.50601 22.3491L7.02055 19.3581L7.02148 19.359ZM17.0138 30.0526L12.3903 26.654L15.8586 24.0716L17.0138 30.0526ZM4.98649 30.0526L6.14166 24.0716L9.60995 26.654L4.98649 30.0526ZM11.0321 27.7145L16.5502 31.7288L10.9709 35.3854L5.45097 31.7288L11.0331 27.7145H11.0321ZM19.1424 40.6554L12.4821 36.3515L17.6164 32.9537L19.1424 40.6554ZM2.85786 40.6554L4.38387 32.9537L9.51817 36.3515L2.85786 40.6554Z" fill="#ED1C25" fill-opacity="0.5"/>
</svg>
