<svg width="44" height="44" viewBox="0 0 44 44" fill="none" xmlns="http://www.w3.org/2000/svg">
<path d="M44 0.94965V4.90237L43.3578 5.67724L43.3122 41.9801C43.1944 42.9504 42.5677 43.6521 41.683 44.0008H2.38413C1.46422 43.6323 0.83834 42.9159 0.750648 41.8983L0.709381 5.67724C0.411057 5.3802 0.11961 5.14085 0.065447 4.68971C-0.0213853 3.96305 -0.022245 1.88897 0.065447 1.16231C0.134225 0.594931 0.730015 0.0146365 1.30775 0L43.0586 0.0447705C43.5039 0.207494 43.7498 0.572545 44 0.94965ZM42.4551 1.55147H1.61209V4.38751H42.4551V1.55147ZM41.769 5.93381H2.29815V41.9809C2.29815 42.0403 2.64548 42.4536 2.68417 42.4536H4.44317V19.2091C4.44317 19.1265 4.77932 18.3809 4.85584 18.2474C5.34072 17.4011 6.26235 16.912 7.22782 16.8423C10.745 16.5875 14.5725 17.0343 18.1214 16.8535C19.0834 16.9095 20.5742 18.2586 20.5742 19.2091V42.4527H23.4912V19.2091C23.4912 18.2586 24.982 16.9095 25.944 16.8535C29.4938 17.0343 33.3205 16.5875 36.8376 16.8423C37.804 16.912 38.7247 17.4011 39.2096 18.2474C39.2861 18.3809 39.6223 19.1265 39.6223 19.2091V42.4527H41.3813C41.42 42.4527 41.7673 42.0403 41.7673 41.9801V5.93381H41.769ZM19.0301 42.4536V19.3813C19.0301 19.1178 18.2357 18.3344 17.8738 18.3912L6.92949 18.4334C6.65352 18.479 5.9881 19.1583 5.9881 19.3813V42.4536H19.0301ZM38.0791 42.4536V19.3813C38.0791 19.1178 37.2847 18.3344 36.9227 18.3912L25.9784 18.4334C25.7025 18.479 25.037 19.1583 25.037 19.3813V42.4536H38.0791Z" fill="#ED1C25" fill-opacity="0.5"/>
<path d="M18.4294 11.2607C18.9487 10.9206 19.3502 10.8888 19.8024 11.3468V7.86675C19.8024 7.78496 20.0981 7.45865 20.1996 7.40527C20.7068 7.13837 21.2115 7.42679 21.3422 7.95715V14.0485C20.5108 15.7007 19.6614 13.9116 19.0725 13.1514C18.7879 13.5052 18.3383 14.5246 17.9187 14.6589C17.4992 14.7933 16.9885 14.5892 16.9051 14.1191L16.8896 7.87106C17.0281 7.02386 18.4294 7.23996 18.4294 7.95199V11.2598V11.2607Z" fill="#ED1C25" fill-opacity="0.5"/>
<path d="M26.5507 7.9408C27.1809 8.56242 27.6297 10.3954 26.3779 10.3128C25.4391 10.2508 25.8561 9.09881 25.213 8.8939C24.8863 8.78972 24.4736 8.8827 24.3292 9.22106C24.2149 9.48969 24.2132 12.0864 24.263 12.5091C24.3223 13.0162 24.7238 13.2693 25.213 13.1135C25.8423 12.9129 25.4486 11.9047 26.2335 11.7265C27.2471 11.4966 27.3168 12.652 27.0124 13.3684C26.2593 15.1385 23.6165 15.1454 22.9115 13.3468C22.608 12.5728 22.6072 9.43545 22.9115 8.65971C23.4798 7.2107 25.4503 6.85426 26.5507 7.93994V7.9408Z" fill="#ED1C25" fill-opacity="0.5"/>
<path d="M28.19 26.405C31.0305 25.959 31.88 29.8894 29.3257 30.7219C26.2642 31.7189 25.2274 26.8708 28.19 26.405ZM29.1314 29.1102C29.8837 28.3568 28.5098 27.3839 28.0361 28.2277C27.6114 28.9836 28.5709 29.6724 29.1314 29.1102Z" fill="#ED1C25" fill-opacity="0.5"/>
<path d="M9.14103 26.4052C12.31 25.8964 12.7665 30.5628 9.797 30.8444C6.82751 31.1259 6.50167 26.8288 9.14103 26.4052ZM10.0798 29.1069C10.6739 28.5619 9.92854 27.5796 9.20035 28.0118C8.41714 28.4758 9.25709 29.8611 10.0798 29.1069Z" fill="#ED1C25" fill-opacity="0.5"/>
</svg>
