<svg width="63" height="35" viewBox="0 0 63 35" fill="none" xmlns="http://www.w3.org/2000/svg">
<path d="M10.4288 17.8789V32.6838H62.0429C62.1047 32.6838 62.4909 32.9857 62.5311 33.0744C62.7948 33.649 62.3439 34.1662 61.7537 34.1497H2.82634C2.13913 34.2179 1.60584 33.4231 2.12345 32.9059C2.14698 32.8825 2.5146 32.6848 2.53813 32.6848H8.95926V17.8798H4.98894C3.41258 17.8798 1.18331 15.5734 1.06273 13.9887C1.15685 11.0744 0.786283 7.85242 1.01568 4.97033C1.19802 2.65511 3.28219 0.813264 5.57223 0.63502C7.79267 0.461647 11.3816 0.488919 13.6187 0.634046C16.1264 0.796706 18.1714 2.6405 18.3723 5.16416C18.5468 7.34886 18.5449 11.167 18.3723 13.3527C18.2371 15.064 17.196 16.6993 15.6284 17.4445C15.4392 17.5341 14.5354 17.8789 14.3991 17.8789H10.4288ZM5.20951 2.12525C3.61354 2.4944 2.56557 3.6525 2.40186 5.27715C2.20383 7.24659 2.21364 11.2683 2.39108 13.2504C2.55871 15.1078 3.91548 16.3731 5.7683 16.5182C7.83875 16.6808 11.6532 16.6964 13.7109 16.5133C15.2863 16.3731 16.7332 15.1507 16.897 13.5426C17.1714 10.8456 16.694 7.71509 16.8989 4.97228C16.6803 3.58237 15.4265 2.27622 13.9962 2.10967C11.2807 1.79506 7.98481 2.30252 5.20951 2.12428V2.12525Z" fill="#ED1C25" fill-opacity="0.5"/>
<path d="M45.1177 29.0923L25.6886 29.4643C24.2064 32.7136 19.5616 32.7867 18.0019 29.5647C16.9177 29.1283 15.0031 29.1799 14.3061 28.1952C13.7816 27.455 13.5042 25.991 13.8845 25.1582C14.013 24.8767 14.3639 24.6099 14.4247 24.4287C14.4816 24.2592 14.4424 24.0411 14.5159 23.8375C14.9315 22.6843 15.1247 22.3774 16.2844 21.8934C19.4832 20.556 23.2388 20.5298 26.3063 19.4807C28.0463 18.8856 30.1148 17.1285 31.9588 16.4282C35.5037 15.0821 43.5335 14.9 47.1441 16.023C48.7057 16.5081 51.1663 18.0791 52.4564 18.3421C53.4583 18.5457 54.9347 18.4025 56.0484 18.572C58.3472 18.9226 58.3502 19.8002 58.2668 21.9187C58.2551 22.2109 58.0531 22.9531 58.0943 23.1742C58.1335 23.3797 58.7874 23.7118 58.8315 24.4755C58.8707 25.1485 58.0286 27.2553 57.4875 27.6712C56.6885 28.2848 54.373 28.3082 53.3672 28.6423C53.0084 29.253 52.8701 29.813 52.3878 30.3965C50.2321 32.9971 46.1882 32.212 45.1177 29.0923ZM53.2721 27.1277C53.3927 27.2416 56.3032 26.6943 56.5424 26.5374C56.7954 26.3709 57.4169 24.8573 57.3894 24.5485C57.3649 24.266 56.6944 24.2505 56.6022 23.7683C56.666 22.582 56.9924 21.3888 56.7542 20.2103C56.6493 20.0564 54.7239 19.8509 54.3945 19.8275C53.7426 19.7817 52.8623 19.9278 52.2604 19.8051C51.2536 19.5986 49.041 18.2827 47.8734 17.8327C43.8639 16.2879 39.0172 16.512 34.8204 17.2269C34.1332 17.3438 33.1215 17.5006 32.4882 17.7343C30.6648 18.4064 28.5394 20.2473 26.7994 20.8483C24.9465 21.4891 21.9869 21.756 19.9175 22.2898C19.2812 22.4534 16.4814 23.1722 16.1677 23.5316C15.7903 23.9641 15.9393 24.906 15.756 25.356C15.6472 25.6228 15.1805 25.5303 15.1266 26.0085C15.0962 26.2783 15.3305 27.3293 15.5276 27.4725C15.8403 27.6994 17.1628 27.7501 17.5843 28.0092C17.5255 22.0784 26.1788 22.0989 26.0161 28.0092L44.7776 27.7228C45.006 26.3329 45.5334 25.016 46.7657 24.2261C49.3763 22.5528 52.8545 24.0635 53.2721 27.1287V27.1277ZM21.384 25.0141C18.197 25.466 18.3421 30.3312 21.6987 30.4939C25.671 30.6867 25.3847 24.4472 21.384 25.0141ZM48.6351 25.0121C44.9383 25.5878 46.0804 31.4854 49.9174 30.376C53.175 29.4341 52.0672 24.4774 48.6351 25.0121Z" fill="#ED1C25" fill-opacity="0.5"/>
<path d="M7.48746 11.1578V14.4207C7.48746 14.4821 7.18356 14.8658 7.09435 14.9067C6.58458 15.1395 6.04834 14.7509 6.02579 14.2171C6.22774 11.0877 5.72679 7.56369 6.01207 4.48095C6.0601 3.96668 6.30617 3.62188 6.84731 3.55759C10.0883 3.17676 14.2086 3.89265 13.6547 8.08089C13.5027 9.22924 11.8666 11.1568 10.6725 11.1568H7.48648L7.48746 11.1578ZM7.48746 9.79417H10.1834C10.2412 9.79417 10.8784 9.57015 10.9853 9.5195C12.5773 8.75685 12.7028 6.38514 11.245 5.42769C11.0941 5.32834 10.4157 5.02153 10.2814 5.02153H7.48746V9.79417Z" fill="#ED1C25" fill-opacity="0.5"/>
<path d="M39.0544 20.8979L48.1145 20.4138C49.0037 20.6125 49.0086 21.6683 48.1165 21.866C42.1199 22.1612 36.1516 22.4884 30.1785 22.7446C29.6374 22.768 28.459 23.0816 28.0728 22.6053C27.6277 22.0579 28.0983 21.4618 28.7217 21.3936L37.5849 20.9953C37.7094 20.3057 37.6829 17.1411 39.0524 18.1239C39.719 18.6031 38.9407 20.1771 39.0544 20.8979Z" fill="#ED1C25" fill-opacity="0.5"/>
</svg>
