<svg width="54" height="40" viewBox="0 0 54 40" fill="none" xmlns="http://www.w3.org/2000/svg">
<path d="M46.2114 10.3187H53.3082C53.6747 10.3187 53.9134 11.0749 53.6288 11.4232C53.5907 11.4701 53.2609 11.6691 53.2376 11.6691H33.9242V25.5286C34.8295 24.805 36.1006 24.6536 37.1718 25.0673C38.6011 25.6195 39.5142 27.9451 41.4053 26.5542C42.7293 25.5797 43.1968 24.4653 45.2418 24.906C46.6647 25.213 47.1887 26.5343 48.2444 26.8591C49.9095 27.3715 50.4822 25.675 51.7653 25.1121C52.2087 24.9173 53.239 24.6551 53.6041 25.0524C53.9205 25.3964 53.7595 26.0438 53.2934 26.1526C52.6098 26.3125 52.4665 26.1704 51.8267 26.6665C50.5394 27.6651 50.043 28.5897 48.1003 28.2102C46.2933 27.857 45.5899 25.353 43.5484 26.4369C42.3734 27.0609 42.1319 28.282 40.3107 28.3019C38.4789 28.3218 38.2212 27.2905 37.0094 26.5087C35.1501 25.3097 34.3691 27.3872 32.9603 28.0048C32.108 28.3786 31.0424 28.3644 30.2042 27.9565C28.8653 27.3047 28.1662 25.348 26.3034 26.493C25.1036 27.2301 24.8466 28.3225 23.0177 28.3019C21.176 28.2813 20.9394 27.0915 19.7255 26.4205C17.9008 25.4113 17.1629 27.4291 15.8007 28.0048C14.9053 28.3836 13.8143 28.3708 12.9479 27.9117C11.741 27.272 11.323 25.7731 9.63175 26.2741C8.766 26.53 8.27946 27.4561 7.49068 27.8861C6.63623 28.3516 5.42023 28.3936 4.53189 27.9963C3.64354 27.599 3.01506 26.4767 2.10695 26.2436C1.60346 26.1142 0.79985 26.2059 0.96156 25.3679C1.12327 24.53 2.40989 24.8761 2.94868 25.1121C4.01922 25.5804 4.61874 26.9301 5.85452 26.955C7.0451 26.9792 7.45255 26.0133 8.30912 25.4404C9.26808 24.7986 10.3139 24.6636 11.3957 25.0673C12.5637 25.503 13.2091 26.9515 14.4689 26.9557C15.9822 26.9614 16.5019 25.1426 17.9644 24.9593V11.6684H1.54696C1.12609 11.6684 0.835864 11.0906 1.0004 10.6911C1.02864 10.6229 1.3104 10.318 1.33512 10.318H17.9651C17.9369 8.55676 17.9164 6.86093 18.5667 5.20205C20.7361 -0.332493 27.9537 -1.78951 32.0628 2.49484C32.9928 1.68744 33.9906 0.934049 35.1586 0.508315C39.017 -0.897533 43.2794 0.691687 45.2347 4.30012C45.6083 4.98883 46.2114 6.5347 46.2114 7.29732V10.318V10.3187ZM31.1307 3.46713C30.8623 3.12029 30.4563 2.80472 30.0912 2.55596C25.5485 -0.534343 19.6542 2.56378 19.304 7.93486L19.3139 24.8825C19.8682 24.9251 20.2975 25.2514 20.7897 25.4575L20.7876 7.65127C21.3462 2.7699 27.5024 1.05345 30.5001 4.91634L31.2458 3.53821C31.2415 3.49272 31.1533 3.49485 31.1321 3.46713H31.1307ZM43.4573 10.3187H44.8344C44.912 10.3187 44.9353 10.1453 44.9438 10.0735C45.15 8.30729 44.7764 5.96752 43.797 4.46857C40.9081 0.0491758 34.2575 0.382514 31.8969 5.11534C31.6695 5.57093 31.1702 6.90357 31.1702 7.36911V26.879C31.6504 27.0012 32.1666 26.9799 32.5854 26.6885L32.5797 8.00522C32.9137 2.75497 39.5502 0.841653 42.5266 5.1786C42.8712 5.68038 43.458 6.99241 43.458 7.58162V10.318L43.4573 10.3187ZM29.8285 10.3187C29.8582 9.45655 29.7904 8.58376 29.8257 7.72163C29.8398 7.37764 30.0164 6.86235 29.938 6.55104C29.6506 5.40391 27.8054 4.24682 26.6854 4.13594C24.4787 3.91774 22.0608 5.68536 22.0608 8.00877V10.2121C22.0608 10.2199 22.159 10.3187 22.1667 10.3187H29.8285ZM42.1157 10.3187V7.58233C42.1157 7.29021 41.7273 6.42951 41.5627 6.14876C40.2111 3.84525 37.0334 3.42449 35.1318 5.31506C34.6488 5.79552 33.9242 7.04501 33.9242 7.72448V10.3187H42.1157ZM29.8285 11.6691H22.0608V13.8724H29.8285V11.6691ZM29.8285 15.2228H22.0608V17.3906C22.0608 17.3984 22.159 17.4972 22.1667 17.4972H29.8285V15.2228ZM29.8285 21.0509V18.8831C29.8285 18.8753 29.7304 18.7765 29.7226 18.7765H22.1667C22.159 18.7765 22.0608 18.8753 22.0608 18.8831V21.0509H29.8285ZM29.8285 22.4013H22.0608V26.6302C22.0608 26.7432 22.7437 26.9287 22.8807 26.9422C24.187 27.073 24.6234 25.9557 25.5429 25.3722C26.9764 24.4625 28.6168 24.7787 29.8292 25.8839V22.4013H29.8285Z" fill="#ED1C25" fill-opacity="0.5"/>
<path d="M4.02361 37.5699C4.53698 37.9928 4.8251 38.5202 5.5715 38.6069C7.41457 38.8208 7.86651 36.7554 9.81762 36.5543C12.0625 36.3226 12.2002 37.7377 13.6429 38.4442C15.3941 39.3013 16.1179 37.405 17.4229 36.8173C18.2957 36.4242 19.4242 36.4527 20.2737 36.8883C21.5137 37.5237 21.7594 38.8009 23.4387 38.6076C24.25 38.5145 24.6448 37.7832 25.2055 37.3297C26.348 36.4065 27.8952 36.2522 29.1472 37.0554C29.7898 37.4676 30.4543 38.4953 31.2127 38.6012C32.7275 38.8123 32.9301 37.9552 33.9315 37.2274C34.8085 36.5898 35.759 36.3851 36.821 36.6524C38.6825 37.12 39.4013 39.9218 41.6935 38.0042C42.9215 36.9772 43.6538 36.1243 45.4926 36.6659C47.0045 37.1115 47.3435 38.7682 49.0743 38.6105C50.3934 38.4896 50.9745 36.6168 52.8826 36.5429C54.0315 36.4989 53.999 37.7199 53.2222 37.8805C52.324 38.0668 52.3388 37.9324 51.5776 38.5707C50.4485 39.5174 49.9909 40.1506 48.3024 39.9502C46.3542 39.7185 45.3952 36.7412 43.3212 38.2921C42.0063 39.2757 41.7726 40.1627 39.7594 39.9488C37.6409 39.7242 36.8338 36.5493 34.5274 38.4669C33.339 39.4548 32.9351 40.1521 31.1435 39.9502C29.5462 39.7697 28.8782 38.098 27.8006 37.9132C26.1327 37.6282 25.7697 39.0326 24.5367 39.6403C23.7303 40.0383 22.7106 40.0796 21.8731 39.7569C20.3217 39.1584 19.4743 36.7654 17.4385 38.3951C16.1949 39.3909 15.8941 40.1585 13.9854 39.9481C11.9467 39.7235 11.1897 36.7377 8.96458 38.324C7.69774 39.2267 7.51838 40.1087 5.5708 39.9602C3.74468 39.8209 3.32028 38.1933 2.08238 37.9274C1.63962 37.8322 0.924288 37.9481 0.944766 37.2238C0.968775 36.3766 1.85924 36.501 2.44535 36.6374C3.08513 36.7867 3.53424 37.1655 4.02573 37.5699H4.02361Z" fill="#ED1C25" fill-opacity="0.5"/>
<path d="M12.8512 31.9551C13.8031 32.7377 14.4832 33.2359 15.6871 32.3738C17.0331 31.41 17.2054 30.5095 19.2702 30.7184C21.4557 30.9388 22.0842 34.2132 24.6066 32.1058C25.7237 31.1726 26.05 30.5656 27.7476 30.7149C29.513 30.8705 30.0786 32.6175 31.3539 32.7704C32.9336 32.9594 33.2754 31.6111 34.473 31.0219C35.2223 30.6531 36.2674 30.5983 37.0498 30.8755C38.5066 31.3915 39.4712 33.6986 41.291 32.4825C42.6701 31.5607 42.8 30.5294 44.9065 30.7149C46.6634 30.8698 47.2947 32.6119 48.4408 32.7725C50.1737 33.0148 50.5995 31.2892 52.0853 30.8386C52.6064 30.6808 53.7426 30.518 53.7716 31.3233C53.8005 32.1286 53.1014 31.9992 52.6177 32.0845C51.8784 32.2146 51.1637 33.2814 50.4682 33.6879C49.875 34.0355 49.1258 34.1883 48.4429 34.1201C46.1479 33.8905 45.4757 30.6133 42.9985 32.7092C41.8079 33.7171 41.1935 34.4399 39.4147 34.0383C37.7574 33.6638 37.4128 31.813 35.5174 32.0738C34.788 32.174 34.1581 33.1023 33.5628 33.5181C32.4845 34.2714 31.164 34.3319 30.0172 33.6879C29.2856 33.2771 28.5463 32.162 27.7434 32.0674C25.6108 31.8158 25.3678 34.3489 22.7311 34.1272C20.84 33.968 20.304 32.0006 18.7046 32.0362C17.4963 32.0632 17.0133 33.2153 16.0579 33.7384C14.8228 34.4143 13.4366 34.1925 12.3513 33.3439C11.8019 32.9139 11.3224 32.1655 10.576 32.0745C8.80918 31.8599 8.63123 33.2089 7.31496 33.823C6.35246 34.2714 5.15694 34.2295 4.24106 33.6886C3.60764 33.3141 3.0985 32.5415 2.50179 32.2409C1.96512 31.9701 1.08807 32.1833 0.959548 31.5166C0.748408 30.4221 2.25676 30.6886 2.87606 30.9402C4.21069 31.4832 4.60614 33.0035 6.26984 32.7718C7.41806 32.6119 8.06419 30.9054 9.67281 30.7241C11.2468 30.5472 11.7517 31.0525 12.8491 31.9544L12.8512 31.9551Z" fill="#ED1C25" fill-opacity="0.5"/>
</svg>
