<svg width="63" height="47" viewBox="0 0 63 47" fill="none" xmlns="http://www.w3.org/2000/svg">
<path d="M44.7355 34.6243C43.9505 34.3245 43.0721 34.2198 42.2471 33.9314C40.1651 33.2015 38.1292 31.7192 37.5587 29.4855C31.0386 29.7185 28.1726 21.498 33.4234 17.5859C33.1443 16.9834 32.7738 16.4157 32.5973 15.7649C31.8544 13.0138 32.8857 10.1056 35.2612 8.51653C36.4597 7.71481 37.7742 7.47358 39.1933 7.36887C38.7377 5.10434 39.9599 2.53699 41.8274 1.22817C46.5774 -2.1019 52.8245 1.79378 52.1226 7.47358C57.4452 7.21797 60.6426 13.0825 57.8854 17.5695C60.2619 19.5199 61.2532 22.4948 60.0731 25.4358C59.3641 27.2025 58.0588 28.3624 56.3247 29.0769C56.1061 29.1672 55.3601 29.3212 55.3211 29.3551C55.277 29.3941 55.2133 29.8961 55.1466 30.0542C54.3134 32.0302 52.4089 33.4017 50.3997 34.0309C49.744 34.2362 48.3618 34.7546 48.1423 33.7815C47.8457 32.4727 49.3326 32.5209 50.1996 32.1883C51.4146 31.7223 53.0195 30.6793 53.4597 29.3931C53.6126 28.9455 53.5736 28.2351 53.8609 27.9467C54.1882 27.6172 54.7731 27.6777 55.2021 27.5433C59.1198 26.3073 60.1101 21.5884 56.7915 19.0734C56.3308 18.7243 55.6433 18.6576 55.553 17.9483C55.4853 17.4165 56.494 16.4301 56.7587 15.7556C58.027 12.5272 55.5356 8.99284 52.0672 9.2156C51.2956 9.26487 50.0314 9.84383 50.0621 8.44878C50.0919 7.13893 50.6594 6.71292 50.1453 5.08895C48.5034 -0.0898985 40.4257 1.17479 40.9337 7.1184C40.9942 7.82978 41.5401 8.52064 40.9932 9.12116C40.4462 9.72168 39.8808 9.27206 39.2436 9.22176C35.7301 8.94665 33.173 12.6021 34.5572 15.8593C34.8805 16.62 36.1221 17.6732 35.5711 18.4277C35.488 18.5416 34.4577 19.0785 34.1642 19.33C30.8939 22.1252 32.7861 27.5258 36.983 27.7014C37.4797 27.7219 37.8881 27.5833 38.3211 27.5864C39.4991 27.5956 39.1697 28.7535 39.4622 29.5337C40.161 31.4051 42.9202 32.4213 44.7355 32.7272V24.1044C44.7355 24.0869 44.5456 24.0736 44.4256 23.9576C42.8351 22.4075 40.1035 20.0126 38.8332 18.3589C38.0902 17.3919 38.6095 16.4701 39.8059 16.7719L44.7355 21.6417V6.29204C44.7355 6.21094 45.0474 5.84961 45.15 5.78288C45.6344 5.46466 46.2624 5.6792 46.4584 6.21094L46.4809 14.2466L47.0463 13.8411L50.0447 10.7544C51.3294 10.1631 52.0467 11.1629 51.1499 12.2983C49.9934 13.7611 47.7503 15.266 46.7323 16.7072C46.641 16.8376 46.5528 16.9515 46.524 17.1147L46.4809 29.9536L51.9205 24.5663C52.9959 24.2409 53.6557 25.1268 53 26.0569L46.5004 32.5917L46.4799 45.1462H62.3337C62.4322 45.1462 62.8201 45.4993 62.8847 45.6215C63.2552 46.3216 62.6785 47.0402 61.9273 46.9981H1.27353C0.45673 47.0371 -0.303636 46.4817 0.12221 45.6318C0.193013 45.4911 0.546003 45.1462 0.661957 45.1462H5.22826V41.1427H3.22729C2.57262 41.1427 2.22476 40.2045 2.57057 39.6645C2.62701 39.5763 3.07543 39.295 3.12468 39.295H5.22826C5.17182 38.9665 5.36679 36.7287 5.07434 36.7287H3.02207C2.95742 36.7287 2.55312 36.4094 2.51003 36.317C2.32019 35.8972 2.5326 34.9836 3.02207 34.9836H5.22826C5.18619 34.7167 5.3319 33.9355 5.1318 33.7969C4.86295 33.609 3.54642 33.8523 3.15957 33.8C2.22373 33.6737 2.17961 32.1616 3.13084 32.0128L29.2932 32.0046C30.4014 32.136 30.2526 33.6049 29.4943 33.7497C29.1444 33.8164 27.521 33.6768 27.3876 33.802C27.246 33.9365 27.2358 34.7464 27.3353 34.8871C27.6401 35.3223 30.4291 34.2414 30.0587 36.161C30.0228 36.3488 29.6369 36.7287 29.4964 36.7287H27.4441C27.1516 36.7287 27.3466 38.9665 27.2902 39.295H29.3937C29.4235 39.295 29.8555 39.5506 29.9037 39.606C30.1243 39.8657 30.1285 40.4929 29.9479 40.7732C29.8914 40.8615 29.443 41.1427 29.3937 41.1427H27.2902V45.1462H44.7345V34.6243H44.7355ZM25.5468 33.7517H7.12763C6.88341 33.7517 6.99424 34.7649 6.97371 34.9836H25.5468V33.7517ZM25.5468 36.7287H6.97371V39.295H25.5468V36.7287ZM25.5468 41.1427H6.97371V45.1462H25.5468V41.1427Z" fill="#ED1C25" fill-opacity="0.5"/>
</svg>
