<svg width="54" height="46" viewBox="0 0 54 46" fill="none" xmlns="http://www.w3.org/2000/svg">
<path d="M0.0300567 41.1814C0.30815 37.8415 2.60108 34.3716 5.51082 32.7321L16.8097 27.1673L16.8315 14.6157H15.3831C15.2566 14.6157 14.8813 14.4266 14.7802 14.329C14.2757 13.843 14.3532 13.041 14.892 12.6189L29.2441 0.247028C29.8502 -0.188817 30.4652 -0.010396 30.9595 0.489361L45.2211 12.8182C45.6423 13.2531 45.5469 14.0427 45.0638 14.3933C44.9742 14.4581 44.6186 14.6153 44.529 14.6153H43.0806V26.0355C46.2956 28.9285 49.5739 31.7548 52.7742 34.661C53.1428 35.0964 53.3629 35.5775 53.5091 36.1252V45.084C53.1441 45.9304 52.3045 45.807 51.5241 45.7955C47.1192 45.7307 42.6991 45.7165 38.288 45.7067C37.9417 45.7338 37.3761 45.2576 37.3761 44.9287V36.724C37.3761 36.7191 37.3142 36.6574 37.3093 36.6574H22.647C22.6323 36.6574 22.5792 36.716 22.5356 36.7018V44.9731C22.5356 45.246 22.007 45.716 21.7111 45.7049C20.4401 45.6006 18.9435 45.8443 17.6997 45.7049C17.1769 45.6463 16.848 45.1595 16.8293 44.6641L16.8306 36.9676L1.3969 45.3135C0.833586 45.5656 0.261801 45.2642 0.0300567 44.7294C0.100471 43.5794 -0.0644238 42.318 0.0300567 41.1814ZM29.9563 0.842653C29.893 0.842653 29.8288 0.875496 29.7776 0.911003C24.993 5.06618 20.2016 9.21158 15.3796 13.3259C15.2374 13.4999 15.31 13.7569 15.5587 13.7311C24.3245 13.6912 33.1009 13.8501 41.8537 13.7267C42.6118 13.7161 43.6912 13.8239 44.398 13.7307C44.6605 13.6961 44.71 13.4733 44.5085 13.3055C39.9877 9.50451 35.6011 5.5464 31.0932 1.73121C30.8155 1.49642 30.4118 1.09653 30.1346 0.911003C30.082 0.87594 30.0209 0.842653 29.9559 0.842653H29.9563ZM21.6893 14.6157H17.7229C17.722 21.2608 17.7229 27.9072 17.7251 34.5532C17.726 37.9121 17.7202 41.3247 17.7206 44.7094C17.7108 44.7547 17.7527 44.8625 17.7897 44.8625H21.5778C21.5859 44.8625 21.6893 44.7596 21.6893 44.7516V14.6157ZM37.3766 25.7919V14.6823C37.3766 14.6774 37.3146 14.6157 37.3097 14.6157H22.536V25.7919H37.3766ZM38.2233 14.6157V44.7516C38.2233 44.7596 38.3267 44.8625 38.3348 44.8625H42.1675C42.1724 44.8625 42.2343 44.8008 42.2343 44.796V14.6823C42.2343 14.6774 42.1724 14.6157 42.1675 14.6157H38.2233ZM25.0763 26.6787H22.536V33.4201H25.0763V26.6787ZM29.1764 26.6787H25.9676V33.4201H29.1764V26.6787ZM33.2765 26.6787H30.0231V33.4201H33.2765V26.6787ZM37.3766 26.6787H34.1232V33.4201H37.3766V26.6787ZM52.6628 41.935V36.325C52.6628 35.9619 52.2091 35.2598 51.9288 35.0156L43.0811 27.2113V35.815H45.5991C45.9551 35.815 46.5572 36.36 46.5572 36.724V38.8748H49.2089C49.463 38.8748 50.0334 39.4424 50.0334 39.6954V41.8906H52.596C52.6053 41.8906 52.6468 41.9572 52.6628 41.935ZM16.8315 28.1424L5.88294 33.5013C3.35693 35.0139 1.56269 37.5757 1.03191 40.4708C0.831804 41.5617 0.785455 43.2448 0.874587 44.3548C0.890185 44.5479 0.915588 44.6064 1.11703 44.503C6.35401 41.6345 11.6454 38.8415 16.8708 35.965C16.8774 35.9259 16.8315 35.894 16.8315 35.882V30.7597L6.07904 36.1803C5.54023 36.3835 5.20776 35.6991 5.70379 35.408L16.8315 29.8286V28.1433V28.1424ZM37.3766 35.815V34.3295C37.3766 34.3246 37.3146 34.2629 37.3097 34.2629H22.6029C22.598 34.2629 22.536 34.3246 22.536 34.3295V35.815H37.3766ZM43.0811 44.8621L52.6628 44.8399V42.8884C52.6628 42.8085 52.4052 42.7419 52.3286 42.733C51.472 42.6358 50.4171 42.8333 49.5646 42.7339C49.3145 42.7046 49.2134 42.5435 49.1866 42.3114C49.0984 41.54 49.2718 40.6359 49.1635 39.8512C49.1042 39.7616 49.0494 39.7287 48.9438 39.715C48.1108 39.6062 47.0372 39.7988 46.1766 39.7189C45.9226 39.6954 45.7421 39.6164 45.7096 39.3412C45.6231 38.6147 45.8188 37.6529 45.7078 36.9481C45.6922 36.8487 45.5585 36.6574 45.4654 36.6574H43.1479C43.143 36.6574 43.0811 36.7191 43.0811 36.724V44.8621Z" fill="#ED1C25" fill-opacity="0.5"/>
<path d="M27.8105 6.64865C29.2789 5.06683 32.022 5.57236 32.6651 7.66281C33.4223 10.1248 30.8602 12.2387 28.5837 11.0151C27.0261 10.1776 26.5938 7.95974 27.8109 6.64865H27.8105ZM29.5668 6.59983C28.8435 6.70369 28.2134 7.36101 28.0396 8.05161C27.6175 9.72975 29.4055 11.0985 30.9279 10.2606C32.8269 9.21579 31.9075 6.26385 29.5668 6.59983Z" fill="#ED1C25" fill-opacity="0.5"/>
</svg>
