<svg width="54" height="29" viewBox="0 0 54 29" fill="none" xmlns="http://www.w3.org/2000/svg">
<path d="M0 5.71734C0.10125 5.53848 0.608555 5.24007 0.791016 5.24007H4.85156V2.61459C4.85156 2.43 5.33355 1.99385 5.53711 1.99385H9.80859V0.515172C9.80859 0.355444 10.3855 0.105808 10.5975 0.0838099C11.6279 -0.0271391 14.5273 -0.0261826 15.5588 0.0838099C15.891 0.119199 16.3477 0.421439 16.3477 0.706463V10.6823H27.5801C28.2224 10.6823 28.3068 12.1141 27.5801 12.1141H16.3477V16.8868H37.6523V12.1141H30.7441C30.3191 12.1141 30.144 11.3461 30.3676 11.0094C30.4109 10.9444 30.8021 10.6823 30.8496 10.6823H37.6523V0.705507C37.6523 0.420483 38.1101 0.118242 38.4412 0.0828534C39.4727 -0.0271391 42.3721 -0.0280955 43.4025 0.0828534C43.6145 0.105808 44.1914 0.354487 44.1914 0.514215V1.99385H48.4629C48.6664 1.99385 49.1484 2.43 49.1484 2.61459V5.24007H53.209C53.3914 5.24007 53.8988 5.53848 54 5.71734V10.4901C53.7057 10.8726 53.3957 11.1328 52.8409 10.9176C52.7903 10.8975 52.418 10.5647 52.418 10.5379V6.76753H49.1484V22.2315H52.418V13.4015C52.418 12.8267 53.7595 12.6995 54 13.3537V23.2817C53.8439 23.4548 53.4526 23.759 53.209 23.759H49.1484V26.3845C49.1484 26.5069 48.5968 27.0052 48.4629 27.0052H44.1914V28.4848C44.1914 28.6446 43.6145 28.8942 43.4025 28.9162C42.3721 29.0271 39.4727 29.0262 38.4412 28.9162C38.109 28.8808 37.6523 28.5786 37.6523 28.2935V18.3177H16.3477V21.0379C16.3477 21.8815 14.6602 21.7648 14.6602 21.1335V1.51754H11.3906V27.4825H14.6602V24.0937C14.6602 24.0172 14.9808 23.6844 15.0862 23.6212C15.6199 23.3008 16.1673 23.6174 16.3023 24.1358C16.45 24.704 16.4352 27.4605 16.3498 28.1061C16.2896 28.5633 16.0766 28.8617 15.5577 28.9171C14.522 29.0271 11.63 29.0281 10.5964 28.9171C10.3845 28.8942 9.80754 28.6455 9.80754 28.4858V27.0061H5.53606C5.40211 27.0061 4.85051 26.5078 4.85051 26.3854V23.7599H0.791016C0.547383 23.7599 0.156094 23.4558 0 23.2827V5.71734ZM42.6094 1.51754H39.3398V27.4825H42.6094V1.51754ZM9.80859 25.4777V3.56914L9.65039 3.42567H6.53906V25.4768H9.80859V25.4777ZM47.4609 3.42663H44.3496L44.1914 3.57009V25.4777H47.4609V3.42663ZM4.85156 6.76753H1.58203V22.2315H4.85156V6.76753Z" fill="#ED1C25" fill-opacity="0.5"/>
</svg>
