<svg width="46" height="53" viewBox="0 0 46 53" fill="none" xmlns="http://www.w3.org/2000/svg">
<path d="M0.132526 20.6231C0.606805 18.9718 5.01761 18.9847 5.93167 17.799C7.82879 15.3414 3.7543 12.9657 4.51746 10.3701C4.608 10.064 8.55314 5.95928 8.94981 5.72214C11.1746 4.40278 12.5242 7.03718 14.2445 7.39936C18.8278 8.36517 17.0169 2.35475 19.5392 1.22941C20.5265 0.789628 26.0929 0.811186 27.0069 1.40188C28.6324 2.44961 27.3001 8.32636 31.7195 7.40367C33.4356 7.04581 34.7851 4.40709 37.0142 5.72645C37.5747 6.05844 41.6191 10.3399 41.7441 10.8788C42.1451 12.638 38.1094 15.5225 40.2005 17.9542C41.1965 19.1141 45.8315 18.9071 45.8315 20.6318V26.8836C45.8315 26.9699 44.1715 26.944 44.1069 26.8836C43.8482 26.6379 44.4044 21.714 44.0594 21.3173C43.9085 21.1405 40.6015 20.5067 39.64 19.9203C34.8196 16.9669 40.041 11.9223 39.5926 10.922C39.4805 10.6676 36.2856 7.58907 36.0398 7.5244C34.5609 7.14929 32.431 10.9823 28.71 8.85669C26.2438 7.44679 26.4982 5.53674 25.7436 3.14378C24.5062 3.41541 21.2207 2.75573 20.3627 3.35936C19.5047 3.96299 19.9014 8.66698 16.0942 9.46894C13.1493 10.0898 10.9978 6.79573 9.37667 7.88658C9.00155 8.13665 6.30247 10.9177 6.28091 11.1419C6.16881 12.5043 9.56638 14.2678 7.98832 18.1526C6.95353 20.7007 2.58153 20.9551 2.33577 21.3389C1.92617 21.9727 2.51686 25.7755 2.28403 26.8879H0.132526C0.43434 25.1978 -0.281391 22.0848 0.132526 20.6318V20.6231Z" fill="#ED1C25" fill-opacity="0.5"/>
<path d="M14.3568 51.0206C10.4979 50.4127 10.4893 47.7007 10.9463 44.3764C11.3387 41.5566 13.6238 39.4137 16.0901 38.3099C19.9404 36.5896 19.9404 38.5729 23.2 38.5514C24.6013 38.5427 25.5196 37.8141 26.6881 37.6804C29.7623 37.3355 34.0567 40.22 34.8543 43.2467C35.1518 44.385 35.2855 47.955 34.9707 48.9985C34.781 49.6236 32.6468 50.9991 32.2415 50.9732C31.9914 50.9559 31.1808 49.5978 31.1851 49.5072C31.2196 49.1364 32.5864 48.8562 32.8279 48.1534C33.6514 45.7346 32.8451 42.4405 30.7108 40.9228C27.7056 38.7799 27.3348 40.1036 24.5064 40.2674C23.2992 40.3364 21.8418 40.3191 20.6346 40.2286C19.4273 40.1381 19.4704 39.2024 17.5862 39.7845C13.8869 40.9314 12.3131 44.0401 13.059 47.7998C13.3393 49.2097 15.3571 48.7268 14.3568 51.0292V51.0206Z" fill="#ED1C25" fill-opacity="0.5"/>
<path d="M22.0096 23.5248C29.4558 22.3175 32.9871 32.9457 26.1617 36.3044C16.5641 41.03 11.6919 25.1934 22.0096 23.5248ZM21.5655 25.6719C15.9992 26.9525 17.767 36.9339 24.6397 34.7781C30.094 33.0664 28.0459 24.1801 21.5655 25.6719Z" fill="#ED1C25" fill-opacity="0.5"/>
<path d="M34.1901 22.5631C31.8057 23.1753 32.2067 20.7005 31.1029 18.9672C27.4079 13.1551 18.8924 13.0301 15.0335 18.7085C13.9685 20.2779 14.1022 22.6536 12.4249 22.5631C10.8814 22.4812 12.4379 19.4717 12.8345 18.6654C17.642 8.8521 33.5994 11.4736 34.1901 22.5631Z" fill="#ED1C25" fill-opacity="0.5"/>
<path d="M11.3472 32.4845L15.4648 34.6231L14.5852 36.3133C12.589 34.5412 11.2006 35.5415 8.97149 35.5286C6.74237 35.5156 2.94383 34.4851 2.29708 37.8784C1.73657 40.8275 2.17204 41.2501 4.76765 41.858C6.70788 42.3151 9.91574 41.4657 9.18707 44.1173C7.49691 44.4924 1.17606 43.3542 0.339601 41.9658C-0.048446 41.3234 0.0248517 38.7364 0.158512 37.8913C0.641415 34.8344 3.7501 33.1744 6.59578 32.9028C6.38451 32.1827 5.45751 32.1525 4.8625 31.4109C1.62447 27.3839 6.2681 20.8259 11.4938 23.9216C14.8439 25.905 14.9215 30.9927 11.3472 32.4845ZM8.21264 25.2237C4.13815 26.0602 5.62997 32.4544 10.1744 31.0919C13.0503 30.2296 12.4855 24.3442 8.21264 25.2237Z" fill="#ED1C25" fill-opacity="0.5"/>
<path d="M38.5102 32.9155C38.5663 33.7606 39.946 32.9759 40.6833 33.0966C44.8268 33.7606 46.573 37.4082 45.8357 41.3189C45.4218 43.5092 38.8034 44.4491 36.7769 44.1171C36.0267 41.4396 39.5364 42.2933 41.5456 41.7716C46.5514 40.4738 43.3781 35.2826 40.4246 35.0757C39.6226 35.0196 38.5188 35.5241 37.4409 35.5241C34.9402 35.5154 33.3923 34.5884 31.1848 36.3605L30.3311 34.8471C31.5038 33.7649 32.9956 32.9543 34.6254 32.9069C31.8013 30.8028 30.8485 26.9698 33.7502 24.4906C40.084 19.0752 46.6161 30.3717 38.5102 32.9198V32.9155ZM36.2294 25.2365C33.4484 25.8617 33.3837 30.6735 36.1518 31.1823C41.9423 32.2472 41.1274 24.1327 36.2294 25.2365Z" fill="#ED1C25" fill-opacity="0.5"/>
<path d="M17.3744 45.8417C17.4994 46.566 17.2106 50.0024 17.3744 50.1576C17.5383 50.3128 21.2333 50.5888 21.8801 50.606C22.7424 50.6319 28.3432 50.3861 28.589 50.1576C29.0719 49.7049 27.2955 44.9319 30.7405 45.8417C30.4257 48.0751 31.8227 50.8863 29.2185 51.865C26.8859 52.7446 18.4739 52.9516 16.3784 51.8004C15.2014 51.1536 14.0286 44.6689 17.3744 45.8417Z" fill="#ED1C25" fill-opacity="0.5"/>
</svg>
