<svg width="70" height="71" viewBox="0 0 70 71" fill="none" xmlns="http://www.w3.org/2000/svg">
<path d="M35.9059 6.84283H39.7909C39.9277 6.84283 40.4287 7.34497 40.4287 7.48066V12.5253H46.6331C46.8128 12.5253 47.2709 13.1481 47.2709 13.2791V68.1903H51.0979V64.4213C51.0979 64.1732 51.6905 63.7186 51.9746 63.6745C53.6828 63.4054 56.0346 63.8972 57.7753 63.678C58.0467 63.6443 57.8832 63.4379 57.9992 63.4344C58.1082 63.431 57.9992 63.6455 58.1314 63.6745C58.5778 63.7742 59.073 63.3904 59.567 64.0711C59.9312 64.5732 59.6714 64.7472 59.6958 65.1229C59.7248 65.5555 59.7085 65.6831 59.7167 66.0588C59.7306 66.7662 59.8094 67.4794 59.7978 68.1903H63.6248V31.3122H58.4642C58.412 31.3122 57.9423 30.7556 57.9423 30.6744V27.9491H52.9557V30.6744C52.9557 30.8321 52.5266 31.2693 52.3144 31.3088C51.9108 31.3853 49.4673 31.354 49.1983 31.1835C48.7553 30.9029 48.8133 30.1317 49.1832 29.8012C49.6482 29.386 50.5145 29.6377 51.099 29.5716V26.9623C51.099 26.5424 51.564 26.2398 51.9618 26.2015C54.1884 25.987 56.7699 26.3708 59.0359 26.2154C59.3583 26.2003 59.7967 26.692 59.7967 26.9623V29.5716H64.7253C64.9492 29.5716 65.4791 30.1015 65.4791 30.3253V68.1892H69.1322C69.2597 68.1892 69.6691 68.4663 69.7769 68.5881C70.3301 69.2108 69.77 70.0203 69.0185 70.0481C46.2295 70.0052 23.4277 70.1189 0.646793 69.9936C-0.444473 69.6596 0.00316665 68.1903 0.826545 68.1903H4.47956V26.9634C4.47956 26.2989 6.01035 25.8745 6.53801 25.6588C10.881 23.8821 15.3516 22.3931 19.6923 20.6072C20.9877 20.1039 21.6696 21.6068 20.4891 22.2157L6.33506 27.6024V68.1915H10.162C10.3603 67.1837 9.6077 64.1013 10.852 63.7209L17.9841 63.6757C18.2543 63.6432 18.8608 64.2381 18.8608 64.4225V68.1915H22.6878V13.2791C22.6878 13.1481 23.1459 12.5253 23.3256 12.5253H29.53V7.48066C29.53 7.34497 30.031 6.84283 30.1678 6.84283H34.0528V0.754468C34.0528 0.399603 34.6616 -0.0190439 35.0304 0.000670803C35.3041 0.0157467 35.9083 0.531808 35.9083 0.754468V6.84283H35.9059ZM38.6892 8.58236H31.2672V12.5253H38.6892V8.58236ZM24.541 68.1903H30.6873V64.3054C30.6873 63.9227 31.3356 63.6919 31.6673 63.6617C33.4857 63.4971 37.6594 63.4657 39.443 63.6675C39.7619 63.7035 40.4287 63.9331 40.4287 64.3054V68.1903H45.4154V14.2648L40.351 14.3379L24.5398 14.2648V68.1915L24.541 68.1903ZM17.003 65.523H12.0164V68.1903H17.003V65.523ZM38.6892 65.523H32.4269V68.1903H38.6892V65.523ZM57.94 65.523H52.9534V68.1903H57.94V65.523Z" fill="#ED1C25" fill-opacity="0.5"/>
<path d="M16.1017 59.5821C15.6413 59.1159 15.9556 58.158 16.6213 58.0096C17.0121 57.9226 18.7238 57.9261 19.1413 57.9922C20.1606 58.1534 20.1931 59.5566 19.2132 59.7909C18.7076 59.9115 16.4404 59.9254 16.1017 59.5821Z" fill="#ED1C25" fill-opacity="0.5"/>
<path d="M57.5586 58.009C58.1628 57.8745 60.597 57.8003 60.815 58.5309C61.2882 60.1092 58.9665 59.9353 57.9935 59.8448C56.4917 59.7045 56.53 58.2387 57.5586 58.009Z" fill="#ED1C25" fill-opacity="0.5"/>
<path d="M57.5587 52.3269C58.1629 52.1913 60.5971 52.1182 60.8151 52.8488C61.2837 54.4121 58.9504 54.252 57.9936 54.1627C56.5092 54.0247 56.4837 52.5682 57.5587 52.3269Z" fill="#ED1C25" fill-opacity="0.5"/>
<path d="M50.716 46.6448C51.0883 46.5613 53.0748 46.566 53.4227 46.6727C54.0849 46.8745 54.3145 47.8382 53.7115 48.2498C53.1896 48.6059 50.5571 48.6325 50.1605 48.0794C49.8091 47.5911 50.1037 46.7828 50.716 46.6448Z" fill="#ED1C25" fill-opacity="0.5"/>
<path d="M9.77959 52.3274C10.1484 52.245 12.0282 52.245 12.3982 52.3274C13.399 52.5524 13.4025 53.9266 12.2799 54.1307C11.9528 54.1898 10.7213 54.1898 10.3351 54.1666C8.75675 54.075 8.76487 52.5547 9.78075 52.3274H9.77959Z" fill="#ED1C25" fill-opacity="0.5"/>
<path d="M16.6214 52.327C17.2256 52.1924 19.6598 52.1182 19.8778 52.8477C20.3428 54.4028 18.1186 54.2428 17.1734 54.1616C15.5487 54.0236 15.5812 52.5589 16.6226 52.327H16.6214Z" fill="#ED1C25" fill-opacity="0.5"/>
<path d="M9.77916 46.6448C10.1526 46.5613 12.138 46.566 12.4859 46.6727C13.3881 46.9475 13.3475 48.2568 12.2783 48.4493C11.695 48.5537 9.68523 48.5815 9.29325 48.1258C8.86881 47.6329 9.12626 46.7921 9.778 46.646L9.77916 46.6448Z" fill="#ED1C25" fill-opacity="0.5"/>
<path d="M9.66368 58.0096C9.94549 57.9273 12.0782 57.9389 12.3982 58.0096C13.1056 58.1685 13.413 59.0348 12.8377 59.559C12.513 59.8547 10.9069 59.8791 10.4465 59.8443C9.67992 59.7863 9.0189 59.6854 9.10703 58.7368C9.13139 58.47 9.41319 58.0815 9.66252 58.0085L9.66368 58.0096Z" fill="#ED1C25" fill-opacity="0.5"/>
<path d="M50.7163 52.3267C51.3193 52.191 53.7547 52.1191 53.9727 52.8474C54.4389 54.4049 52.1253 54.253 51.1511 54.1625C49.6528 54.0222 49.7433 52.5459 50.7163 52.3267Z" fill="#ED1C25" fill-opacity="0.5"/>
<path d="M16.6215 46.6448C17.2257 46.5103 19.6599 46.436 19.878 47.1666C20.3418 48.7137 17.9911 48.5675 17.0622 48.4748C15.5488 48.3229 15.5917 46.8756 16.6215 46.6459V46.6448Z" fill="#ED1C25" fill-opacity="0.5"/>
<path d="M50.7164 58.0091C51.0899 57.9256 53.0752 57.9302 53.4231 58.0369C54.3521 58.3199 54.2372 59.7046 53.2121 59.8205C52.3701 59.6489 51.4923 60.0235 50.6527 59.7637C49.7933 59.497 49.8339 58.2074 50.7164 58.0091Z" fill="#ED1C25" fill-opacity="0.5"/>
<path d="M57.5585 46.6448C57.9331 46.5613 59.9173 46.566 60.2652 46.6727C61.2034 46.958 61.0631 48.3101 59.8419 48.4679C59.5914 48.5003 58.2647 48.5038 57.9934 48.4829C56.5008 48.3635 56.5252 46.8756 57.5573 46.646L57.5585 46.6448Z" fill="#ED1C25" fill-opacity="0.5"/>
<path d="M12.9136 35.5163C13.2175 35.8468 13.1943 36.524 12.8382 36.8313C12.3384 37.2627 10.3066 37.1514 9.66765 36.9659C8.83615 36.7247 8.93008 35.471 9.77898 35.2797C10.2649 35.1707 12.6017 35.1765 12.9136 35.5163Z" fill="#ED1C25" fill-opacity="0.5"/>
<path d="M50.7162 35.2796C51.0897 35.1961 53.0751 35.2007 53.423 35.3074C54.2382 35.5556 54.2742 36.8313 53.4705 36.9901C52.7492 37.1328 51.1998 37.1618 50.5098 36.9438C49.8198 36.7257 49.8755 35.4675 50.7151 35.2796H50.7162Z" fill="#ED1C25" fill-opacity="0.5"/>
<path d="M57.5583 35.2796C57.9329 35.1961 59.9171 35.2007 60.265 35.3074C60.9306 35.5104 61.071 36.4915 60.534 36.8649C59.9345 37.2824 59.5077 36.9832 58.9244 36.9832C58.3411 36.9832 57.3739 37.2998 56.9634 36.6364C56.634 36.103 56.9703 35.4106 57.5571 35.2796H57.5583Z" fill="#ED1C25" fill-opacity="0.5"/>
<path d="M9.77925 40.9621C10.1469 40.8798 12.0314 40.8798 12.3978 40.9621C13.1609 41.1349 13.4566 42.1381 12.777 42.5683C12.1984 42.9348 10.3313 42.6391 9.57515 42.624C8.85034 42.3549 8.96167 41.1454 9.77925 40.9621Z" fill="#ED1C25" fill-opacity="0.5"/>
<path d="M16.6212 35.2796C16.9425 35.2077 19.074 35.1972 19.3558 35.2796C19.9994 35.4675 20.1131 36.6353 19.5506 36.9333C19.3465 37.0412 17.6905 37.0817 17.3426 37.0725C16.8717 37.0597 16.2861 37.0574 16.0263 36.6364C15.6981 36.103 16.0333 35.4106 16.6201 35.2796H16.6212Z" fill="#ED1C25" fill-opacity="0.5"/>
<path d="M50.7162 40.9622C51.0896 40.8787 53.075 40.8834 53.4229 40.9901C54.2451 41.2405 54.2649 42.5266 53.4716 42.6751C53.1794 42.7296 50.7174 42.7435 50.4889 42.6507C49.8117 42.3736 49.8882 41.1489 50.715 40.9634L50.7162 40.9622Z" fill="#ED1C25" fill-opacity="0.5"/>
<path d="M16.6217 40.9622C16.9963 40.8787 18.9805 40.8834 19.3284 40.9901C20.0416 41.2069 20.1065 42.3214 19.5511 42.6159C19.3156 42.7412 16.6657 42.7331 16.3897 42.653C15.6499 42.4385 15.7693 41.1524 16.6217 40.9622Z" fill="#ED1C25" fill-opacity="0.5"/>
<path d="M9.77913 29.5969C10.1479 29.5146 12.0278 29.5146 12.3977 29.5969C13.3394 29.808 13.3568 31.1567 12.5345 31.3086C12.1716 31.3759 9.88466 31.3608 9.57386 31.2611C8.87109 31.0338 8.94299 29.7848 9.77913 29.5969Z" fill="#ED1C25" fill-opacity="0.5"/>
<path d="M57.5582 40.9622C57.9328 40.8787 59.917 40.8834 60.2649 40.9901C61.0558 41.2313 61.1161 42.4257 60.1861 42.6658C59.866 42.7481 57.586 42.7284 57.3263 42.653C56.5864 42.4385 56.7058 41.1524 57.5582 40.9622Z" fill="#ED1C25" fill-opacity="0.5"/>
<path d="M16.6213 29.597C16.9958 29.5135 18.9801 29.5181 19.328 29.6248C20.1096 29.8626 20.2024 31.1498 19.2572 31.3064C18.8432 31.3748 16.7732 31.3713 16.4172 31.2611C15.5833 31.0025 15.8153 29.7779 16.6213 29.5981V29.597Z" fill="#ED1C25" fill-opacity="0.5"/>
<path d="M28.1962 32.9912C28.5301 33.0028 28.9163 33.309 29.0114 33.6256C29.1285 34.0117 29.1529 36.0192 29.0091 36.4204C28.7227 37.2171 27.5722 37.2855 27.3032 36.3775C27.0562 35.5472 26.8927 32.9483 28.195 32.9924L28.1962 32.9912Z" fill="#ED1C25" fill-opacity="0.5"/>
<path d="M42.4894 33.1948C42.8617 33.552 42.8165 35.9583 42.6275 36.4698C42.2993 37.3604 41.0375 37.1377 40.8984 36.2344C40.8253 35.7577 40.8149 34.1782 40.9158 33.7132C41.0607 33.0464 42.0383 32.7599 42.4894 33.1936V33.1948Z" fill="#ED1C25" fill-opacity="0.5"/>
<path d="M27.475 44.7311C27.0877 44.2742 27.1306 42.0429 27.3544 41.4897C27.6675 40.7174 28.855 40.7754 29.0383 41.5999C29.1229 41.9803 29.1229 43.9529 29.0383 44.3333C28.8863 45.0117 27.9041 45.2367 27.4738 44.7311H27.475Z" fill="#ED1C25" fill-opacity="0.5"/>
<path d="M28.7947 28.8396C28.1754 29.4043 27.3741 28.9799 27.2349 28.211C27.1352 27.6555 27.1259 25.7246 27.4738 25.3153C27.9006 24.8131 28.8851 25.0288 29.0382 25.713C29.1298 26.1236 29.1229 27.7912 29.0684 28.2446C29.044 28.4406 28.9373 28.7108 28.7947 28.8407V28.8396Z" fill="#ED1C25" fill-opacity="0.5"/>
<path d="M28.7995 17.3125C29.1822 17.6929 29.1833 20.344 28.8876 20.7568C28.5919 21.1697 27.8462 21.2589 27.5029 20.8716C27.1179 20.4367 27.1237 18.4258 27.2594 17.8518C27.4287 17.1386 28.2602 16.7744 28.8006 17.3125H28.7995Z" fill="#ED1C25" fill-opacity="0.5"/>
<path d="M41.1568 17.3125C41.696 16.7744 42.5287 17.1386 42.698 17.8518C42.8337 18.4258 42.8395 20.4367 42.4545 20.8716C42.1112 21.2589 41.3667 21.1708 41.0698 20.7568C40.7729 20.3428 40.7753 17.6941 41.158 17.3125H41.1568Z" fill="#ED1C25" fill-opacity="0.5"/>
<path d="M28.7994 52.734C28.4411 53.0912 27.809 53.0587 27.4901 52.6597C27.0784 52.146 27.0807 49.7802 27.4553 49.2445C27.7812 48.7794 28.5744 48.8548 28.8875 49.2909C29.1833 49.7037 29.1821 52.3536 28.7994 52.7351V52.734Z" fill="#ED1C25" fill-opacity="0.5"/>
<path d="M41.157 52.7341C40.7743 52.3537 40.7731 49.7027 41.0689 49.2899C41.382 48.8538 42.1764 48.7773 42.5011 49.2435C42.8757 49.7792 42.878 52.145 42.4663 52.6587C42.1462 53.0577 41.5153 53.0913 41.157 52.733V52.7341Z" fill="#ED1C25" fill-opacity="0.5"/>
<path d="M42.4814 44.7311C42.0523 45.2379 41.0689 45.0117 40.917 44.3333C40.8324 43.9529 40.8324 41.9803 40.917 41.5999C41.1014 40.7754 42.2878 40.7174 42.6009 41.4897C42.8085 42 42.8305 44.3182 42.4814 44.7311Z" fill="#ED1C25" fill-opacity="0.5"/>
<path d="M42.4816 25.3155C42.8295 25.726 42.8202 27.658 42.7205 28.2112C42.514 29.357 41.105 29.3628 40.9195 28.3272C40.8383 27.8749 40.8209 26.1389 40.9171 25.7121C41.0691 25.0337 42.0513 24.8075 42.4816 25.3143V25.3155Z" fill="#ED1C25" fill-opacity="0.5"/>
<path d="M28.7996 57.0899C29.1441 57.432 29.1522 59.7189 29.0397 60.2222C28.817 61.2126 27.3929 61.1894 27.219 59.8882C27.1622 59.4638 27.1877 57.948 27.3048 57.5584C27.5054 56.8893 28.301 56.5935 28.7996 57.0899Z" fill="#ED1C25" fill-opacity="0.5"/>
<path d="M41.6712 56.8462C42.9561 56.6444 42.8366 58.994 42.7485 59.7837C42.5803 61.2971 41.0159 61.2948 40.8872 59.9043C40.8153 59.1227 40.6553 57.0063 41.6712 56.8462Z" fill="#ED1C25" fill-opacity="0.5"/>
<path d="M37.1504 56.8482C37.7824 56.7647 38.0665 57.2541 38.1153 57.8061C38.1605 58.3175 38.1872 59.8924 38.0851 60.3377C37.9123 61.0938 36.697 61.0567 36.4314 60.4177C36.3201 60.151 36.3177 57.8386 36.3954 57.4883C36.4639 57.1799 36.8535 56.8876 37.1504 56.8482Z" fill="#ED1C25" fill-opacity="0.5"/>
<path d="M32.63 56.8474C33.1426 56.8045 33.5322 57.208 33.5879 57.6928C33.6355 58.0975 33.6529 60.0249 33.5624 60.338C33.3548 61.0512 31.969 61.2101 31.8449 60.1316C31.7881 59.6399 31.7742 57.9294 31.8716 57.4875C31.9481 57.1419 32.2833 56.8752 32.63 56.8462V56.8474Z" fill="#ED1C25" fill-opacity="0.5"/>
<path d="M37.0355 40.9582C37.388 40.8863 37.9053 41.0823 38.0502 41.4035C38.1488 41.6227 38.1871 44.1265 38.0839 44.45C37.8426 45.2085 36.4951 45.2328 36.3675 44.1299C36.313 43.6568 36.3003 42.0263 36.3954 41.6007C36.4591 41.3131 36.7444 41.0185 37.0355 40.9582Z" fill="#ED1C25" fill-opacity="0.5"/>
<path d="M32.5114 40.9572C32.8988 40.8772 33.3395 41.0569 33.4983 41.4304C33.6363 41.7551 33.6491 43.9376 33.561 44.3331C33.3858 45.1193 32.203 45.2411 31.9072 44.529C31.8064 44.2867 31.7866 41.914 31.8493 41.5776C31.8991 41.3098 32.2505 41.0106 32.5114 40.9572Z" fill="#ED1C25" fill-opacity="0.5"/>
<path d="M37.1539 17.071C37.5586 17.0131 37.8671 17.1557 38.0213 17.5419C38.1466 17.8573 38.1837 20.2242 38.0851 20.5605C37.8914 21.2274 36.755 21.3619 36.4581 20.6127C36.3177 20.2602 36.3038 18.124 36.3954 17.7112C36.4766 17.3436 36.7967 17.1232 37.155 17.071H37.1539Z" fill="#ED1C25" fill-opacity="0.5"/>
<path d="M32.1122 49.0899C32.6492 48.6574 33.4702 49.0041 33.5793 49.6999C33.6477 50.1325 33.65 51.93 33.5607 52.3359C33.3705 53.1976 32.0009 53.1952 31.8525 52.2385C31.7759 51.7479 31.7783 50.1928 31.8409 49.6895C31.8629 49.5132 31.9812 49.1966 32.1111 49.0911L32.1122 49.0899Z" fill="#ED1C25" fill-opacity="0.5"/>
<path d="M32.3934 25.0722C32.7715 24.9585 33.2609 25.1197 33.4569 25.4688C33.6413 25.797 33.6575 28.0155 33.5612 28.4457C33.3606 29.3456 32.0073 29.3317 31.853 28.3471C31.7846 27.9111 31.7927 25.7413 31.9562 25.4491C32.0073 25.3586 32.2902 25.1023 32.3923 25.071L32.3934 25.0722Z" fill="#ED1C25" fill-opacity="0.5"/>
<path d="M37.0332 25.0743C37.424 24.9873 37.8925 25.1427 38.0491 25.5173C38.1604 25.7841 38.1627 28.0965 38.085 28.4467C37.8809 29.3594 36.4974 29.364 36.3675 28.2426C36.313 27.7694 36.3003 26.1389 36.3954 25.7133C36.4615 25.4188 36.7375 25.1404 37.0343 25.0743H37.0332Z" fill="#ED1C25" fill-opacity="0.5"/>
<path d="M36.9148 48.964C37.3891 48.8213 38.0095 49.0718 38.1058 49.5798C38.1765 49.9497 38.1638 51.9711 38.0837 52.3352C37.8935 53.1968 36.524 53.1945 36.3755 52.2378C36.2943 51.7113 36.299 49.6807 36.5483 49.2933C36.626 49.1739 36.7779 49.0057 36.9148 48.964Z" fill="#ED1C25" fill-opacity="0.5"/>
<path d="M32.6283 17.0723C33.1792 17.0201 33.5282 17.3889 33.5885 17.9154C33.643 18.3874 33.6569 20.0225 33.5619 20.4447C33.374 21.282 32.1992 21.3423 31.907 20.6407C31.7956 20.3728 31.7933 18.0638 31.871 17.7113C31.9487 17.3587 32.2769 17.1059 32.6271 17.0735L32.6283 17.0723Z" fill="#ED1C25" fill-opacity="0.5"/>
<path d="M33.3211 33.2026C33.4533 33.3151 33.5681 33.6201 33.5913 33.801C33.6389 34.1837 33.6493 36.1517 33.5624 36.4486C33.3548 37.1606 31.9991 37.2731 31.8541 36.3489C31.7857 35.914 31.7799 33.997 31.8715 33.5981C32.0095 33.0043 32.8747 32.8222 33.3211 33.2026Z" fill="#ED1C25" fill-opacity="0.5"/>
<path d="M36.634 33.2023C37.0805 32.8231 37.9468 33.0052 38.0836 33.5978C38.1764 33.9967 38.1695 35.9148 38.101 36.3485C37.9561 37.2717 36.6004 37.1603 36.3928 36.4483C36.3058 36.1514 36.3163 34.1834 36.3638 33.8007C36.3859 33.6198 36.5018 33.3148 36.634 33.2023Z" fill="#ED1C25" fill-opacity="0.5"/>
</svg>
