<svg width="69" height="51" viewBox="0 0 69 51" fill="none" xmlns="http://www.w3.org/2000/svg">
<path d="M1.1252 49.6635L1 49.0137L1.02862 12.0664L1.25039 11.8113L19.0104 1.06348L19.3597 1.07302L25.0317 4.67628L30.854 1.27929L53.7064 15.0235L53.2987 15.2047L30.9613 1.98993L25.5683 5.06857L43.3307 16.2206C43.5381 16.3935 43.4928 16.62 43.2615 16.75L25.3298 5.5467V11.0911C26.2443 11.4202 27.1398 11.9436 27.3938 12.9607C27.7539 14.407 26.8047 13.6809 26.5389 13.911C26.5126 13.9337 26.4101 14.3426 26.267 14.5322C25.4586 15.6053 24.2507 15.281 23.4864 14.3641C23.3827 14.2389 23.3338 13.9432 23.2837 13.9134C23.0369 13.7608 22.647 14.1435 22.5779 13.4782C22.4527 12.262 23.7225 11.4011 24.7336 11.0923V5.54789C19.3013 8.67183 13.9739 12.0366 8.51774 15.0867V49.0685H15.7314C15.9556 48.8193 16.9572 46.6671 16.8642 46.5658C15.0756 46.2367 13.8666 44.3742 13.1464 42.8302C12.1294 40.6482 10.4935 34.4563 11.2029 32.26C11.7812 30.4703 14.0741 29.2028 15.9103 29.396C15.9806 28.3336 15.8149 27.1603 15.9055 26.1123C16.0915 23.9446 18.0291 23.4283 19.8987 23.3091C23.4244 23.0849 28.7888 23.0658 32.3026 23.315C33.9421 23.4307 35.9357 23.9732 36.1658 25.8905C36.2982 26.9934 36.0967 28.2728 36.179 29.3948C38.4695 29.2505 40.9042 30.8363 41.0723 33.264C41.1749 34.7413 40.5704 37.5814 40.1996 39.0766C39.5283 41.7773 38.2024 45.7764 35.2263 46.5646C35.1106 46.6957 36.1396 48.6822 36.2982 49.0089L43.4403 49.053L47.0305 40.9605L42.4996 40.8401V34.6399H48.6998C48.7785 33.8422 48.1525 32.3137 48.3659 31.6221C48.5126 31.1464 49.7228 31.1118 50.1306 31.0045C49.7407 30.5275 49.0396 30.0864 48.4077 30.1054C48.0571 30.1162 47.7638 30.3272 47.3822 30.295C46.804 30.2461 45.955 29.7418 46.8433 29.3865C47.7316 29.0311 49.6537 29.737 50.3679 30.3487C50.2534 29.5283 50.1461 28.1309 49.6024 27.4787C49.1565 26.9457 48.1227 26.8551 48.5233 25.6961C49.724 25.6127 50.7149 28.15 50.728 29.1551C51.0952 29.1897 51.1226 28.7283 51.3229 28.4993C51.509 28.2883 51.7617 28.181 51.8834 28.0463C52.0467 27.8638 52.0491 27.6099 52.3364 27.3654C52.6846 27.0685 53.1377 26.9565 53.5884 27.0101C53.6242 28.1858 52.5129 28.1512 51.9155 28.7342C51.5364 29.1027 51.1536 29.8741 51.1441 30.3475C52.0765 29.9182 53.4358 29.1504 54.3026 30.0506C53.4131 31.0855 52.2279 30.0899 51.2061 30.946L52.3961 31.2465C52.5618 31.3336 52.8408 31.3586 52.9135 31.5696C53.084 32.0585 52.495 33.9925 52.5153 34.6399H58.8943C58.9075 34.6399 59.0732 34.8057 59.0732 34.8188V40.6613C59.0732 40.6887 58.7012 40.9594 58.6559 40.9594H54.423L58.1169 49.0101L67.2467 49.0613C67.6819 49.1162 67.8167 49.2629 67.6581 49.6635H1.1252ZM1.60213 12.2834V49.0673H7.92157L8.04676 48.4175L7.96807 14.9638L8.23754 14.6264L24.494 4.95172L19.4527 1.823L18.9782 1.74908L1.60213 12.2834ZM26.8799 13.2957C26.366 11.357 23.8561 11.1507 23.186 13.1205L24.0731 13.3017C25.0126 13.3697 25.9641 13.167 26.8799 13.2946V13.2957ZM18.4142 32.911C18.4929 33.7266 18.357 34.6471 18.4142 35.4746C18.8244 35.2886 19.1594 34.9762 19.5612 34.7735C23.0107 33.0398 28.8806 33.0565 32.3623 34.7007C32.5423 34.7854 33.4831 35.4364 33.5558 35.3541C33.6285 33.6372 33.6178 30.9162 34.9938 29.6977C35.1321 29.5748 35.4409 29.5319 35.5256 29.3948C35.6627 29.1718 35.6114 26.0193 35.5017 25.5996C35.1679 24.3154 33.4545 23.9768 32.3098 23.9029C28.7244 23.6703 23.2361 23.6548 19.6602 23.9029C18.3343 23.9947 16.6519 24.4013 16.4993 25.9883C16.454 26.4557 16.4135 29.1265 16.4993 29.4377C16.5112 29.4806 17.0931 29.6977 17.2803 29.8717C17.8705 30.419 18.3379 32.1193 18.4142 32.911ZM14.8086 30.0196C12.5407 30.3296 11.4938 32.2016 11.619 34.3395C11.7943 37.343 13.5268 45.755 17.2767 46.09L35.0367 46.0745C38.6233 45.5869 40.3558 36.9209 40.4774 33.9877C40.5871 31.3407 38.3419 29.5892 35.77 29.9945C34.2652 30.2318 33.8599 34.8844 34.2188 35.9444C34.3118 36.2198 34.7005 36.4893 34.8495 36.7444C36.303 39.2269 35.5649 43.0197 32.4255 43.5813C28.356 43.2999 23.7905 43.9533 19.7806 43.5861C16.8522 43.3178 15.8268 39.6215 16.925 37.2619C17.2636 36.5334 17.8335 36.3331 17.9385 35.4138C18.0648 34.3096 17.7131 31.3574 17.037 30.4727C16.541 29.824 15.5669 29.9159 14.8097 30.0196H14.8086ZM51.9787 32.3745C51.1822 32.4675 50.0758 32.3745 49.2363 32.3745C49.2065 32.3745 49.0003 32.1324 48.9359 32.316L49.296 34.6399H51.9191L52.2756 32.2552C52.1421 32.2099 52.0288 32.3685 51.9787 32.3745ZM24.9471 34.0783C22.3895 34.2333 18.3474 35.0799 17.3351 37.7937C16.6376 39.6609 17.3685 42.7276 19.665 42.9863C23.7404 42.7121 28.2904 43.35 32.3086 42.9911C33.6381 42.8719 34.4978 41.825 34.809 40.6028C36.2302 35.0084 28.9402 33.8375 24.9471 34.0795V34.0783ZM58.477 35.2361H42.9765V40.3632H58.477V35.2361ZM44.0496 49.0673H57.4039L53.834 41.0428L53.5359 40.8997L47.6434 40.9761L44.0496 49.0673ZM18.6527 46.6838C18.3808 46.7387 17.6595 46.592 17.4794 46.7029C17.3709 46.7697 16.6376 48.7573 16.5065 49.0673C16.7342 49.1078 16.8296 49.0315 16.9905 48.8968C17.514 48.4616 18.1519 47.2323 18.6515 46.6838H18.6527ZM34.3916 49.0673L32.7796 46.8042L32.4314 46.6755L19.5493 46.685L19.2453 46.8579L17.6988 49.0673H34.3916ZM34.611 46.7017C34.4739 46.617 33.6595 46.6719 33.439 46.7398C33.8074 47.0475 34.8936 48.9087 35.1333 49.0387C35.2632 49.109 35.4385 49.0542 35.584 49.0649C35.4528 48.7561 34.7195 46.7685 34.611 46.7005V46.7017Z" fill="#ED1C25" fill-opacity="0.5" stroke="#ED1C25" stroke-opacity="0.5"/>
<path d="M53.7075 37.3823V38.0977H47.7458C47.7148 37.9272 47.7422 37.3823 47.9247 37.3823H53.7075Z" fill="#ED1C25" fill-opacity="0.5" stroke="#ED1C25" stroke-opacity="0.5"/>
</svg>
