<svg width="63" height="54" viewBox="0 0 63 54" fill="none" xmlns="http://www.w3.org/2000/svg">
<g clip-path="url(#clip0_761_587)">
<path d="M19.4829 3.65437H43.5142V0.77656C43.5142 0.492453 44.2511 0.077313 44.5539 0.10058C48.3278 0.344276 52.483 -0.214142 56.2091 0.0981312C56.6627 0.136094 57.4916 0.339378 57.4916 0.89902V3.65437H62.3346C62.6411 3.65437 62.8557 4.16993 62.8888 4.44791C63.0286 5.62108 63.0445 9.30468 62.8925 10.457C62.8545 10.7473 62.4597 11.2469 62.212 11.2469H60.1889V24.9624H62.3346C62.6117 24.9624 62.9771 25.576 62.8925 25.8748V52.9495C62.9121 53.5201 62.6485 53.765 62.1286 53.901C41.7805 54.092 21.3993 53.9402 1.03886 53.9769C0.487122 53.8275 0.179374 53.6695 0.109487 53.0682C-0.0339649 51.8461 -0.0364171 48.4062 0.109487 47.1853C0.142592 46.9073 0.357157 46.3917 0.663678 46.3917H16.0511V32.5537H1.03028C0.639156 32.5537 -0.0290606 32.0063 0.104583 31.5189V4.5667C0.0187568 4.26667 0.385357 3.65437 0.662452 3.65437H5.50549V0.89902C5.50549 0.339378 6.33433 0.136094 6.78798 0.0981312C10.5153 -0.214142 14.6705 0.344276 18.4432 0.10058C18.746 0.077313 19.4829 0.492453 19.4829 0.77656V3.65437ZM17.6437 1.93993H7.34462V3.65437H17.6437V1.93993ZM55.6524 1.93993H45.3533V3.65437H55.6524V1.93993ZM1.82723 30.7181H56.572C56.6872 30.7181 57.2108 31.4075 57.1262 31.6341C56.7768 36.5998 57.5811 42.1803 57.1286 47.0726C57.1029 47.3445 56.8466 48.1074 56.5708 48.1074H52.586V52.1486H61.1686V26.6769H6.42506C6.30981 26.6769 5.78627 25.9874 5.87087 25.7609C6.21172 20.8282 5.42702 15.3077 5.86719 10.4448C5.89907 10.0945 6.14306 9.41 6.54767 9.41H61.1698C60.9957 8.71932 61.1833 8.01395 61.176 7.26082C61.1698 6.66812 60.8608 6.07541 61.1698 5.4925C60.5776 5.60394 59.9302 5.38473 59.3908 5.37004C57.814 5.3284 56.1895 5.36636 54.6054 5.36392C38.101 5.3431 21.5832 5.39698 5.07023 5.4974C4.48662 5.50107 3.89196 5.34555 3.2311 5.36392C2.75661 5.37739 2.30909 5.55495 1.82723 5.4925V30.7181ZM16.0498 11.2469H7.71245V24.9624H16.0498V11.2469ZM26.5942 11.2469H17.889V24.6563C17.889 24.6759 17.6769 24.9624 17.9503 24.9624H26.5942V11.2469ZM37.1385 11.2469H28.4333V24.9624H37.1385V11.2469ZM47.8055 11.2469H38.9777V24.9624H47.8055V11.2469ZM58.3498 11.2469H49.522L49.6446 24.9624H58.3498V11.2469ZM55.2846 32.555H17.889V46.0868C17.889 46.1064 17.6769 46.3929 17.9503 46.3929H33.5829V35.5552C33.5829 35.2748 34.2854 34.7654 34.6189 34.8756L51.6701 34.8792C51.8969 34.7948 52.5872 35.3177 52.5872 35.4328V46.3929H55.2846V32.555ZM50.8707 36.7186H35.422V38.433H50.8707V36.7186ZM50.8707 40.1475H35.422V41.9844H50.8707V40.1475ZM50.8707 45.5357C50.7934 45.1206 51.0546 43.9388 50.6941 43.7429L35.422 43.6988V45.5357H50.8707ZM50.8707 47.3726H35.422V49.0871H50.8707V47.3726ZM33.5829 48.1074H1.82723V52.1486H33.5829V48.1074ZM50.8707 50.924H35.422V52.1486H50.8707V50.924Z" fill="#ED1C25" fill-opacity="0.5"/>
<path d="M21.1747 36.754C24.0695 36.6671 26.9545 36.9328 29.8492 36.7124C30.526 37.01 32.1886 36.5275 32.5123 37.2365C32.6791 37.6002 32.6668 41.4124 32.6092 42.0504C32.5515 42.6885 32.348 43.0105 31.6859 43.0877C27.8152 42.817 23.4761 43.4379 19.6617 43.0913C19.0364 43.0338 18.7004 42.8305 18.6232 42.1692C18.546 41.5079 18.5276 37.948 18.6808 37.4447C18.736 37.2635 19.018 36.9181 19.2031 36.8643C19.4729 36.7847 20.7652 36.7651 21.1759 36.7528L21.1747 36.754ZM30.7627 38.5554H20.4636V41.2495H30.7627V38.5554Z" fill="#ED1C25" fill-opacity="0.5"/>
</g>
<defs>
<clipPath id="clip0_761_587">
<rect width="63" height="54" fill="white"/>
</clipPath>
</defs>
</svg>
