<svg width="40" height="57" viewBox="0 0 40 57" fill="none" xmlns="http://www.w3.org/2000/svg">
<path d="M30.6239 34.0794L34.5626 43.1538C34.6527 43.234 34.744 43.2007 34.8476 43.1871C35.6497 43.0736 37.6647 41.6768 38.3927 42.0346C38.7987 42.2333 38.6371 42.7244 38.3051 42.9329C38.0139 43.1168 34.8526 44.331 34.6366 44.3149C34.38 44.2952 34.1529 43.9879 33.9481 44.1212C33.895 44.1557 33.2781 45.1083 33.2645 45.17C33.2423 45.2712 33.4817 45.8364 33.4656 46.2312C33.42 47.3455 32.3674 48.4474 31.2371 48.3894C31.6579 49.3235 31.1471 50.4661 30.2932 50.9609C29.9822 51.1411 29.3048 51.1929 29.2678 51.2311C29.2036 51.2978 29.3764 52.3503 28.8741 52.9982C28.4312 53.5682 27.4687 53.7558 27.4107 53.8187C27.3835 53.8483 27.523 54.1716 27.5069 54.3407C27.3428 56.0423 25.5894 56.7246 24.1198 56.0596C23.2918 55.6844 20.2699 53.261 19.801 53.2166C19.5135 53.1894 18.8903 54.2469 17.7415 53.6756C16.9666 53.2906 16.6939 52.3627 16.5557 52.2701C16.2658 52.0776 15.7191 52.1813 15.191 51.6606C14.8578 51.3323 14.6172 50.5377 14.5617 50.5007C14.4531 50.4279 13.8374 50.5068 13.3524 50.1675C12.7725 49.7615 12.6478 48.9434 12.5898 48.8953C12.5553 48.8657 11.984 48.8632 11.6903 48.746C11.1338 48.5251 10.4934 47.7588 10.4317 47.1554C10.3959 46.8075 10.5403 46.5595 10.5045 46.2399C10.4514 45.7697 9.91714 45.1244 10.0109 44.5629C9.45071 44.9122 8.92135 45.1034 8.29698 44.7357L1.26106 40.0529C0.653958 39.5951 1.21046 38.8979 1.86322 39.2015L8.61533 43.6794C8.7486 43.7695 8.89667 43.8522 9.06449 43.809C9.51487 43.693 13.5585 36.9347 14.2915 36.1117C14.2692 35.9192 14.1372 35.8156 14.0052 35.6971C13.0501 34.8333 11.3917 34.1534 10.3749 33.2823C10.0578 32.321 10.5181 32.2137 11.2843 32.6196C12.195 33.1009 13.8731 34.2398 14.6925 34.8864C14.8998 35.0505 15.1626 35.5095 15.2675 35.5342C15.3995 35.5663 17.1789 35.1961 17.5959 35.1801C18.3647 35.1505 19.1334 35.3541 19.8195 35.3084C21.8604 35.1751 24.7219 34.2238 26.98 33.9523C27.5551 33.8832 29.1999 33.9289 29.5503 33.8079C29.6182 33.7845 30.208 33.17 30.6597 32.9429C33.1029 31.7102 35.9508 30.828 38.4569 29.6816C39.006 29.826 39.1973 30.2554 38.7555 30.675L30.6226 34.0806L30.6239 34.0794ZM29.7453 34.8235C26.8542 35.0505 23.9347 35.3911 21.1176 36.1092C20.471 36.2733 19.0902 36.4239 19.168 37.3136C19.2062 37.7528 19.4937 38.202 19.9577 38.2662C21.0411 38.4142 22.8254 37.6393 24.1432 37.7763C24.6454 37.8281 28.1412 39.0164 26.795 39.6901C26.3964 39.8888 26.0225 39.6 25.6622 39.4655C25.5783 39.4347 25.2069 39.2496 25.3759 39.505L32.5932 44.4396C32.6944 43.9818 33.3743 43.2698 33.2842 42.8354L29.7453 34.8247V34.8235ZM18.4054 36.2968C18.2327 36.1746 15.36 36.4239 15.0738 36.8508L10.9351 43.0773C10.7402 43.7226 11.0918 44.6592 11.2498 45.3033C11.9198 44.6617 12.364 43.6548 13.4228 43.5807C14.5037 43.5042 14.9232 44.6 15.2761 44.6678C15.4328 44.6974 16.0029 44.3236 16.3731 44.3112C17.3788 44.2804 18.2882 45.2539 18.2919 46.23C18.2919 46.4891 18.0883 46.8322 18.2129 47.0296C18.3943 47.3183 19.147 47.459 19.4543 48.1414C19.7615 48.8237 19.4493 49.263 19.5283 49.5431C19.5739 49.7048 20.5438 50.2428 20.6944 50.7277C20.8449 51.2126 20.8079 51.9246 20.3809 52.2775C21.4495 52.7871 24.1432 55.197 25.1402 55.2982C25.7745 55.3624 26.526 54.8071 26.4285 54.1346C26.315 53.356 22.4675 51.3188 21.6778 50.608C21.046 50.0392 21.1349 49.5888 21.9851 49.5505L26.9862 52.8316C28.14 52.7871 28.6644 51.668 27.9006 50.8017L22.8488 47.4639C22.4305 46.9593 22.9759 46.2831 23.5546 46.6335L28.7372 50.0885C30.3561 50.3328 30.883 48.9916 29.6947 47.8983L24.8133 44.637C24.4665 44.1607 24.8527 43.5005 25.4327 43.7658L30.709 47.2542C31.6604 47.5713 32.6167 46.7421 32.3242 45.7636C32.2477 45.5081 31.3112 44.9171 31.0311 44.7123C28.3892 42.7762 25.5783 41.0524 22.9377 39.1102C21.7728 38.661 20.2588 39.9628 18.9064 38.9448C18.1944 38.4081 17.8489 37.0322 18.4054 36.3005V36.2968ZM13.3142 44.7061C13.0748 44.7517 11.5854 46.5237 11.5163 46.7495C11.314 47.4195 12.1444 48.0278 12.7972 47.654C12.9218 47.5824 14.2742 45.9462 14.3087 45.8339C14.5 45.2145 13.9213 44.5889 13.3129 44.7061H13.3142ZM15.8487 45.5871C15.4711 46.3053 13.5289 48.0389 13.6449 48.7645C13.7609 49.4901 14.521 49.6307 15.0651 49.1803C15.2465 49.031 17.0974 46.7322 17.1443 46.5718C17.4109 45.671 16.6211 45.1441 15.8487 45.5871ZM15.8499 50.8215C15.903 50.8856 16.4311 51.1929 16.5113 51.2015C16.9851 51.2521 18.5535 49.2667 18.5263 48.8299C18.4905 48.2611 17.6971 47.7848 17.1776 48.2117C17.0431 48.3215 15.7438 49.9688 15.7117 50.0824C15.6463 50.3131 15.6969 50.6352 15.8499 50.8215ZM18.7398 50.6315C18.5325 50.6932 17.6786 51.8234 17.6601 52.0381C17.6231 52.4774 18.4017 52.8772 18.7744 52.6465C18.8743 52.5848 19.7627 51.4224 19.7627 51.2867C19.7627 50.9288 19.131 50.5167 18.7386 50.6315H18.7398Z" fill="#ED1C25" fill-opacity="0.5" stroke="#ED1C25" stroke-opacity="0.5" stroke-width="0.5"/>
<path d="M35.6805 12.1104H27.845C27.481 12.1104 26.4704 11.586 26.1767 11.3108C25.9916 11.1368 25.3154 10.1077 25.3154 9.95099V1.99209H8.71894C8.14763 1.99209 7.17652 3.07672 7.17652 3.6579V30.928C7.17652 31.1673 6.198 31.5906 6.0635 30.4368L6.06104 4.26994C6.10299 2.68309 7.00993 1.15301 8.714 1L25.9361 1.06293C26.1681 1.14684 26.3581 1.28504 26.5518 1.43435C27.4193 2.10191 28.7125 3.50366 29.575 4.3341C31.9812 6.6465 34.3824 9.01443 36.6664 11.433V28.3379C36.6664 28.6624 35.6793 28.6624 35.6793 28.3379V12.1104H35.6805ZM26.3026 2.73245V9.33402C26.3026 9.49197 26.6555 10.3002 26.7937 10.447C26.885 10.5445 27.6673 10.9998 27.7216 10.9998H34.8167L26.3026 2.73245Z" fill="#ED1C25" fill-opacity="0.5" stroke="#ED1C25" stroke-opacity="0.5" stroke-width="0.5"/>
<path d="M11.0636 16.7993H30.9301C30.9683 16.7993 31.3582 17.1769 31.3447 17.3324C31.3336 17.4582 31.0029 17.9099 30.9301 17.9099H11.0636C10.7391 17.9099 10.5935 16.961 11.0636 16.7993Z" fill="#ED1C25" fill-opacity="0.5" stroke="#ED1C25" stroke-opacity="0.5" stroke-width="0.5"/>
<path d="M11.0882 20.7725L30.6893 20.7417C31.5728 20.8589 31.4865 21.756 30.6893 21.8646H11.5509C10.7834 21.9287 10.3923 21.2069 11.0882 20.7725Z" fill="#ED1C25" fill-opacity="0.5" stroke="#ED1C25" stroke-opacity="0.5" stroke-width="0.5"/>
<path d="M11.0882 24.8443L30.6893 24.8135C31.5728 24.9307 31.4865 25.8278 30.6893 25.9364H11.5509C10.7834 26.0005 10.3923 25.2787 11.0882 24.8443Z" fill="#ED1C25" fill-opacity="0.5" stroke="#ED1C25" stroke-opacity="0.5" stroke-width="0.5"/>
<path d="M11.0636 28.8916H21.4287C21.8199 28.8916 21.8199 30.0021 21.4287 30.0021H11.0636C10.7391 30.0021 10.5935 29.0532 11.0636 28.8916Z" fill="#ED1C25" fill-opacity="0.5" stroke="#ED1C25" stroke-opacity="0.5" stroke-width="0.5"/>
<path d="M32.7499 35.892C32.4489 35.5983 31.8677 34.1225 32.6734 34.1065C33.1164 34.0979 33.7099 35.1763 33.7025 35.4971C33.6939 35.8908 33.0868 36.2227 32.7499 35.892Z" fill="#ED1C25" fill-opacity="0.5" stroke="#ED1C25" stroke-opacity="0.5" stroke-width="0.5"/>
<path d="M9.36566 40.3984C9.76298 40.7908 8.92637 41.9458 8.58951 41.9779C7.2877 42.1012 8.53028 39.5729 9.36566 40.3984Z" fill="#ED1C25" fill-opacity="0.5" stroke="#ED1C25" stroke-opacity="0.5" stroke-width="0.5"/>
</svg>
