<svg width="50" height="60" viewBox="0 0 50 60" fill="none" xmlns="http://www.w3.org/2000/svg">
<path d="M15.8019 36.7989C17.9955 37.3196 17.6931 34.6091 18.9297 32.8442C22.1379 28.2577 29.209 28.4836 32.2028 33.2232C32.7886 34.1496 33.3054 36.6419 33.4509 36.7606C33.5734 36.8602 35.6216 36.8104 36.5787 37.2698C37.5358 37.7292 48.4047 50.9603 49.2738 52.5184C50.8128 55.2787 49.894 58.4793 46.6283 59.0114C32.8116 58.0543 17.3409 60.2557 3.72318 59.0191C0.304392 58.709 -0.534033 56.01 0.392446 52.974C4.38549 48.4029 7.78896 43.269 11.7705 38.7016C12.2989 38.0967 13.4971 37.4995 13.6924 37.1779C14.1097 36.4926 14.0561 31.0907 13.5086 30.4744C13.367 30.3136 11.2154 29.2607 10.9589 29.2378C10.3234 29.1765 9.25908 29.8197 8.34026 29.9077C2.26072 30.505 -1.79359 24.8963 0.79443 19.2992C1.11219 18.6139 1.92764 18.2234 2.03484 17.4424C2.28369 15.5933 1.01648 14.2035 2.12289 11.4356C3.22931 8.66764 5.68333 8.40731 6.80123 6.92571C7.56692 5.91117 7.64348 4.41426 8.71544 3.09728C11.3456 -0.145396 16.9619 -0.0879694 19.6418 3.01306C20.4917 3.99696 20.8592 5.95712 21.265 6.44715C22.4135 7.83687 25.0399 7.33152 26.33 11.1408C26.6937 12.2166 26.5291 14.1614 26.7167 14.5711C26.9541 15.0803 27.8576 15.5435 28.2251 16.1407C31.5367 21.5541 29.1095 26.4392 23.1754 27.8863C22.36 28.0854 21.4296 27.8404 20.6678 28.0586C19.7413 28.3266 17.6127 31.0639 15.8057 30.6619V36.7874L15.8019 36.7989ZM13.8876 28.7592V20.5281C13.8876 20.1759 9.18251 16.8643 8.71544 15.7502C8.63122 15.5512 8.86475 14.6323 8.91069 14.5979C9.71466 13.9777 13.0607 17.362 13.6962 18.0396L14.4657 16.1331C14.8677 15.9378 15.8019 16.3972 15.8019 16.7035V23.4032C16.246 22.9056 18.4396 20.375 18.8646 22.071C19.2015 23.4186 16.2192 24.8236 15.8823 25.9721C15.7444 26.443 15.396 28.9392 16.334 28.7286C18.1142 28.3304 19.4235 26.4124 20.2811 26.1635C21.2229 25.8879 22.4748 26.198 23.5621 25.9989C27.0727 25.3634 28.918 21.3053 27.3675 18.1583C26.8545 17.1131 25.4801 16.4393 25.1585 15.3904C24.6685 13.8054 25.2121 12.4233 24.167 10.6393C23.0299 8.70592 21.043 8.70592 19.9978 7.53443C18.432 5.76952 18.6196 2.73358 14.7988 2.36988C8.9796 1.81093 10.1358 6.10642 8.16032 8.30011C6.89311 9.70897 4.41995 9.67452 3.73466 12.2932C3.14508 14.5481 4.1979 16.2709 3.94523 17.8367C3.82654 18.5603 2.84264 19.3489 2.44831 20.195C0.220167 24.9346 3.73466 28.541 8.70396 27.982C9.41605 27.9017 10.0056 27.2661 10.6373 27.2623C11.38 27.2585 13.7881 28.9124 13.8953 28.7707L13.8876 28.7592ZM25.7481 47.5185C26.6325 44.628 31.0007 42.2544 31.4716 39.2644C33.1063 28.8664 18.5775 29.1497 19.236 38.1312C19.5001 41.7452 23.7076 44.7276 25.7481 47.5185ZM23.4587 48.2842C22.6126 45.6885 19.8906 44.2605 18.5507 41.8984C17.4443 39.9497 17.8041 37.4115 14.2781 38.9122C12.5592 39.6434 8.22158 46.5844 6.61364 48.2842H23.4587ZM27.2871 48.2842H43.3665L36.3643 39.2108C32.7962 37.7484 33.8223 38.9888 32.8345 41.0102C31.4716 43.8049 28.5773 45.4205 27.2833 48.2842H27.2871ZM31.4984 49.8156H5.27369C4.97124 49.8156 1.79365 54.0919 1.69794 54.6853C1.518 55.8032 2.55933 56.9173 3.53175 57.3001C9.89843 57.1164 17.4328 58.1271 23.6731 57.4916C24.2129 57.438 24.768 57.549 25.2083 57.1125L31.4984 49.8117V49.8156ZM27.2871 57.4724H46.2378C47.0227 57.4724 48.4277 55.7075 48.2784 54.693C48.1789 54.0115 45.3764 50.2367 44.9017 50.0032C44.1973 49.6586 36.751 49.6663 35.4953 49.7926C34.8253 49.8577 34.6071 49.8079 33.9677 50.1793C31.9004 51.3699 29.2435 55.7802 27.2871 57.4724Z" fill="#ED1C25" fill-opacity="0.5"/>
<path d="M24.9021 32.6639C31.4678 31.7643 32.3637 42.0857 25.9013 42.5298C19.7299 42.9547 18.6464 33.5215 24.9021 32.6639ZM23.1908 39.7542C25.3117 42.2618 30.1738 39.379 28.0797 35.8186C26.0238 32.3309 20.308 36.3392 23.1908 39.7542Z" fill="#ED1C25" fill-opacity="0.5"/>
</svg>
