<svg width="59" height="56" viewBox="0 0 59 56" fill="none" xmlns="http://www.w3.org/2000/svg">
<path d="M25.6032 39.9235C25.4015 39.2779 22.7551 39.3989 21.7194 39.0997C17.7247 37.9396 15.1893 33.3261 15.5188 29.3347C22.8459 28.02 27.6107 31.3758 27.9705 38.8979C28.0814 41.2046 27.5871 43.3331 27.6073 45.6533C27.6208 47.3111 28.5085 53.9085 27.8124 54.9038C27.4728 55.3913 24.85 55.2905 24.0968 55.2131C18.7402 54.6718 14.5538 48.831 9.14675 47.9701C5.58578 47.4019 3.72627 48.4745 0.511648 49.1235C0.0509751 49.2177 -0.0936158 49.1639 0.0577003 48.6662C0.898345 45.8921 5.41093 41.6384 8.12789 40.5926C9.00889 40.253 12.3782 39.6847 12.4757 39.2207C10.2093 34.2475 10.1622 29.7584 11.5813 24.5431C14.2343 14.7781 21.6152 6.12621 29.4702 0.0634766C37.2815 6.10603 44.7195 14.8252 47.3658 24.5498C48.7916 29.7853 48.6302 34.2004 46.4714 39.2274C46.5689 39.6108 49.9046 40.2429 50.8192 40.6027C52.9141 41.4299 54.7635 42.933 56.196 44.6412C56.771 45.3272 58.6809 47.987 58.8927 48.6729C59.1315 49.4497 58.5262 49.0966 58.19 49.0394C54.3465 48.4005 52.7628 47.1329 48.4654 48.3232C43.7511 49.6313 39.8336 54.7155 34.8503 55.2199C34.0971 55.2972 31.4743 55.3947 31.1347 54.9105C30.4352 53.9085 31.3297 47.3178 31.3398 45.6567C31.3532 43.3802 30.8455 41.2652 30.9733 38.9013C31.3801 31.396 36.0676 27.9762 43.4081 29.3482C43.7746 33.3261 41.1989 37.9429 37.2243 39.0963C36.3097 39.3619 33.3405 39.3418 33.3405 39.9201V46.4772C37.0158 46.1342 40.5062 43.3903 42.6986 40.5355C51.828 28.6387 39.2116 10.6018 29.4735 3.0898C20.3374 10.1008 9.214 25.7368 14.4462 37.6336C16.2317 41.6956 21.0705 46.0232 25.6066 46.4805C25.2871 44.8093 26.0403 41.3257 25.6066 39.9235H25.6032ZM25.2636 37.4016C25.2636 33.2387 21.78 31.0967 17.8693 31.3523C18.9117 35.1923 21.3058 37.1023 25.2636 37.4016ZM41.0711 31.3523C37.2848 30.9858 33.5355 33.3194 33.6768 37.4016C37.6009 37.1763 40.0589 35.1251 41.0711 31.3523ZM25.5662 49.2042C25.4653 49.0865 23.1956 48.5956 22.5803 48.3232C19.9003 47.1396 18.0408 45.8853 15.8854 43.9216C15.3608 43.4441 14.9539 42.4353 14.3554 42.089C12.3748 40.9356 6.69543 43.5853 5.09148 45.3036C9.11985 45.3036 12.1663 46.272 15.6164 48.2257C18.7805 50.0179 21.6286 53.2494 25.6032 52.8694C25.4687 52.1902 25.805 49.4766 25.5662 49.2008V49.2042ZM53.8489 45.4684C52.5879 43.6291 46.9421 41.2584 45.012 41.8334C44.3664 42.0251 41.0812 45.7239 39.6991 46.6184C38.7442 47.2371 37.4126 47.8558 36.3567 48.3198C35.7414 48.5922 33.4716 49.0832 33.3708 49.2008C33.132 49.4766 33.4683 52.1868 33.3338 52.8694C38.5525 53.0073 41.979 48.3367 46.6967 46.5579C49.0269 45.6802 51.3505 45.2935 53.8455 45.465L53.8489 45.4684Z" fill="#ED1C25" fill-opacity="0.5"/>
<path d="M29.1811 17.9527C30.5934 17.6871 32.7353 21.8096 33.1018 23.01C34.4805 27.5529 33.0413 31.7124 29.4703 34.7051C24.8904 31.0197 24.0599 25.273 27.1467 20.283C27.4359 19.8156 28.7675 18.03 29.1844 17.9527H29.1811ZM29.4703 21.6045C27.3451 24.2071 27.3485 28.407 29.4703 31.0062C31.5954 28.4036 31.592 24.2037 29.4703 21.6045Z" fill="#ED1C25" fill-opacity="0.5"/>
</svg>
