<svg width="106" height="55" viewBox="0 0 106 55" fill="none" xmlns="http://www.w3.org/2000/svg">
<path d="M0.439733 22.096C0.301617 22.096 -0.0104909 22.4304 0.000271404 21.7472L22.4182 0.0647292H22.9492L29.681 6.63114L29.9393 5.64582L29.9483 3.75609H35.8675C36.2962 5.58828 35.116 11.3708 35.8586 12.6653C35.9429 12.8128 37.6451 14.5065 37.7761 14.5299L52.8541 0L60.0828 6.63294V4.02579C60.0828 4.00601 60.3321 3.75609 60.3518 3.75609H65.9124C66.3231 3.75609 65.9985 4.66409 65.9931 4.91762C65.9393 7.37373 66.0469 9.83703 66.0057 12.2931C66.1222 12.9063 67.6433 13.9599 68.0648 14.5407L82.9886 0L83.498 0.149237L90.1276 6.63114L90.3967 3.75429H96.0469C96.6353 3.75429 96.142 5.96227 96.1294 6.35424C96.0666 8.41299 96.1133 10.5059 96.2299 12.5611C99.3151 15.5764 102.345 18.6672 105.459 21.6537C105.606 21.7939 105.792 21.918 106.002 21.918C105.866 22.4215 105.654 22.0942 105.554 22.0942H102.325C102.266 22.0942 102.052 22.3316 101.877 22.274V46.1878H103.85V54.9982H2.32314V46.1878C2.32314 46.1069 3.93749 46.2688 3.93749 46.1878V22.9051C3.93749 22.7379 3.86215 22.096 3.66843 22.096C2.5922 22.096 1.51597 22.0906 0.439733 22.096ZM5.37247 20.4778V45.9199C5.37247 45.9397 5.6218 46.1896 5.64153 46.1896H100.26V20.7475C100.26 20.1559 102.147 21.055 101.873 20.3897L94.5563 13.158C94.4308 10.5562 94.5456 7.96528 94.6998 5.37252H91.8299V10.407L83.1267 2.17382L68.0344 16.6857C67.6953 16.7505 64.9258 13.6111 64.3841 13.1958V5.37432H61.6935V10.1391C61.6935 10.1607 61.4335 10.4987 61.3348 10.3207L52.7285 2.14146L37.7743 16.6875L34.1079 13.1598L34.2496 5.37612H31.6487C31.629 5.37612 31.3796 5.62604 31.3796 5.64582V10.4106L22.707 2.15224C22.2891 2.22776 21.22 3.64461 20.8971 3.94488C15.1662 9.28683 9.66126 14.8571 4.02538 20.2962L3.94108 20.6576L5.37426 20.4778H5.37247ZM102.233 47.8079H3.93749V53.3818H102.233V47.8079Z" fill="#ED1C25" fill-opacity="0.5"/>
<path d="M26.5387 25.6924V39.1776H18.8257V25.6924H26.5387ZM24.9243 27.3106H20.44V37.5594H24.9243V27.3106Z" fill="#ED1C25" fill-opacity="0.5"/>
<path d="M86.9869 25.6924V39.1776H79.2739V25.6924H86.9869ZM85.3726 27.3106H80.8883V37.5594H85.3726V27.3106Z" fill="#ED1C25" fill-opacity="0.5"/>
<path d="M56.8527 25.8722V39.1776H49.1396V25.9621C49.1396 25.9423 49.389 25.6924 49.4087 25.6924H56.4042C56.4634 25.6924 56.6769 25.9297 56.8527 25.8722ZM55.2383 27.3106H50.754V37.5594H55.2383V27.3106Z" fill="#ED1C25" fill-opacity="0.5"/>
</svg>
