<svg width="177" height="134" viewBox="0 0 177 134" fill="none" xmlns="http://www.w3.org/2000/svg">
<path d="M0.294289 134C0.989649 112.075 -0.632854 89.5701 0.294294 67.7086C0.950431 52.2155 3.63203 32.3288 12.8215 19.3859C24.1149 3.4808 43.5137 0.525677 61.8855 1.36402e-05L61.8855 35.4508C56.5401 35.9978 50.6955 36.1932 46.2523 39.5568C37.7582 45.9856 37.1164 62.9349 36.9666 72.6705L80.3999 72.6705L80.3999 134L0.294289 134Z" fill="#ED1C24"/>
<path d="M176.636 134L96.4178 134C97.3677 103.215 93.8788 71.7418 99.7388 41.4084C102.196 30.4791 106.499 19.9086 115.148 12.4176C126.843 2.28746 143.13 0.483075 158.099 1.36382e-05L158.099 35.4518C154.289 35.8638 149.84 36.0094 146.237 37.3059C133.385 41.9234 132.917 61.3524 132.428 72.6795L176.636 72.6795L176.636 134Z" fill="#ED1C24"/>
</svg>
