<svg width="34" height="39" viewBox="0 0 34 39" fill="none" xmlns="http://www.w3.org/2000/svg">
<path d="M15.0216 38.5183C14.7692 38.3352 14.5062 38.1567 14.2674 37.9555C10.9328 35.1543 7.24557 31.9275 4.0963 28.9319C3.44987 28.3171 2.82605 27.7859 2.7379 26.8283C2.67386 26.1329 2.8479 25.5754 3.19296 24.9832H1.3471C1.23559 24.9832 0.785047 24.6984 0.671282 24.605C-0.581646 23.5811 0.019578 21.4829 1.64545 21.3706L26.3537 21.3804C27.8364 21.7149 28.2975 23.6361 27.1116 24.605C26.9978 24.6977 26.5473 24.9832 26.4358 24.9832H25.1173C25.3298 25.4519 26.8404 28.8874 27.0506 28.9567C27.2397 29.0185 27.5456 28.9402 27.755 28.9688C27.6872 28.2335 27.7407 27.2691 28.6388 27.1063C29.2023 27.0039 31.6404 27.0122 32.231 27.0958C32.7984 27.1764 33.1314 27.633 33.1826 28.177C33.4606 31.1273 32.9686 34.5079 33.1796 37.5042C33.1186 38.0346 32.8051 38.2968 32.3508 38.5191H15.0223L15.0216 38.5183ZM1.81723 22.5949C0.94854 22.8074 1.16552 23.7928 2.02291 23.783H25.7615C26.7778 23.7574 26.7665 22.5949 25.7615 22.5738L1.81798 22.5942L1.81723 22.5949ZM11.7065 24.9832H7.56276L13.288 30.2466C12.5647 28.5258 10.6698 26.9956 11.7065 24.9832ZM13.6451 25.0006C12.9399 25.1309 12.5232 25.977 12.7214 26.6392L15.7373 31.8257L15.946 31.889C16.4651 31.5003 17.2456 31.2659 17.7587 30.9111C17.8416 30.8538 17.9599 30.7996 17.9478 30.6738L15.0223 25.3946C14.6629 25.0013 14.1574 24.9056 13.6443 24.9998L13.6451 25.0006ZM20.1448 24.9832H16.3024L19.0915 30.172L20.1448 29.6454V24.9832ZM23.6858 24.9832H21.4256V30.3973L15.2205 33.6987L6.12525 25.4782C4.74349 24.5056 3.30522 26.2075 4.36829 27.4574L15.5113 37.3151H27.7543V30.2466H26.1721L23.6858 24.9832ZM31.9734 28.2915H28.9597V37.3151H31.9734V28.2915Z" fill="#ED1C25" fill-opacity="0.5"/>
<path d="M13.5692 6.05237C13.9662 5.97929 14.404 6.03504 14.7151 6.3025C15.3977 6.88866 15.7631 9.49999 16.2988 10.3619L20.4765 10.4026C21.4521 10.5804 21.7234 11.7452 21.1229 12.4632L17.8184 14.8093L19.0141 18.4792C19.1437 19.5535 18.1929 20.1751 17.2134 19.7502L13.8638 17.4734L10.5178 19.7766L10.23 19.8647C7.24803 19.8805 9.79231 16.2973 9.96258 14.8101L6.69653 12.5016C6.08928 11.8732 6.27085 10.7416 7.12296 10.4478L11.483 10.3626C11.6691 10.2376 12.5031 7.22017 12.7826 6.69654C12.9529 6.37785 13.194 6.12244 13.5692 6.05312V6.05237ZM12.3464 11.6736H7.78823L11.4724 14.2812L10.0492 18.5914L13.8653 15.9748L17.7333 18.5154L16.3093 14.2796L19.9935 11.6736H15.4354L13.854 7.46201L12.3464 11.6736Z" fill="#ED1C25" fill-opacity="0.5"/>
<path d="M4.82836 3.71979C4.93911 3.69492 5.07548 3.68286 5.18623 3.70396C5.58629 3.7793 7.76743 6.36954 8.31968 6.74474C8.62331 7.37911 8.07407 7.91932 7.44497 7.61795L4.46898 4.64799C4.27309 4.31347 4.43507 3.80944 4.8276 3.71979H4.82836Z" fill="#ED1C25" fill-opacity="0.5"/>
<path d="M22.684 3.71808C23.2551 3.54555 23.7019 4.05335 23.4954 4.6041L20.4878 7.617C19.876 7.90481 19.3547 7.42789 19.5815 6.78674L22.684 3.71808Z" fill="#ED1C25" fill-opacity="0.5"/>
<path d="M13.7184 0.0345869C14.1049 -0.0806855 14.5193 0.0963646 14.5735 0.503208C14.7182 1.58737 14.459 2.994 14.5683 4.11508C14.3701 4.73062 13.4442 4.67336 13.3606 4.04576C13.2159 2.9616 13.4751 1.55498 13.3658 0.4339C13.3907 0.304313 13.5949 0.0715042 13.7184 0.0345869Z" fill="#ED1C25" fill-opacity="0.5"/>
</svg>
