<svg width="20" height="41" viewBox="0 0 20 41" fill="none" xmlns="http://www.w3.org/2000/svg">
<path d="M11.72 0.000785925C15.4409 1.31514 17.2939 5.58405 15.572 9.19734L19.0016 12.1134L19.2238 12.5971L19.2073 39.5783C19.1312 39.8829 19.0071 40.1208 18.6561 40.1239L0.352535 40.087C0.190008 40.0234 0.064383 39.8978 0 39.7345V12.3772C0.059672 12.1833 0.701138 11.6604 0.904494 11.479C3.62271 9.05052 6.46656 6.74923 9.20754 4.34507C9.42346 4.28069 9.67079 4.27676 9.86708 4.39924L14.5019 8.30619C16.1931 4.19196 12.338 -0.0376811 8.05572 1.23349C6.84972 1.59152 5.73166 2.42928 5.07448 3.50259C4.76277 4.01216 4.71723 4.74 3.99959 4.70938C2.83363 4.6607 3.73421 3.1265 4.05534 2.6397C4.87897 1.38973 6.09832 0.529197 7.48805 0H11.7193L11.72 0.000785925ZM1.29786 12.8523V38.8685H17.911V12.9692L14.8944 10.3452C14.2773 11.0063 13.6602 11.6832 12.824 12.0757C13.7308 15.2274 10.1945 17.2986 7.68669 15.2792C6.28047 14.147 5.67826 12.0616 6.86385 10.5415C8.27242 8.73646 10.9938 9.12432 12.2312 10.8941C12.8719 10.5619 13.3877 10.0736 13.8345 9.52083L9.48628 5.80154L1.4918 12.7753L1.29707 12.8515L1.29786 12.8523ZM11.2497 11.3628C10.1592 10.0061 7.90654 11.0566 7.66393 12.5971C7.41739 14.1627 8.55823 14.9848 10.0304 14.5718C10.8454 14.3433 11.5034 13.4403 11.5622 12.6175C11.0071 12.8507 9.27899 13.2974 9.38499 12.2053C9.46351 11.3997 10.6884 11.6258 11.249 11.3628H11.2497Z" fill="#ED1C25" fill-opacity="0.5"/>
<path d="M10.8583 22.491C10.5246 21.0393 9.43399 19.9173 7.91 19.7579C7.19158 19.6825 6.15674 19.8725 5.50977 19.7273C4.8628 19.582 4.85652 18.4993 5.80028 18.4121C8.25704 18.186 11.0632 18.5849 13.5576 18.42C14.079 18.537 14.3271 19.0842 13.995 19.5326C13.9699 19.5663 13.7359 19.7477 13.7186 19.7477H10.8583C11.4927 20.5313 12.0541 21.4546 12.1129 22.4895C12.7419 22.5672 14.1489 22.1636 14.1544 23.1561C14.1599 24.0833 12.694 23.7795 12.1129 23.8227C11.941 25.6741 10.5112 27.3724 8.66454 27.7406L12.1546 35.1038C12.3775 35.8536 11.5626 36.2831 11.0263 35.7618L7.29443 27.9746C7.06752 27.772 5.9424 27.9895 5.52626 27.8623C4.91305 27.6746 4.9421 26.7081 5.5082 26.5817C6.07429 26.4553 7.04554 26.6131 7.68466 26.5636C9.34213 26.4365 10.4649 25.4197 10.8591 23.8219H5.56944C5.38257 23.8219 5.05438 23.3775 5.05517 23.1561C5.05595 22.9621 5.31034 22.4902 5.49092 22.4902H10.8591L10.8583 22.491Z" fill="#ED1C25" fill-opacity="0.5"/>
</svg>
