<svg width="37" height="37" viewBox="0 0 37 37" fill="none" xmlns="http://www.w3.org/2000/svg">
<g clip-path="url(#clip0_469_1101)">
<path d="M36.9995 24.9927C36.4241 25.4631 36.026 26.9485 35.0793 26.5337C34.5719 26.311 33.9581 25.5877 33.4594 25.2851V35.8167H35.2291C35.4043 35.8167 35.5874 36.197 35.5917 36.3641C35.604 36.8368 35.1908 36.9555 34.7992 36.9899C23.4616 36.9298 12.1044 37.0954 0.779064 36.9064C-0.156087 36.6521 -0.0106028 34.6978 0.194233 33.9884C0.227528 33.8741 0.346231 33.7964 0.371564 33.6565C0.49823 32.9779 0.347679 32.6518 0.842035 32.0121C1.06858 31.7182 1.71277 31.3826 1.78008 31.28C1.86259 31.1547 1.97189 30.7246 2.09566 30.5025C2.41558 29.9266 2.92948 29.3821 3.55267 29.1615V11.3892C3.01851 11.6376 2.10579 12.7544 1.52603 12.6738C1.13445 12.6195 0.865921 12.185 0.634304 11.8941C0.24707 11.4082 -0.323285 10.7692 0.226804 10.1808C1.08813 9.2597 2.71017 8.42725 3.65762 7.51127C3.73652 7.43506 3.86752 7.35005 3.89792 7.24306L3.91602 3.02879C3.35652 2.79357 3.17847 2.52903 3.11984 1.91788C3.05325 1.22247 3.06845 0.143802 3.94497 0.0492721C5.41212 -0.107545 7.15069 0.178976 8.64823 0.0507376C9.62464 0.13794 9.57325 2.13772 9.18746 2.65067C9.03909 2.84779 8.75535 2.91814 8.71482 2.97677C8.62869 3.10281 8.70324 3.40471 8.68225 3.56446L11.9285 1.03707C12.3736 0.794519 12.9353 0.771802 13.3725 1.04587L25.0807 10.1823C25.2841 10.4505 25.3738 10.7502 25.2414 11.0785C25.198 11.1869 24.4394 12.215 24.3222 12.3418C23.442 13.2974 22.5503 11.7724 21.7563 11.3899V12.5235C21.7563 12.7558 21.3271 12.9632 21.0868 12.9134C20.2406 12.7368 20.7871 10.9774 20.5331 10.3977L12.6168 4.24009C9.98871 6.3813 7.23899 8.37742 4.65068 10.5648L4.63548 28.7973C5.99116 28.6581 7.24478 29.3096 7.92877 30.4813C8.25521 30.2505 8.96453 30.534 9.20701 30.4688C9.2707 30.452 9.81934 29.9214 10.0039 29.8071C12.5756 28.2096 15.7675 30.4395 15.1827 33.4044C15.6235 33.3985 16.0462 33.3384 16.3784 33.6938C16.4255 33.7437 16.6274 34.0741 16.6274 34.0998V35.8182H20.6727V27.0782C20.6727 26.8151 21.2033 26.2846 21.5015 26.308C23.298 26.4722 25.46 26.0948 27.2123 26.308C27.6516 26.3615 27.9723 26.7257 28.0432 27.1486C27.8869 28.7372 28.248 30.7253 28.0367 32.2649C27.9737 32.7243 27.5112 32.9522 27.1363 32.6731C27.0769 32.6291 26.8851 32.3873 26.8851 32.3426V27.479H21.8287V35.8167H26.8851V34.6831C26.8851 34.4589 27.263 34.1965 27.4931 34.2082C27.6972 34.2185 28.041 34.483 28.041 34.6831V35.8167H32.3752V24.4438C29.687 22.3752 27.0675 20.2068 24.3337 18.2027L13.6917 26.5176C13.4181 26.6818 13.0366 26.6107 12.8043 26.4128C12.6993 26.3234 11.8134 25.1554 11.77 25.0469C11.5927 24.6021 11.7606 24.2394 12.1145 23.9712L20.5844 17.3717C20.722 16.6938 20.4071 15.1718 20.714 14.6135C20.9717 14.1437 21.7563 14.365 21.7563 14.7175V16.4359C22.7276 15.8138 23.67 14.3856 24.9642 14.9073C28.6867 17.8421 32.5243 20.6494 36.1968 23.6473C36.4827 23.881 36.7788 24.1038 36.9988 24.4079V24.9927H36.9995ZM8.24797 1.15065H4.27502V1.88198H8.24797V1.15065ZM1.60999 11.31L12.6248 2.90642L23.492 11.2837C23.6874 11.387 23.8712 10.9664 23.9841 10.8396L12.6241 2.02854C12.4446 2.04099 11.9777 2.44842 11.796 2.58399C8.29357 5.20591 4.95323 8.06306 1.45582 10.6938C1.19091 10.7297 1.55643 11.2697 1.61071 11.31H1.60999ZM7.52562 2.97896H5.06976V6.3432L7.52562 4.47825V2.97896ZM24.333 15.9383L13.0497 24.6981C12.9621 24.8337 13.3334 25.1671 13.4137 25.2836L24.3229 16.869L24.6269 16.932L35.3022 25.2843C35.3811 25.1693 35.7539 24.8344 35.6663 24.6988L24.333 15.9391V15.9383ZM9.83744 33.4036C10.0669 32.322 9.34019 31.439 8.21757 31.5812C7.91792 31.6193 7.74493 31.8135 7.37651 31.6889C7.15141 31.6127 6.87058 30.8821 6.62376 30.6227C5.57931 29.5228 3.64242 29.813 3.01054 31.2097C2.83611 31.5959 2.88605 32.0465 2.49447 32.2957C2.02111 32.5961 1.52675 32.6093 1.52965 33.4029H6.4059C6.62593 33.4029 6.83221 33.8543 6.79168 34.0807C6.75115 34.3072 6.40155 34.5732 6.18876 34.5732H1.24085V35.8167H15.4722V34.5732H8.86248C8.64968 34.5732 8.30081 34.3123 8.25955 34.0807C8.2183 33.8492 8.4253 33.4029 8.64534 33.4029H9.83744V33.4036ZM14.0275 33.4036C14.6522 31.1283 11.9538 29.4319 10.2761 31.11C10.816 31.7615 11.149 32.5448 10.9933 33.4036H14.0275Z" fill="#ED1C25" fill-opacity="0.5"/>
<path d="M9.8928 8.1904C11.6068 8.2688 13.5285 8.01819 15.2185 8.17281C15.9054 8.23583 16.2789 8.49963 16.3426 9.22876C16.5923 12.0925 16.1501 15.3248 16.3397 18.2274C16.2984 18.7103 15.9199 19.1265 15.44 19.1449C13.6645 18.9793 11.5315 19.3537 9.80016 19.1427C9.27251 19.0789 9.01483 18.659 8.96851 18.1563C8.70215 15.2853 9.17479 11.998 8.96996 9.08293C9.04306 8.59123 9.40931 8.24316 9.89353 8.18966L9.8928 8.1904ZM12.0772 9.34161H10.1266V11.5356H12.0772V9.34161ZM15.1838 9.34161H13.2331V11.5356H15.1838V9.34161ZM12.0772 12.7058H10.1266V14.6807H12.0772V12.7058ZM15.1838 12.7058H13.2331V14.6807H15.1838V12.7058ZM12.0772 15.8502H10.1266V17.9709H12.0772V15.8502ZM15.1838 15.8502H13.2331V17.9709H15.1838V15.8502Z" fill="#ED1C25" fill-opacity="0.5"/>
<path d="M22.4587 30.1271C22.7547 30.0377 23.1405 30.1952 23.2006 30.5155C23.2433 30.7434 23.236 31.9554 23.1868 32.1804C23.0681 32.7234 22.2155 32.7219 22.1228 32.1188C22.0808 31.8469 22.0845 30.5499 22.1872 30.3645C22.2191 30.3066 22.3935 30.1469 22.4587 30.1278V30.1271Z" fill="#ED1C25" fill-opacity="0.5"/>
</g>
<defs>
<clipPath id="clip0_469_1101">
<rect width="37" height="37" fill="white"/>
</clipPath>
</defs>
</svg>
