<svg width="34" height="41" viewBox="0 0 34 41" fill="none" xmlns="http://www.w3.org/2000/svg">
<path d="M33.0761 40.0246H25.8077C25.5626 39.7223 25.3739 39.5359 25.5838 39.1358C25.6119 39.081 25.8273 38.8523 25.8469 38.8523H30.0284V17.907H17.5237V38.8523H23.659C23.6786 38.8523 23.8939 39.081 23.9221 39.1358C24.132 39.5367 23.9425 39.7223 23.6981 40.0246H0.719951C0.422387 39.792 0.132654 39.5344 0.0927176 39.128V26.3069C0.0739241 25.7611 0.771633 25.4306 1.16708 25.8221C1.18587 25.8409 1.34483 26.1338 1.34483 26.1526V38.8523H2.51708V17.712C2.51708 17.2672 3.39411 16.5593 3.88196 16.6541H29.835C30.3479 16.5288 31.2774 17.2382 31.2774 17.712V38.8523H32.4496V15.7582C32.4496 15.7363 32.2617 15.5687 32.2139 15.5249L1.63457 15.5006C1.47091 15.5797 1.34014 15.7191 1.34014 15.9101L1.32761 23.7126C1.08016 24.4252 0.0778394 24.2623 0.0903684 23.4988C0.322938 21.0588 -0.211111 18.0597 0.100548 15.6862C0.218008 14.7943 0.978361 14.2477 1.84913 14.2305H31.9454C32.9242 14.2704 33.6133 14.8397 33.7041 15.8326V39.0512C33.7041 39.4921 33.3925 39.7787 33.0753 40.0246H33.0761ZM16.2731 17.9077H3.76841V38.8531H16.2731V17.9077Z" fill="#ED1C25" fill-opacity="0.5"/>
<path d="M10.6464 1.65139H23.1511V0.518292C23.1511 0.128327 23.7377 -0.108939 24.0877 0.0508058C24.1284 0.0695993 24.4017 0.339754 24.4017 0.361679V1.65139H27.0978C27.6475 1.65139 28.4219 2.4642 28.4587 3.02566C28.2919 5.69277 28.7038 8.67702 28.4689 11.3065C28.389 12.1953 27.6757 12.8304 26.7885 12.8304H6.93078C6.13127 12.8108 5.42104 12.1781 5.33098 11.3817C5.04203 8.81406 5.54789 5.72018 5.33098 3.09692C5.33098 2.50728 6.12892 1.65139 6.69899 1.65139H9.39508V0.361679C9.39508 0.339754 9.66837 0.0695993 9.70909 0.0508058C10.0591 -0.109722 10.6456 0.127544 10.6456 0.518292V1.65139H10.6464ZM6.87283 2.91916L6.6199 3.05698V11.4209C6.73893 11.5485 6.9159 11.5806 7.08583 11.5798H26.7094C26.8699 11.5822 27.144 11.5368 27.2011 11.3676L27.1761 3.0562C27.0571 2.92856 26.8801 2.89645 26.7102 2.89724L6.87283 2.91838V2.91916Z" fill="#ED1C25" fill-opacity="0.5"/>
<path d="M1.71833 3.54084C2.01903 3.50325 3.04484 4.16728 3.22103 4.42491C3.57419 4.94017 3.06833 5.54234 2.51471 5.3685C2.40195 5.33327 1.36987 4.63085 1.30801 4.54159C1.03081 4.14457 1.22344 3.60348 1.71833 3.54084Z" fill="#ED1C25" fill-opacity="0.5"/>
<path d="M31.8841 3.54097C32.4353 3.44857 32.7948 4.01707 32.5199 4.4963C32.4541 4.61063 31.4181 5.32635 31.2811 5.36942C30.7525 5.53543 30.2443 4.97475 30.5427 4.4728C30.6601 4.27469 31.6679 3.57777 31.8841 3.54097Z" fill="#ED1C25" fill-opacity="0.5"/>
<path d="M2.5753 9.08972C3.08585 8.98244 3.53533 9.53293 3.25343 10.0067C3.1391 10.1993 2.18768 10.8602 1.97155 10.9182C1.40853 11.0693 0.980197 10.4984 1.27619 9.98319C1.34902 9.85633 2.43278 9.11948 2.5753 9.08972Z" fill="#ED1C25" fill-opacity="0.5"/>
<path d="M30.9452 9.08973C31.2756 9.02082 32.4808 9.8031 32.5724 10.0881C32.7384 10.605 32.3453 11.0583 31.8253 10.919C31.6445 10.8704 30.7322 10.251 30.6108 10.0967C30.3133 9.71696 30.4847 9.18604 30.9452 9.08973Z" fill="#ED1C25" fill-opacity="0.5"/>
<path d="M0.775792 6.67027C0.98487 6.62407 2.1994 6.61546 2.3842 6.67027C2.87831 6.81514 2.85404 7.72349 2.31999 7.82451C2.09055 7.86758 0.92614 7.85661 0.716279 7.79161C0.20259 7.63265 0.237045 6.79087 0.775792 6.67106V6.67027Z" fill="#ED1C25" fill-opacity="0.5"/>
<path d="M31.4121 6.66929C31.615 6.60977 32.9579 6.62779 33.1364 6.71079C33.5906 6.923 33.5499 7.72877 32.9548 7.82117C32.7269 7.85641 31.6009 7.86502 31.4121 7.80942C30.9407 7.6716 30.9407 6.8071 31.4121 6.66929Z" fill="#ED1C25" fill-opacity="0.5"/>
<path d="M23.2097 20.5853C27.7491 19.9683 27.8752 26.5351 23.8111 26.5852C20.0978 26.6314 19.7643 21.0536 23.2097 20.5853ZM23.75 21.7678C22.2168 21.7928 21.4048 23.7231 22.5339 24.8162C23.9458 26.1819 26.2433 24.5406 25.3702 22.7615C25.0875 22.1851 24.3875 21.7576 23.7493 21.7685L23.75 21.7678Z" fill="#ED1C25" fill-opacity="0.5"/>
<path d="M19.3754 29.491C19.7904 29.3673 20.1851 29.5529 20.254 29.9867C20.3229 30.4205 20.3221 32.1988 20.254 32.635C20.1475 33.3194 19.1264 33.3546 19.0152 32.5543C18.9494 32.0821 18.94 30.4455 19.0128 29.9867C19.0402 29.8144 19.2054 29.5419 19.3761 29.491H19.3754Z" fill="#ED1C25" fill-opacity="0.5"/>
<path d="M9.37558 20.5834C13.8986 19.8794 14.1507 26.5378 10.0561 26.5848C6.30676 26.6278 5.9904 21.1096 9.37558 20.5834ZM9.92451 21.7572C7.30751 21.8684 7.96998 26.0037 10.5071 25.2316C12.4828 24.6303 11.9667 21.6703 9.92451 21.7572Z" fill="#ED1C25" fill-opacity="0.5"/>
<path d="M13.9049 29.4909C14.3747 29.3508 14.7334 29.588 14.7897 30.0587C14.8485 30.5536 14.8532 32.1502 14.7694 32.6209C14.6417 33.3374 13.6261 33.3413 13.5361 32.5629C13.4781 32.0633 13.4672 30.4627 13.5423 29.9866C13.5697 29.8144 13.735 29.5418 13.9057 29.4909H13.9049Z" fill="#ED1C25" fill-opacity="0.5"/>
<path d="M18.6963 9.58387C18.5749 10.4131 17.5373 10.4734 17.4442 9.66375C17.2695 8.14539 17.5742 6.29736 17.4504 4.74298C17.5522 4.05545 18.8302 4.18387 19.3595 4.23164C21.5372 4.42897 21.9225 7.16656 19.8693 7.86427C20.2436 8.35995 21.7596 9.47033 21.0032 10.0929C20.181 10.7694 19.3384 8.77967 18.6971 8.45078C18.661 8.80551 18.7472 9.24168 18.6971 9.58387H18.6963ZM18.6963 6.73118C20.3775 6.97628 20.4229 5.21751 18.6963 5.48062V6.73118Z" fill="#ED1C25" fill-opacity="0.5"/>
<path d="M13.7719 5.48135V6.6536H15.2957C15.4077 6.6536 15.652 7.07802 15.652 7.24012C15.652 7.40221 15.4077 7.82663 15.2957 7.82663H13.7719V8.99887H15.374C15.7413 8.99887 16.0067 9.78428 15.5337 10.0959C15.2143 10.3066 13.6215 10.2995 13.2049 10.2306C12.7883 10.1617 12.6348 10.0114 12.5965 9.58852C12.4908 8.42019 12.4892 6.05926 12.5965 4.89171C12.62 4.63643 12.62 4.51036 12.8565 4.37019C13.2041 4.16424 15.0592 4.16268 15.4319 4.33025C16.0474 4.60667 15.76 5.48135 15.3748 5.48135H13.7726H13.7719Z" fill="#ED1C25" fill-opacity="0.5"/>
</svg>
