<svg width="233" height="160" viewBox="0 0 233 160" fill="none" xmlns="http://www.w3.org/2000/svg">
<path d="M24.1583 74.551V157.951H14.8638V94.2013H0.200684V88.6H4.72926C13.4395 88.6 17.3654 83.2358 17.3654 74.5327H24.1583V74.551Z" fill="#B08855"/>
<path d="M74.2467 73.4927C91.6489 73.4927 98.2226 88.7459 98.2226 110.312C98.2226 140.928 91.7767 159.046 72.4572 159.046C62.3227 159.046 55.7672 154.393 52.4256 143.92L60.8984 142.607C62.6879 149.522 65.5548 154.156 72.8224 154.156C83.6691 154.156 88.0881 136.877 88.6907 118.65C84.2717 122.591 79.6335 125.912 71.8729 125.912C59.3462 125.912 50.6543 116.023 50.6543 99.6932C50.6543 83.3635 59.7114 73.4745 74.265 73.4745L74.2467 73.4927ZM74.0093 120.785C79.6153 120.785 84.856 117.337 88.435 112.556C88.435 90.8624 83.9065 78.3643 74.0093 78.3643C65.0617 78.3643 60.6427 87.6512 60.6427 98.7445C60.6427 111.133 64.587 120.785 74.0093 120.785Z" fill="#B08855"/>
<path d="M139.583 159.027C128.608 159.027 120.501 152.112 118.108 141.165L126.453 140.089C127.64 147.004 131.822 153.919 139.93 153.919C149.589 153.919 153.643 143.428 153.643 133.666C153.643 122.701 148.64 112.702 137.903 112.702C133.137 112.702 128.955 114.727 126.581 119.015L122.162 118.541V74.5692H160.436V83.9839H128.718V110.914C132.534 108.415 136.223 107.229 141.116 107.229C154.72 107.229 163.65 117.118 163.65 132.48C163.65 148.919 153.88 159.046 139.564 159.046L139.583 159.027Z" fill="#B08855"/>
<path d="M209.1 159.027C191.807 159.027 184.777 143.774 184.777 122.208C184.777 92.4133 191.223 73.4745 210.542 73.4745C220.549 73.4745 226.173 78.1271 230.099 88.6L221.517 89.9136C219.599 83.1263 217.098 78.3643 209.83 78.3643C199.458 78.3643 195.039 96.1171 194.327 113.396C198.746 109.345 204.096 106.608 211.145 106.608C224.493 106.608 232.382 116.972 232.382 132.353C232.382 149.266 223.799 159.046 209.118 159.046L209.1 159.027ZM208.99 111.735C203.749 111.735 198.143 114.6 194.564 119.471C194.564 141.165 199.568 154.138 209.355 154.138C218.303 154.138 222.357 144.358 222.357 133.283C222.357 121.478 219.015 111.717 208.99 111.717V111.735Z" fill="#B08855"/>
<path d="M21.9125 35.5969V37.4579C21.9125 43.2965 20.9081 50.9413 10.8467 50.9413C1.82604 50.9413 0 45.121 0 37.6404V12.6076C0 4.88978 3.45121 0 10.9562 0C19.9951 0 21.6933 6.09398 21.6933 12.8448V14.9795H14.6631V12.0785C14.6631 8.61186 13.9327 6.36767 10.938 6.36767C7.94327 6.36767 7.15807 8.48414 7.15807 12.1332V38.1878C7.15807 41.8916 7.92501 44.6102 11.0475 44.6102C14.1701 44.6102 14.8274 42.1105 14.8274 38.1695V35.5787H21.9307L21.9125 35.5969Z" fill="#B08855"/>
<path d="M26.5322 0.711548H33.5442V20.5261H42.3275V0.711548H49.3395V50.248H42.3275V26.9668H33.5442V50.248H26.5322V0.711548Z" fill="#B08855"/>
<path d="M62.3956 36.3084L60.4966 50.248H53.375L61.3913 0.711548H71.3067L79.6517 50.248H72.3293L70.2111 36.3084H62.3956ZM69.3711 29.8678C68.0746 20.7816 66.9425 12.6806 66.4129 7.31641H66.1573C65.9564 11.3304 64.386 22.077 63.3086 29.8678H69.3894H69.3711Z" fill="#B08855"/>
<path d="M90.4622 27.8243V50.2297H83.4502V0.711548H93.5117C101.035 0.711548 105.271 3.77678 105.271 12.4981V14.4869C105.271 21.858 102.35 24.011 100.231 24.8503C103.19 26.1457 104.797 28.3169 104.797 35.013C104.797 39.1912 104.724 47.2192 105.253 50.248H98.4785C97.8211 47.2375 97.9489 39.0453 97.9489 35.4692C97.9489 29.3204 97.1455 27.8243 92.5804 27.8243H90.4622ZM90.4622 22.0222H92.6169C96.8351 22.0222 98.2594 20.1795 98.2594 14.8153V12.9725C98.2594 8.9585 97.3463 6.53185 92.836 6.53185H90.4622V22.0222Z" fill="#B08855"/>
<path d="M115.99 7.20693H108.01V0.711548H130.982V7.20693H122.984V50.248H115.972V7.20693H115.99Z" fill="#B08855"/>
<path d="M152.346 27.2405H141.39V43.7891H153.972L153.077 50.2297H134.396V0.711548H152.967V7.20693H141.408V20.818H152.365V27.2587L152.346 27.2405Z" fill="#B08855"/>
<path d="M164.837 27.8243V50.2297H157.825V0.711548H167.904C175.428 0.711548 179.664 3.77678 179.664 12.4981V14.4869C179.664 21.858 176.742 24.011 174.624 24.8503C177.582 26.1457 179.189 28.3169 179.189 35.013C179.189 39.1912 179.116 47.2192 179.646 50.248H172.871C172.214 47.2375 172.36 39.0453 172.36 35.4692C172.36 29.3204 171.557 27.8243 166.991 27.8243H164.873H164.837ZM164.837 22.0222H166.991C171.21 22.0222 172.634 20.1795 172.634 14.8153V12.9725C172.634 8.9585 171.721 6.53185 167.211 6.53185H164.837V22.0222Z" fill="#B08855"/>
<path d="M203.348 27.2405H192.392V43.7891H204.973L204.078 50.2297H185.398V0.711548H203.969V7.20693H192.41V20.818H203.366V27.2587L203.348 27.2405Z" fill="#B08855"/>
<path d="M208.808 0.711548H218.979C229.551 0.711548 231.779 6.47711 231.779 15.3079V34.4474C231.779 42.0193 230.519 50.2297 218.887 50.2297H208.808V0.711548ZM215.82 44.2635H218.413C223.708 44.2635 224.639 40.9975 224.639 35.4874V14.6876C224.639 9.81603 223.781 6.7508 218.394 6.7508H215.82V44.2635Z" fill="#B08855"/>
</svg>
