<svg width="509" height="119" viewBox="0 0 509 119" fill="none" xmlns="http://www.w3.org/2000/svg">
<path fill-rule="evenodd" clip-rule="evenodd" d="M201.967 62.6036C201.967 56.5572 201.39 52.4427 200.259 50.26C199.23 48.3784 197.497 47.425 195.01 47.425H191.72V78.3592H194.834C197.296 78.3592 199.079 77.3808 200.084 75.4239C201.34 73.1157 201.967 68.8256 201.967 62.6036ZM207.368 62.2022C207.368 69.6033 206.539 74.9723 204.856 78.309C203.098 81.7713 200.184 83.5024 196.14 83.5024H186.545V42.2818H196.291C199.858 42.2818 202.495 43.4108 204.128 45.6939C206.288 48.7296 207.368 54.2491 207.368 62.2022ZM182.627 83.5024H164.643V42.2818H182.175V47.8766H169.868V59.317H181.447V64.8616H169.868V77.9076H182.652V83.5024H182.627ZM154.772 53.9982C154.772 49.6077 152.964 47.425 149.397 47.425H145.504V60.6969H149.397C152.989 60.6969 154.772 58.464 154.772 53.9982ZM161.453 83.5024H155.551C154.848 82.4236 154.496 79.4129 154.496 74.4956C154.496 70.8828 154.144 68.4743 153.441 67.2701C152.838 66.1913 151.607 65.6393 149.799 65.6393H145.479V83.5024H140.28V42.2818H151.582C153.943 42.2818 155.827 42.9592 157.259 44.314C159.193 46.1455 160.147 49.1059 160.147 53.1452C160.147 55.8297 159.62 58.0876 158.565 59.9442C157.51 61.7757 156.279 62.8043 154.873 63.0803V63.2057C156.631 63.5821 157.887 64.4351 158.59 65.7397C159.469 67.3955 159.896 70.2556 159.896 74.3451C159.896 79.3377 160.424 82.3985 161.453 83.5275V83.5024ZM136.638 83.5024H118.654V42.2818H136.186V47.8766H123.878V59.317H135.457V64.8616H123.878V77.9076H136.638V83.5024ZM115.991 48.002H108.23V83.5024H103.031V48.002H95.2444V42.2818H115.991V48.002ZM87.6339 53.9982C87.6339 49.6077 85.8506 47.425 82.2337 47.425H78.3406V60.6969H82.2337C85.8506 60.6969 87.6339 58.464 87.6339 53.9982ZM94.3151 83.5024H88.4126C87.7093 82.4236 87.3828 79.4129 87.3828 74.4956C87.3828 70.8828 87.006 68.4743 86.3278 67.2701C85.725 66.1913 84.4943 65.6393 82.6607 65.6393H78.3657V83.5024H73.1664V42.2818H84.4692C86.8302 42.2818 88.714 42.9592 90.1457 44.314C92.0546 46.1455 93.0341 49.1059 93.0341 53.1452C93.0341 55.8297 92.5067 58.0876 91.4518 59.9442C90.3968 61.7757 89.141 62.8043 87.7595 63.0803V63.2057C89.5428 63.5821 90.7736 64.4351 91.4769 65.7397C92.3811 67.3955 92.8081 70.2556 92.8081 74.3451C92.8081 79.3377 93.3104 82.3985 94.3402 83.5275L94.3151 83.5024ZM62.6925 68.098L59.0254 48.8049H58.9501L55.0067 68.098H62.6925ZM71.0315 83.5024H65.6313L63.5716 73.3415H54.1276L52.0931 83.5024H46.6427L55.71 42.2818H62.5167L71.0315 83.5024ZM44.5328 83.5024H39.3084V64.4602H29.6885V83.7282L24.4642 83.5024V42.2818H29.6885V58.74H39.3084V42.2818H44.5328V83.5024ZM20.998 68.7252C20.998 73.467 20.144 77.2052 18.3858 79.99C16.5774 82.9003 13.9903 84.3303 10.6999 84.3303C7.10817 84.3303 4.47086 82.9003 2.83824 80.0402C0.954454 76.7536 0 71.1337 0 63.1305C0 55.1272 0.828868 49.984 2.46149 46.5971C4.11922 43.185 6.88212 41.479 10.8004 41.479C17.4062 41.479 20.7468 46.02 20.7468 55.0519H15.4722C15.4722 49.3066 13.9149 46.4465 10.8004 46.4465C8.64032 46.4465 7.18352 47.8766 6.40489 50.7618C5.72672 53.1954 5.42532 57.335 5.42532 63.1806C5.42532 69.0263 5.82719 73.5171 6.63094 75.8504C7.43469 78.1585 8.81614 79.3377 10.7502 79.3377C14.0656 79.3377 15.6983 75.8002 15.6983 68.7252H20.998Z" fill="#808285"/>
<path d="M338.53 62.0013C344.508 63.0048 349.657 66.8434 349.657 72.8396C349.657 79.6135 343.151 83.5524 334.411 83.5524H320.973V83.2262C324.816 83.2262 325.042 81.0937 325.042 76.9039V49.1308C325.042 44.9661 324.816 42.8085 320.973 42.8085V42.4573H333.632C342.448 42.4573 347.522 46.07 347.522 52.1666C347.522 58.2631 342.498 60.8472 338.53 61.8758V61.9762V62.0013ZM330.342 43.3856C328.985 43.3856 328.207 44.0629 328.207 45.4177V61.7253H333.23C340.69 61.7253 344.03 58.514 344.03 52.9694C344.03 46.7725 340.137 43.3856 333.406 43.3856H330.367H330.342ZM346.04 72.8396C346.04 66.1158 341.343 62.6285 333.456 62.6285H328.207V79.0364C328.207 80.9432 328.207 82.6492 333.908 82.6492C341.77 82.6492 346.04 79.2121 346.04 72.8396Z" fill="#334E30"/>
<path d="M352.319 83.5525V83.2263C354.63 83.2263 354.806 81.3196 354.806 77.7068V60.9978C354.806 57.3851 353.851 56.0303 351.917 55.7041V55.378L357.393 53.4713H357.619V77.7319C357.619 81.3447 357.795 83.2514 360.105 83.2514V83.5776H352.319V83.5525ZM352.922 45.6185C352.922 44.2638 354.052 43.1348 355.409 43.1348C356.765 43.1348 357.895 44.2638 357.895 45.6185C357.895 46.9733 356.765 48.1023 355.409 48.1023C354.052 48.1023 352.922 46.9733 352.922 45.6185Z" fill="#334E30"/>
<path d="M377.386 53.7474L376.532 57.2347H376.206C375.075 56.7329 374.121 56.4569 373.166 56.4569C371.132 56.4569 369.374 57.7615 367.741 60.3457V77.6819C367.741 81.2946 367.917 83.2014 370.228 83.2014V83.5275H362.441V83.2014C364.752 83.2014 364.928 81.2946 364.928 77.6819V60.9729C364.928 57.3601 363.974 56.0053 362.04 55.6792V55.353L367.515 53.4463H367.741V59.4926C370.052 55.9301 372.438 53.3459 375.251 53.3459C375.804 53.3459 376.608 53.4714 377.386 53.7975V53.7474Z" fill="#334E30"/>
<path d="M401.122 77.2304C401.122 80.8431 401.976 81.9721 404.01 82.4237V82.7499L399.213 84.205H398.987L398.359 78.3343C395.998 81.5958 392.984 84.205 388.639 84.205C381.857 84.205 377.235 77.7823 377.235 69.1268C377.235 59.6935 383.113 53.2708 390.573 53.2708C393.511 53.2708 396.224 54.2994 398.309 55.8047V46.4969C398.309 42.8841 397.354 41.5293 395.42 41.2032V40.877L400.896 39.4219H401.122V77.2304ZM398.284 77.682V62.7794C398.284 57.8118 395.169 54.0987 390.321 54.0987C383.816 54.0987 380.275 60.7472 380.275 68.1483C380.275 75.5494 383.766 82.1979 390.221 82.1979C393.712 82.1979 396.324 80.1156 398.309 77.682H398.284Z" fill="#334E30"/>
<path d="M406.296 82.2981L405.844 75.9256H406.171C408.079 81.0687 410.742 83.427 414.811 83.427C418.428 83.427 421.768 81.5203 421.768 77.456C421.768 73.8432 419.457 72.5386 414.886 70.0548L412.801 68.9258C409.461 67.1195 406.698 65.3131 406.698 61.0229C406.698 56.2812 410.315 53.2957 415.389 53.2957C417.699 53.2957 420.588 53.8727 422.673 55.102V60.3455H422.346C421.165 56.1056 418.227 54.0734 415.062 54.0734C411.445 54.0734 408.908 56.3314 408.908 59.7183C408.908 63.1053 411.345 64.6357 414.334 66.2163L416.418 67.3453C420.713 69.6534 423.979 71.234 423.979 75.9757C423.979 80.7175 420.035 84.2048 414.384 84.2048C411.269 84.2048 408.28 83.3518 406.296 82.2981Z" fill="#334E30"/>
<path d="M426.465 68.8757C426.465 59.5176 432.343 53.2957 439.903 53.2957C447.463 53.2957 453.24 59.1664 453.24 68.6499C453.24 78.1334 447.363 84.2299 439.802 84.2299C432.242 84.2299 426.465 78.3592 426.465 68.8757ZM450.075 68.7753C450.075 60.3706 446.182 54.0985 439.802 54.0985C433.423 54.0985 429.63 60.0194 429.63 68.7753C429.63 77.5312 433.523 83.4521 439.903 83.4521C446.283 83.4521 450.075 77.5312 450.075 68.7753Z" fill="#334E30"/>
<path d="M478.659 77.6819C478.659 81.2946 478.834 83.2014 481.145 83.2014V83.5275H473.359V83.2014C475.67 83.2014 475.845 81.2946 475.845 77.6819V62.7793C475.845 58.0375 473.937 55.5537 470.094 55.5537C466.979 55.5537 463.99 57.1845 461.227 59.5679V77.6819C461.227 81.2946 461.403 83.2014 463.714 83.2014V83.5275H455.928V83.2014C458.238 83.2014 458.414 81.2946 458.414 77.6819V60.9729C458.414 57.3601 457.46 56.0053 455.526 55.6792V55.353L461.001 53.4463H461.227V59.0411C464.266 55.8297 467.833 53.3459 471.626 53.3459C475.921 53.3459 478.684 56.3817 478.684 62.152V77.7321L478.659 77.6819Z" fill="#334E30"/>
<path d="M499.782 77.8074C505.609 77.8074 508.875 80.0152 508.875 84.7569C508.875 92.5344 500.561 97.1256 493.804 97.1256C487.525 97.1256 483.18 93.4627 483.18 88.2191C483.18 85.7354 484.31 83.7032 487.023 81.8968L487.751 81.4954H487.977C486.344 82.9004 485.616 84.8322 485.616 86.9145C485.616 91.8319 489.685 95.4447 495.839 95.4447C501.992 95.4447 506.865 91.8319 506.865 86.6386C506.865 83.076 504.429 80.8933 499.908 80.8933H488.278C485.465 80.8933 484.21 79.4381 484.21 77.7321C484.21 75.5996 485.892 74.3452 489.359 72.4886C486.018 70.9582 483.757 67.7469 483.757 63.4065C483.757 57.31 488.228 53.3711 494.03 53.3711C496.291 53.3711 498.325 53.9481 499.958 55.052L509 53.6972L507.97 56.2814L500.862 55.7043C502.897 57.3853 504.127 59.9945 504.127 63.256C504.127 69.3525 499.782 73.3667 493.905 73.3667C492.498 73.3667 491.142 73.1409 489.936 72.6893C487.5 74.3702 486.671 75.2734 486.671 76.3021C486.671 77.2053 487.299 77.8325 488.53 77.8325H499.782V77.8074ZM486.897 63.2811C486.897 68.7002 489.484 72.5388 493.955 72.5388C498.426 72.5388 500.963 68.7002 500.963 63.2811C500.963 57.8619 498.351 54.0736 493.955 54.0736C489.559 54.0736 486.897 57.8619 486.897 63.2811Z" fill="#334E30"/>
<path fill-rule="evenodd" clip-rule="evenodd" d="M222.287 90.3766C211.386 91.0038 190.012 99.2831 186.043 105.53C185.139 106.935 184.737 108.315 184.787 109.494C184.787 110.071 184.938 110.598 185.189 111.05C185.415 111.476 185.767 111.827 186.194 112.103C186.998 112.605 188.128 112.881 189.61 112.831C195.864 112.58 214.953 99.6343 222.287 90.3766ZM232.359 47.2243C232.209 52.9946 234.745 58.5392 240.949 61.876C247.53 50.4356 253.659 38.5938 258.757 28.7841C259.335 27.6552 259.913 26.5763 260.465 25.5226C251.951 23.3148 244.466 26.3255 239.367 31.4937C237.232 33.6513 235.524 36.2104 234.318 38.9199C233.113 41.6295 232.435 44.4645 232.359 47.2243ZM238.111 66.7181C229.898 62.2774 226.532 54.8261 226.733 47.0988C226.833 43.5613 227.687 39.9987 229.144 36.662C230.626 33.3503 232.736 30.2142 235.348 27.5548C242.004 20.7809 251.926 16.9674 263.103 20.4296C267.624 11.8995 273.978 5.90335 281.011 2.69201C285.156 0.810365 289.526 -0.0928246 293.947 0.00752972C298.367 0.107884 302.763 1.23687 306.957 3.41958C314.091 7.15778 320.546 13.9819 325.167 24.1678L326.8 27.7555L322.882 28.1318C305.35 29.8128 303.868 39.0454 302.386 48.1525C301.708 52.3674 301.03 56.5823 299.146 60.3707C298.769 61.0983 298.166 61.5749 297.388 61.7756C296.634 61.9763 295.906 61.8509 295.253 61.4244C295.228 61.4244 295.203 61.3742 295.152 61.3742L294.976 61.2488C293.896 60.471 293.52 59.0661 294.122 57.8618C295.655 54.7759 296.257 51.0377 296.86 47.2744C298.543 36.7372 300.276 26.1248 318.361 23.0639C314.493 15.989 309.62 11.1218 304.37 8.38712C300.979 6.60583 297.413 5.67755 293.871 5.60229C290.33 5.52702 286.763 6.27968 283.372 7.81008C277.545 10.4444 272.27 15.437 268.352 22.5371C275.209 25.9742 279.831 31.2177 282.468 37.2892C284.352 41.6295 285.206 46.3462 285.131 51.1381C285.131 52.4427 285.005 53.7724 284.854 55.077C284.427 58.5141 283.523 61.9262 282.167 65.1877C278.6 73.768 271.944 81.2695 262.776 85.2586C253.659 89.2226 242.029 89.6491 230.802 90.0505L229.32 90.1007C220.002 102.545 198.526 118.125 189.811 118.476C187.123 118.576 184.888 117.974 183.155 116.87C181.899 116.067 180.919 115.014 180.241 113.784C179.588 112.58 179.211 111.225 179.161 109.745C179.061 107.462 179.764 104.953 181.296 102.545C187.324 93.0862 212.341 85.1582 226.633 84.5812C230.501 79.162 234.369 73.0655 238.111 66.7432V66.7181ZM298.166 10.9462C300.125 10.9462 301.708 12.5267 301.708 14.4836C301.708 16.4406 300.125 18.0211 298.166 18.0211C296.207 18.0211 294.625 16.4406 294.625 14.4836C294.625 12.5267 296.207 10.9462 298.166 10.9462ZM271.015 46.4967V46.597C272.145 51.3137 271.768 55.4031 270.387 58.765C269.357 61.2488 267.8 63.3311 265.84 65.0121C263.932 66.6428 261.696 67.8722 259.235 68.7252C254.337 70.381 248.56 70.4563 243.31 68.8757C240.12 74.2447 236.83 79.4631 233.464 84.3052C243.26 83.9289 253.106 83.3267 260.541 80.0903C268.277 76.7284 273.928 70.3309 276.967 63.005C278.474 59.3922 279.328 55.5537 279.504 51.7653C279.504 51.5144 279.504 51.2635 279.504 51.0126C279.58 47.0236 278.876 43.0846 277.319 39.497C275.184 34.5796 271.366 30.2895 265.74 27.4795C265.087 28.734 264.434 30.0135 263.756 31.3181C258.732 40.9772 252.729 52.543 246.224 63.8329C249.992 64.711 253.985 64.5354 257.401 63.3813C259.184 62.7792 260.817 61.876 262.173 60.7219C263.479 59.618 264.509 58.2382 265.162 56.6074C266.117 54.2491 266.343 51.3137 265.514 47.7762C265.187 46.4214 265.941 45.0416 267.272 44.6151L267.473 44.5398C268.227 44.2889 268.955 44.3642 269.658 44.7405C270.362 45.1168 270.789 45.7189 270.99 46.4716" fill="#334E30"/>
</svg>
