<svg width="40" height="40" viewBox="0 0 40 40" fill="none" xmlns="http://www.w3.org/2000/svg">
<path d="M8.16342 0H39.7227V3.10146C39.4625 3.74786 38.3274 3.50779 38.3274 2.90723V1.39535H19.097V16.5935H31.1549C31.1999 16.5935 31.5674 16.7714 31.6187 16.8281C32.0266 17.2826 31.6358 18.0673 31.0779 18.0673H19.0978V22.5261C19.0978 23.0023 18.453 23.3123 18.0187 23.0621C17.9612 23.0287 17.7025 22.7809 17.7025 22.7591V1.3969H9.17264V30.5524H17.7025V27.0244C17.7025 27.0027 17.9619 26.7509 18.0187 26.7206C18.446 26.4891 19.0986 26.7875 19.0986 27.2575V30.5532H38.3289V18.0689H35.7317C35.1397 18.0689 34.7225 17.3277 35.1475 16.8646C35.215 16.7916 35.588 16.5958 35.654 16.5958H38.3289V4.92567C38.3289 4.90314 38.5193 4.58539 38.5659 4.54188C38.9684 4.1674 39.3964 4.40747 39.7251 4.73144V31.5609C39.4842 31.954 39.1105 31.9975 38.6817 32.0294H8.74455C7.90781 31.9571 7.75709 31.7155 7.69727 30.9052V1.04496C7.72912 0.616104 7.77263 0.242401 8.16575 0.00155536L8.16342 0Z" fill="#ED1C25" fill-opacity="0.5"/>
<path d="M39.7212 37.0645C39.5853 37.254 39.454 37.3651 39.2659 37.5011C38.186 38.2788 36.8707 38.8941 35.7706 39.6656C35.4388 39.8489 34.7582 39.5622 34.7582 39.1971V37.5298H12.7364V39.1971C12.7364 39.2157 12.5849 39.4915 12.5569 39.5218C12.3448 39.7526 11.9548 39.7417 11.672 39.6407C11.2183 39.4776 8.52706 37.7637 8.0912 37.4063C7.62194 37.0217 7.62194 36.5641 8.0912 36.1795C8.52706 35.8221 11.2183 34.1083 11.672 33.9451C11.9541 33.8441 12.3441 33.8325 12.5569 34.064C12.5849 34.0943 12.7364 34.3701 12.7364 34.3887V36.056H34.7582V34.3887C34.7582 34.0236 35.4388 33.7369 35.7706 33.9203C36.8746 34.6902 38.179 35.3086 39.2659 36.0847C39.4547 36.2199 39.5853 36.3318 39.7212 36.5214V37.0645ZM11.3418 37.7621V35.8237L9.79033 36.7933L11.3418 37.7629V37.7621ZM36.1544 35.8237V37.7621L37.7059 36.7925L36.1544 35.8229V35.8237Z" fill="#ED1C25" fill-opacity="0.5"/>
<path d="M3.20039 0C3.38996 0.135961 3.50106 0.26726 3.63702 0.455275C4.41472 1.53519 5.03004 2.85053 5.80152 3.95065C5.98488 4.28162 5.6982 4.96298 5.33305 4.96298H3.66577V7.7933C3.66577 8.31539 2.89506 8.69764 2.46154 8.29985C2.38851 8.23226 2.19273 7.85934 2.19273 7.7933V4.96298H0.525454C0.160301 4.96298 -0.12638 4.2824 0.0569732 3.95065C0.826902 2.84665 1.44533 1.54219 2.22147 0.455275C2.35666 0.266483 2.46854 0.135961 2.6581 0H3.20117H3.20039ZM3.89807 3.56684L2.92847 2.01534L1.95887 3.56684H3.8973H3.89807Z" fill="#ED1C25" fill-opacity="0.5"/>
<path d="M3.666 26.9842H5.33327C5.35192 26.9842 5.62772 27.1357 5.65802 27.1636C5.88877 27.3757 5.87789 27.7657 5.77689 28.0485C5.61374 28.5023 3.89985 31.1935 3.54247 31.6294C3.15789 32.0986 2.70028 32.0986 2.31571 31.6294C1.95832 31.1935 0.244437 28.5023 0.0812839 28.0485C-0.0197158 27.7657 -0.0313721 27.3765 0.20015 27.1636C0.23045 27.1357 0.506262 26.9842 0.524908 26.9842H2.19218V9.57645C2.19218 8.66202 3.66522 8.66202 3.66522 9.57645V26.9842H3.666ZM3.89829 28.3803H1.95988L2.92948 29.9318L3.89907 28.3803H3.89829Z" fill="#ED1C25" fill-opacity="0.5"/>
</svg>
