<svg width="44" height="44" viewBox="0 0 44 44" fill="none" xmlns="http://www.w3.org/2000/svg">
<path d="M18.0489 0C18.7102 0.315989 19.0666 0.865311 19.4937 1.43358C21.7253 4.4006 23.0056 8.00047 23.4749 11.6752L35.1783 11.6907C36.3079 6.8648 42.8962 6.8252 44 11.6864V40.3881C43.585 42.2814 42.0662 43.8175 40.0928 44H2.53475C1.22002 43.845 0.154978 42.7757 0 41.4661V14.39C0.0757671 13.0012 1.26393 11.844 2.63549 11.6976C2.90498 11.6692 3.81591 11.757 3.91922 11.6064C4.37124 8.99579 5.3588 6.45841 6.75705 4.21807C7.16774 3.5594 8.33954 1.72201 9.04211 1.51881C10.356 1.13825 11.0629 2.37293 11.7103 3.2899C12.2631 4.07428 12.7504 4.90946 13.1947 5.75755C13.855 4.40835 14.5301 3.09101 15.4022 1.86408C15.8904 1.17786 16.4173 0.353874 17.1905 0.000861006H18.0498L18.0489 0ZM18.3933 20.3662C19.5049 20.2724 20.4192 19.3167 20.9298 18.3911C22.2549 15.9906 22.0973 12.2211 21.5454 9.60883C20.9281 6.68313 19.5333 3.80134 17.5762 1.54895C16.6774 2.70012 15.8138 3.92533 15.1663 5.23836C14.9717 5.63356 14.1219 7.56222 14.1314 7.86357C14.1418 8.18559 14.8021 9.83183 14.9296 10.3803C15.3669 12.2556 15.5848 14.5407 15.3833 16.4556C15.286 17.3854 15.0208 18.2835 14.8676 19.2022C14.9364 19.6258 16.3709 20.4257 16.8453 20.3671V17.3166C16.8453 17.0703 17.4015 16.8215 17.6598 16.8378C17.962 16.8576 18.3916 17.1977 18.3916 17.4879V20.3662H18.3933ZM10.3155 21.8265C12.5334 21.4735 13.4487 19.0076 13.7388 17.0428C14.3312 13.0322 13.3049 8.83306 11.2445 5.38646C11.1119 5.16518 9.61811 2.89642 9.45797 3.00663C8.81309 3.95546 8.10708 4.86124 7.55088 5.87034C5.71094 9.21191 4.74836 13.4041 5.35622 17.2029C5.68081 19.2314 6.5969 21.371 8.76832 21.9109V19.3761C8.76832 19.2271 6.91374 17.6696 6.68817 17.2442C6.30503 16.5227 7.07819 15.8029 7.78248 16.2369C8.11655 16.4426 9.31677 17.9175 9.51049 17.9511C10.0787 17.6894 11.1007 16.1335 11.6587 16.0948C12.3259 16.0483 12.6677 16.7182 12.3664 17.3019C12.1753 17.6739 10.3147 19.2297 10.3147 19.3752V21.8239L10.3155 21.8265ZM42.4537 36.1778V11.8156C42.4537 11.7725 42.1816 11.1216 42.1273 11.0243C41.0528 9.08103 38.11 9.10945 37.0553 11.057C36.9614 11.2301 36.6962 11.9163 36.6962 12.073V36.1769L37.8766 35.5096C39.4936 34.8561 41.0821 35.142 42.4537 36.1769V36.1778ZM2.53906 42.4511H11.0034V39.3144C11.0034 37.9256 12.4499 35.6534 13.4943 34.7588C16.8177 31.9123 20.3417 33.432 24.1843 32.9895C24.5167 32.9507 24.9584 32.8026 25.2003 32.5693C25.2769 32.4952 25.611 31.9674 25.611 31.9244V13.2337H23.4628C23.5188 16.7801 22.7103 20.609 18.9762 21.8523C18.7868 21.9152 18.4665 21.8721 18.4036 22.053L18.3959 29.1778C18.4415 30.1524 17.1234 30.4831 16.8513 29.5127L16.8349 22.0099C15.8147 21.8145 14.8805 21.3883 14.0978 20.7098C13.6803 21.7439 12.6281 22.6445 11.6036 23.0707C11.3616 23.1714 10.3655 23.4004 10.3276 23.5132L10.3181 30.8085C10.2079 31.747 8.92243 31.8478 8.7752 30.8869L8.73215 23.4538C4.10175 22.598 3.36819 17.1254 3.69967 13.2328C2.79047 13.157 1.96822 13.244 1.59111 14.1756C1.53514 23.2988 1.5007 32.4556 1.60833 41.5763C1.71079 41.9336 2.17486 42.3856 2.53906 42.4502V42.4511ZM30.7675 13.2337H27.1582V32.0957C27.1582 33.0644 25.766 34.2439 24.8602 34.4385C21.3706 35.1885 17.2017 33.2848 14.2666 36.133C13.6157 36.7641 12.5498 38.4982 12.5498 39.4005V42.4511H16.0729V40.0876C16.0729 38.753 17.4858 37.4891 18.7765 37.378C22.6733 37.0431 27.1332 38.6092 29.7713 34.795C30.151 34.2465 30.7675 32.8276 30.7675 32.1818V13.2337ZM35.1499 13.2337H32.3138V32.1818C32.3138 33.2874 31.4924 35.061 30.8381 35.9487C27.853 39.9998 23.0762 38.7048 18.7136 38.9476C18.2754 38.9795 17.6193 39.6967 17.6193 40.0876V42.4511H36.1805C35.9756 42.1282 35.7362 41.8156 35.5778 41.4635C35.4383 41.1518 35.149 40.3063 35.149 40.0015V13.2337H35.1499ZM39.2551 36.7176C35.9816 37.0749 35.9454 41.8991 38.9262 42.4123C43.5876 43.2148 43.5316 36.2501 39.2551 36.7176Z" fill="#E51B25" fill-opacity="0.5"/>
<path d="M4.47294 39.5286H6.66416C6.68999 39.5286 7.08862 39.7077 7.13426 39.7464C7.55011 40.1003 7.40202 40.8795 6.88371 41.0371C6.52898 41.1447 4.03383 41.1318 3.5689 41.0776C3.17112 41.0311 2.96965 40.8279 2.92402 40.4327C2.86978 39.9669 2.856 37.4725 2.96448 37.1178C3.12205 36.5995 3.90124 36.4514 4.25511 36.8672C4.29385 36.9129 4.47294 37.3115 4.47294 37.3373V39.5286Z" fill="#E51B25" fill-opacity="0.5"/>
</svg>
