<svg width="53" height="50" viewBox="0 0 53 50" fill="none" xmlns="http://www.w3.org/2000/svg">
<path d="M0.41802 0.975167C-0.120974 0.885335 -0.105822 0.0995731 0.74055 0L25.4563 0.0259756C25.7832 0.132043 25.925 0.246768 25.9704 0.592027C26.0949 1.52282 26.0689 4.28164 25.965 5.24382C25.9412 5.46029 25.8568 5.83585 25.5873 5.83585H23.8047V9.50815C24.4671 9.52114 25.0548 8.98972 25.676 8.73213C28.2703 7.65847 33.84 7.64007 36.4418 8.69966C39.1227 9.79063 41.2928 12.3936 41.9205 15.2109C42.5515 18.0411 41.8772 20.5467 40.3533 22.9397C41.6402 24.6324 42.597 26.4994 42.9249 28.6273C43.9748 28.0948 44.7616 27.6456 46.0019 27.7647C47.58 27.9162 48.106 29.307 50.0595 28.9033C50.5552 28.8004 52.721 27.191 52.9537 28.163C53.0933 28.7452 52.2761 28.7452 51.9233 28.9314C51.0477 29.3946 50.5747 29.9001 49.4524 29.926C47.7737 29.9661 47.0475 28.6857 45.5517 28.6684C44.5051 28.6565 44.0029 29.2269 43.0992 29.5873C42.8989 29.7388 43.1371 30.3644 43.1446 30.6198C43.1695 31.5376 43.1165 32.4619 43.1414 33.3786C44.1339 32.7217 45.1859 32.4533 46.3862 32.6719C47.7986 32.9295 48.1871 34.1536 50.0314 33.7347C50.8302 33.554 51.6949 32.6437 52.5077 32.647C52.9104 32.6481 53.1809 33.2347 52.6376 33.5334C51.3388 34.2467 50.0433 34.8874 48.5129 34.6504C47.1892 34.4458 46.8386 33.2672 45.0787 33.5367C44.6988 33.5951 43.4791 34.1449 43.2474 34.4047C42.979 34.7045 43.3611 35.6677 42.7593 35.7619C42.3848 35.8203 42.2106 35.632 42.164 35.2749C41.9508 33.6308 42.2896 31.4803 42.1738 29.7561C41.8902 25.5253 38.8662 21.6734 34.8822 20.3053C32.5671 19.5098 30.0031 19.6711 27.5874 19.446C27.6502 20.1755 28.3115 20.6593 28.5647 21.3303C29.3494 23.4094 29.4771 28.4887 29.5367 30.8363C29.5756 32.3753 29.5172 33.9241 29.5107 35.4632C28.5485 36.4275 28.6232 34.7911 28.6676 34.1352C27.6015 34.6655 26.5484 34.9112 25.3676 34.5724C24.7182 34.3863 24.1381 33.8126 23.506 33.6254C22.0048 33.1784 21.179 34.0291 19.9181 34.6201C20.4008 35.2738 21.8208 36.2111 22.0319 36.9362C22.0763 37.0899 22.06 37.4622 22.0784 37.4828C22.1282 37.5347 23.2268 37.4655 23.5103 37.5088C24.6197 37.6798 25.2269 38.7069 26.5603 38.6798C28.1426 38.6474 28.66 37.2566 30.8809 37.4839C32.197 37.6192 32.8431 38.7707 34.3367 38.6712C35.3173 38.6051 35.9515 37.8335 36.8304 37.5975C37.4571 37.4287 38.4398 37.5997 38.8208 37.4276C39.3197 37.2014 40.3685 35.6483 40.9237 35.3171C41.3372 35.0703 41.4703 35.303 41.7365 35.5952C42.0028 35.8874 43.3698 37.985 43.5202 37.998C44.3395 37.5088 45.2649 37.3778 46.2108 37.4947C47.8213 37.6938 48.2694 39.2383 50.3474 38.4753C50.8767 38.2815 52.1062 37.301 52.6452 37.5337C52.7567 37.5813 52.9775 37.8367 52.9775 37.9687C52.9775 38.3963 52.3248 38.4417 52.0694 38.5759C50.8399 39.2231 50.3485 39.6896 48.817 39.5338C47.2466 39.3736 45.9338 37.4644 44.1133 38.7296C44.1133 38.8995 44.3568 39.1961 44.4607 39.353C45.4272 40.8131 46.6319 42.6617 48.2878 43.3035C49.9264 43.9388 50.3767 43.14 51.6527 42.5891C52.1116 42.3911 53.3087 42.1735 52.9255 42.9896C52.8259 43.2007 51.1743 43.7407 50.8886 44.0925C49.9979 44.4724 49.0541 44.507 48.1374 44.2094C47.1849 43.9009 46.831 43.2472 45.6881 43.2028C43.7702 43.1281 43.1695 44.9378 40.7202 44.2808C39.5849 43.9767 39.2191 43.1455 37.7926 43.2028C36.2243 43.2645 35.7145 44.5828 33.6938 44.3945C32.4622 44.2797 31.7251 43.3002 30.6742 43.2017C28.6394 43.0113 27.8309 45.0428 25.3243 44.2299C24.5645 43.9843 23.9627 43.3013 23.1077 43.2061C20.9377 42.9669 20.2731 45.1164 17.5944 44.1823C16.9645 43.9626 16.4482 43.3836 15.8215 43.2537C13.8885 42.8543 13.3441 44.2061 11.7531 44.3825C9.63394 44.6174 8.93152 42.995 7.01149 43.2061C6.16837 43.2992 5.58283 43.9897 4.79491 44.2289C3.01666 44.7689 2.38675 44.1336 0.984071 43.4009C0.722151 43.2634 -0.471645 43.0675 0.204803 42.4485C0.716739 41.9798 2.12808 43.1368 2.68547 43.3208C5.0644 44.1055 5.88372 41.5707 8.63821 42.4441C9.24756 42.6368 9.87314 43.2515 10.4067 43.376C12.7781 43.9301 13.7035 41.5328 16.3854 42.4744C16.9558 42.6747 17.511 43.2537 18.0782 43.3749C20.1854 43.8219 20.8186 42.2255 22.6748 42.2255C24.4011 42.2255 25.0515 43.5957 26.8915 43.4279C28.0972 43.3176 28.8418 42.2082 30.343 42.2266C32.2392 42.2493 32.9665 43.9886 35.103 43.3219C35.642 43.153 36.0803 42.587 36.6626 42.5578C36.3672 42.0112 35.0695 41.7071 35.2784 41.0155C35.4255 40.5295 37.5242 38.9775 37.851 38.3476C36.5923 38.3746 35.852 39.4223 34.5608 39.5392C32.5055 39.7253 31.9059 38.3627 30.3452 38.3389C28.9652 38.3172 28.345 39.3963 27.1036 39.5359C24.8632 39.787 24.3491 38.3356 22.6748 38.3411C21.0004 38.3465 20.5231 39.7556 18.3552 39.5338C17.1106 39.4071 16.3984 38.3432 15.1126 38.3411C13.4578 38.3378 12.8192 39.7719 10.6838 39.5359C9.23349 39.3758 8.69557 38.09 6.92923 38.3735C6.03957 38.5164 5.37936 39.3227 4.47779 39.4861C2.66599 39.8163 1.58151 38.9309 0.0922423 38.1289C0.0792545 36.6321 1.96032 38.222 2.57832 38.459C4.60767 39.2361 5.02652 37.8399 6.51904 37.5304C6.90651 37.4503 7.59053 37.4406 7.98774 37.4785C9.53004 37.6224 10.5734 39.3498 12.3581 38.4536C11.7791 37.5553 10.0431 36.6397 10.0799 35.4827C10.0918 35.1103 10.3028 34.9155 10.3061 34.567C9.24539 34.3571 8.60574 33.4771 7.44334 33.4771C6.20733 33.4771 5.52114 34.4772 4.5016 34.6493C2.82617 34.9318 2.26012 34.4252 0.933202 33.7326C0.617166 33.567 -0.0820106 33.5799 0.0586905 33.0226C0.311953 32.0203 2.33372 33.607 2.87271 33.7369C5.24299 34.3094 6.10776 31.6339 9.05058 32.9598C9.63936 33.2249 10.3894 33.9306 11.1102 33.8126C11.528 33.7445 13.6407 31.2335 14.2489 30.7865C14.8572 30.3395 15.4622 30.3492 16.0856 30.7854C16.6668 31.1913 18.7914 33.7131 19.1302 33.7932C19.6876 33.9252 21.2158 32.7173 22.1347 32.6232C23.9714 32.4349 24.1554 33.1719 25.5386 33.646C26.7324 34.0551 27.6004 33.7282 28.5615 32.9998V29.2734C27.5376 29.9315 26.3384 30.0873 25.1836 29.6814C24.6132 29.4812 24.058 28.9022 23.4908 28.781C21.3046 28.3166 20.7342 29.9834 18.7849 29.9282C17.1182 29.8817 16.5251 28.5602 14.6765 28.729C13.4783 28.8383 12.6893 29.9477 11.2249 29.9304C9.28868 29.9076 8.52565 28.0753 6.38591 28.8632C5.81337 29.0743 5.35555 29.5808 4.69425 29.7637C2.80886 30.2843 1.89646 29.2886 0.266495 28.6738C-0.0495411 28.4 -0.0235655 27.94 0.428843 27.8675C1.12369 27.756 1.81745 28.4444 2.39866 28.7009C4.65204 29.6944 5.40425 27.7538 7.44334 27.7538C9.21725 27.7538 9.81794 29.1165 11.6611 28.953C12.5919 28.8708 13.0627 28.2041 13.8929 27.9443C16.4644 27.138 17.142 29.1295 19.2233 28.953C20.4441 28.8491 21.4366 27.5038 22.8371 27.7603V25.1682H10.4684C6.56233 25.1682 3.35976 20.7036 3.49613 17.0075C3.62168 13.5961 6.88919 9.50599 10.4684 9.50599H22.8371V5.83369H0.41802C-0.115562 5.83369 0.0684314 4.86176 0.526251 4.86176H24.9931V0.975167H0.41802ZM28.5572 8.96916C21.8695 9.58499 18.4797 17.4783 22.836 22.7373C23.9963 24.1378 26.3308 25.6119 28.1816 25.7115C28.3645 25.7212 28.4468 25.6033 28.3418 25.4972C28.3255 25.481 28.0506 25.4171 27.9175 25.3284C22.6023 21.7611 21.9042 14.9165 26.504 10.426L28.5572 8.97024V8.96916ZM38.2883 21.1636C38.8035 21.4234 39.2288 21.8498 39.6303 22.2524C44.4099 15.6319 37.8889 6.77855 30.0951 9.3707C24.4725 11.2409 22.533 18.3366 26.3947 22.8509C26.6274 23.1237 27.7086 24.1963 27.9651 24.3056C28.1816 24.3976 28.1221 24.1551 28.1286 24.035C28.2498 21.7513 26.6815 20.5608 26.3211 18.4957C25.7464 15.2033 27.8039 11.8395 31.066 10.9898C36.3336 9.61746 40.9237 14.7444 38.9301 19.8259C38.7407 20.3097 38.4398 20.6841 38.2872 21.1625L38.2883 21.1636ZM22.941 10.4801H10.1405C8.07541 10.4801 5.48651 13.1339 4.81764 14.9868C3.36084 19.0271 6.35236 24.3067 10.7888 24.3067H23.0493C19.049 20.5597 19.0241 14.2931 22.941 10.4801ZM32.0985 11.6988C28.8851 12.0667 26.6555 15.2033 27.1999 18.3734C27.3904 18.6375 31.4935 18.7262 32.1754 18.7998C33.4016 18.9308 34.7621 19.249 35.9018 19.7187C36.1734 19.8313 37.3954 20.5489 37.5242 20.4818C40.244 16.4252 36.9181 11.1479 32.0985 11.6988ZM23.8047 25.1714V27.98C25.1987 28.5894 26.2096 29.4715 27.806 28.6857C28.7736 28.2095 28.4565 27.6175 28.3872 26.6704C27.7692 26.5319 27.1372 26.467 26.5289 26.2808C25.741 26.0405 24.8827 25.3792 24.2636 25.1974C24.1121 25.153 23.9584 25.166 23.8047 25.1704V25.1714ZM14.9156 31.4575L11.1665 35.1634C11.0723 35.2814 10.9565 35.4145 10.9717 35.5779C10.9901 35.7771 13.0216 37.8703 13.1796 37.9006C13.2911 37.9211 14.0671 37.5336 14.3615 37.4947C14.7284 37.446 15.3745 37.4525 15.7447 37.4979C17.3368 37.6895 17.866 39.2199 19.8813 38.4785C20.3532 38.3043 21.5968 37.7047 21.1087 37.1018L15.5466 31.5398C15.3724 31.4034 15.1224 31.3948 14.9146 31.4586L14.9156 31.4575ZM45.4088 42.2374L41.1423 36.408L36.4462 41.1085L37.8489 42.1844C39.0502 42.1573 39.8511 43.0275 40.7949 43.3435C42.4758 43.9063 42.9855 42.9409 44.2995 42.4788C44.6642 42.351 45.0408 42.3391 45.4088 42.2374Z" fill="#E51B25" fill-opacity="0.5"/>
<path d="M6.81967 47.1274C9.0027 46.8297 9.49407 48.2303 11.1078 48.292C13.0257 48.3666 13.6718 46.544 16.1579 47.2389C17.0367 47.4845 17.6028 48.2184 18.5617 48.2909C20.748 48.4575 21.4169 46.1868 24.2763 47.438C24.9701 47.7411 25.3998 48.2259 26.231 48.2909C28.2593 48.4478 29.0115 46.3384 31.6426 47.3092C32.4208 47.596 32.8602 48.2194 33.7932 48.2909C35.9113 48.4521 36.4416 46.4542 39.1214 47.2843C39.9634 47.5452 40.5284 48.2184 41.4625 48.2909C43.2169 48.4272 43.8901 46.8968 46.0028 47.1003C47.7312 47.2659 48.2605 48.8732 50.3764 48.1231C50.7217 48.0008 52.9263 46.4412 52.9675 47.582C52.987 48.1296 52.3971 48.0452 52.0811 48.2075C50.6362 48.9468 49.9586 49.6405 48.1587 49.0496C47.4055 48.8017 46.8199 48.148 46.0093 48.0668C43.6769 47.832 42.9658 50.0854 40.1951 48.9121C39.6875 48.6967 39.2827 48.2357 38.7188 48.1199C36.5228 47.6675 35.9719 49.3104 34.0194 49.2639C32.5442 49.2282 31.6199 47.9932 30.3287 47.9759C28.9877 47.9575 28.0742 49.2455 26.5546 49.2639C24.9625 49.2823 24.0447 47.9575 22.6832 47.9759C20.8541 48.0008 20.275 49.8137 17.776 49.0788C17.1406 48.8916 16.7012 48.4013 16.1676 48.2032C13.9911 47.3958 13.2032 49.2693 11.2334 49.2498C9.24514 49.2303 8.47561 47.3265 6.30557 48.2346C5.72761 48.477 5.36287 48.8948 4.66477 49.0777C2.90493 49.5409 2.20575 48.8818 0.765187 48.1599C0.496773 48.0257 0.0270474 48.0896 0.0454467 47.5841C0.0865748 46.4488 2.5088 48.1513 2.95255 48.2422C4.91154 48.6415 5.29035 47.3384 6.82183 47.1295L6.81967 47.1274Z" fill="#E51B25" fill-opacity="0.5"/>
<path d="M49.9137 10.7106C50.0901 10.6597 50.273 10.7019 50.3877 10.8491C50.8975 11.4985 49.6442 12.7821 49.4796 13.4163C48.9352 15.5095 50.7135 16.2358 50.5977 18.316C50.5685 18.8539 50.1171 20.7101 49.3422 20.104C48.9298 19.7815 49.5164 19.1494 49.6117 18.7338C50.0316 16.896 48.4092 15.9977 48.4309 14.2129C48.4428 13.1912 48.9666 12.5429 49.3931 11.7095C49.5392 11.4249 49.6041 10.7993 49.9137 10.7106Z" fill="#E51B25" fill-opacity="0.5"/>
<path d="M43.6481 6.6053C43.9197 6.52521 44.187 6.69514 44.2249 6.97654C44.2715 7.33154 43.8862 7.66164 43.8147 8.07509C43.4684 10.1001 44.9349 10.7311 44.9836 12.4769C44.9988 13.0029 44.6546 14.7205 44.042 14.7757C43.0712 14.8645 43.9414 13.5018 43.9955 13.1154C44.2552 11.2409 42.8753 10.6294 42.8114 8.91497C42.7919 8.39545 43.0982 6.76657 43.6481 6.60422V6.6053Z" fill="#E51B25" fill-opacity="0.5"/>
<path d="M46.6781 22.7677C46.1749 23.271 45.4865 22.0393 45.3242 21.6388C44.5427 19.7123 45.5363 18.4655 46.2831 16.8106C47.2041 16.2792 47.1814 17.0801 46.9076 17.7598C46.3783 19.0738 45.4962 19.5446 46.163 21.233C46.3285 21.6529 47.0699 22.377 46.6781 22.7688V22.7677Z" fill="#E51B25" fill-opacity="0.5"/>
<path d="M30.9024 22.8097C31.4035 22.6701 31.5377 23.2373 31.5821 23.6042C31.6849 24.4581 31.9057 26.7407 31.8029 27.4983C31.7315 28.0287 31.1806 28.1705 30.9868 27.7635C30.7725 27.3133 30.8635 25.8943 30.8245 25.3337C30.7909 24.8607 30.5095 23.326 30.6643 23.01C30.7054 22.9245 30.8115 22.8346 30.9024 22.8097Z" fill="#E51B25" fill-opacity="0.5"/>
<path d="M35.2297 26.4941C35.4635 26.7322 36.062 29.5149 36.1064 29.9911C36.1507 30.4673 36.1843 31.6135 35.4364 31.1199C35.2632 31.0052 35.0728 29.3406 34.9862 28.951C34.8649 28.4066 34.4645 27.36 34.4439 26.9108C34.4244 26.4984 34.9126 26.1716 35.2297 26.4941Z" fill="#E51B25" fill-opacity="0.5"/>
<path d="M37.1683 23.8002C37.5352 24.3651 38.9508 25.8804 38.9075 26.4984C38.8816 26.8599 38.4032 27.0309 38.1651 26.7452L36.389 24.2991C36.2017 23.7926 36.7775 23.4755 37.1693 23.8002H37.1683Z" fill="#E51B25" fill-opacity="0.5"/>
<path d="M45.8664 26.008C45.5925 25.6985 46.0439 25.1887 46.1348 24.8716C46.2473 24.4765 46.2668 23.0576 47.0374 23.5988C47.5147 23.9343 46.7062 26.9561 45.8675 26.0091L45.8664 26.008Z" fill="#E51B25" fill-opacity="0.5"/>
<path d="M31.2226 29.1826C31.5322 29.0787 31.8417 29.2194 31.9034 29.5495C31.9889 30.0019 32.016 31.897 31.1425 31.2823C31.0494 31.2173 30.807 29.3222 31.2226 29.1837V29.1826Z" fill="#E51B25" fill-opacity="0.5"/>
<path d="M34.4172 22.0662C35.0006 21.4969 36.7897 23.3336 35.5277 23.3434C35.1153 23.3466 33.9616 22.5111 34.4172 22.0662Z" fill="#E51B25" fill-opacity="0.5"/>
<path d="M11.7601 11.9932H17.8092C18.1382 11.9932 18.1382 12.8569 17.8092 12.8569H11.8684C11.6487 12.8569 11.4333 12.1295 11.7601 11.9932Z" fill="#E51B25" fill-opacity="0.5"/>
<path d="M9.7308 12.0149C10.2308 11.8666 11.2699 11.8893 10.8975 12.6415C10.7536 12.9338 9.9083 12.9262 9.65504 12.8028C9.32169 12.6405 9.37905 12.1188 9.7308 12.0149Z" fill="#E51B25" fill-opacity="0.5"/>
</svg>
