<svg width="37" height="38" viewBox="0 0 37 38" fill="none" xmlns="http://www.w3.org/2000/svg">
<path d="M3.28196 33.4591C2.38582 33.4636 1.39626 32.7132 1.22734 31.8215C0.931371 30.2594 2.30884 26.716 3.29467 25.4536C4.28049 24.1913 5.08321 26.562 5.44645 27.2683C5.62059 27.3064 5.56603 27.2444 5.61237 27.1727C5.97561 26.6106 6.47637 24.9312 7.33065 25.1203C7.81123 25.2264 8.54369 26.793 8.7283 27.2691C8.90245 27.3072 8.84789 27.2452 8.89423 27.1734C9.17151 26.7444 9.69245 25.4118 10.1028 25.1771C10.824 24.7645 11.3211 25.8774 11.6006 26.3729C12.339 27.6831 13.6059 30.8618 12.9347 32.2602C12.5969 32.9635 11.8113 33.409 11.04 33.4613V35.9233H9.84642V33.4613C9.5355 33.5525 9.0452 33.1676 8.83966 33.1683C8.61395 33.1683 8.14383 33.5301 7.8359 33.4643C7.75892 33.5435 7.87476 35.3396 7.8359 35.6654C7.82693 35.7402 7.80227 35.9225 7.72005 35.9225H6.56382V33.4606C6.25738 33.5704 5.7043 33.1616 5.49503 33.1788C5.27305 33.1975 4.85301 33.5278 4.5533 33.4636C4.47557 33.542 4.59216 35.3388 4.5533 35.6647C4.54433 35.7394 4.51966 35.9218 4.43745 35.9218H3.28121V33.4598L3.28196 33.4591ZM3.95238 26.9694C3.7745 26.9275 3.83205 27.0022 3.78721 27.0665C3.23188 27.8603 2.29389 30.6302 2.46505 31.5532C2.61303 32.3507 4.01591 32.3342 4.62505 32.19C4.46734 31.7655 4.43969 31.3402 4.47706 30.8865C4.51892 30.3723 4.85226 29.598 4.85002 29.169C4.84628 28.5449 4.12055 27.5882 3.95313 26.9694H3.95238ZM7.23499 26.9694C7.05785 26.9283 7.11465 27.0015 7.06981 27.0665C6.54663 27.8229 5.65273 30.4418 5.68263 31.3357C5.71626 32.335 7.19014 32.3589 7.90765 32.1907C7.74771 31.764 7.72528 31.3424 7.75966 30.8873C7.80675 30.2609 8.21259 29.4179 8.06012 28.8685C7.88224 28.2257 7.45323 27.6002 7.23499 26.9701V26.9694ZM10.5168 26.9694C10.3457 26.926 10.395 27.0022 10.3472 27.0635C9.82101 27.7347 8.93683 30.4986 8.96448 31.3357C9.00559 32.5667 11.7104 32.5831 11.8637 31.4859C11.9743 30.6937 11.3995 28.9328 11.0752 28.1652C10.904 27.7601 10.6446 27.3939 10.5168 26.9694Z" fill="#ED1C25" fill-opacity="0.5"/>
<path d="M11.3373 5.41142V11.0431C11.3373 11.0738 10.9763 11.443 10.856 11.3824C8.51438 11.2001 5.83792 11.6119 3.53741 11.3824C3.39017 11.3675 2.98283 11.1926 2.98283 11.0424V5.41067C2.20329 5.45851 1.64797 5.45253 1.82361 4.51155C1.94618 3.85233 2.46114 2.32987 2.72423 1.68262C2.8468 1.38141 2.95593 1.21549 3.31543 1.22969C5.79083 1.40682 8.56595 1.00622 11.0055 1.22969C11.368 1.26258 11.4248 1.30294 11.575 1.62955C11.7738 2.06155 12.5018 4.29031 12.5324 4.70213C12.5922 5.50933 11.9532 5.43609 11.3373 5.40993V5.41142ZM3.28105 4.21782H11.0391L10.5256 2.47188L10.4083 2.42255L3.85281 2.42404C3.75565 2.44721 3.3087 3.98313 3.28179 4.21782H3.28105ZM10.1437 5.41142H4.17644V10.1858H5.37005V8.13422C5.37005 8.09236 5.67349 7.82106 5.78187 7.80013C6.19593 7.7209 7.92542 7.74706 8.39554 7.79415C8.54353 7.8091 8.95012 7.98399 8.95012 8.13422V10.1858H10.1437V5.41142ZM7.75726 8.99224H6.56365V10.1858H7.75726V8.99224Z" fill="#ED1C25" fill-opacity="0.5"/>
<path d="M28.048 29.2818H29.2416V27.2302C29.2416 27.2063 29.5241 26.9305 29.5921 26.9103C30.0219 26.781 30.1788 26.9589 30.4322 27.2325C30.9516 27.793 31.3926 28.6077 31.8911 29.2049L32.2252 29.2811V27.2295C32.2252 27.2055 32.5077 26.9298 32.5757 26.9096C33.0055 26.7803 33.1625 26.9582 33.4158 27.2317C33.948 27.8065 34.3904 28.6376 34.9106 29.243C35.4181 29.3939 36.0355 29.0509 36.3628 29.5808L36.4062 35.2902C36.4368 35.5339 36.2672 35.6669 36.1013 35.8059L24.8169 35.8299C24.6518 35.7252 24.4649 35.578 24.4619 35.3642L24.4813 26.0515C24.6293 25.8049 24.7407 25.7234 25.021 25.6958C25.4918 25.6494 27.2198 25.6225 27.6346 25.7018C27.743 25.7227 28.0465 25.994 28.0465 26.0359V29.2811L28.048 29.2818ZM26.8544 26.8946H25.6608V34.6527H35.2089V30.4754C34.2402 30.6757 33.9129 30.0928 33.4921 29.3573C33.3702 29.3371 33.4218 29.4575 33.4181 29.5419C33.4046 29.8626 33.5048 30.2124 33.161 30.4052C32.9898 30.5016 31.5981 30.524 31.3821 30.4605C31.1534 30.3932 30.6295 29.6055 30.5084 29.3573C30.3866 29.3371 30.4382 29.4575 30.4344 29.5419C30.4195 29.8872 30.498 30.3835 30.0226 30.4747C29.7169 30.533 27.5711 30.533 27.2662 30.4747C27.1578 30.4538 26.8544 30.1825 26.8544 30.1406V26.8954V26.8946Z" fill="#ED1C25" fill-opacity="0.5"/>
<path d="M29.7644 5.11247C29.9385 5.15059 29.884 5.08856 29.9303 5.0168C30.2457 4.52875 30.9296 2.655 31.3489 2.4846C31.6187 2.37398 31.8691 2.40612 32.0791 2.61091L35.7473 9.83308C35.8662 10.227 35.861 10.4983 35.5052 10.7434L24.4249 10.7875C23.8987 10.786 23.6835 10.2576 23.9324 9.83682L27.5969 2.61091C27.9041 2.32241 28.3054 2.368 28.5708 2.68789C29.0229 3.23275 29.3899 4.46447 29.7644 5.11322V5.11247ZM25.5109 9.58868H30.5835L28.011 4.51604L25.5109 9.58868ZM32.0006 9.58868H34.1636L31.591 4.51604C31.2681 5.22458 30.8302 5.89949 30.5843 6.63643L32.0006 9.58868Z" fill="#ED1C25" fill-opacity="0.5"/>
<path d="M20.8867 0.0405273V12.4235C22.5684 12.996 24.046 14.4699 24.6163 16.1531H36.9993V17.3467H23.9077C23.7254 17.3467 23.2358 16.047 23.0811 15.7861C22.6334 15.0297 21.9645 14.3735 21.2074 13.9296C20.9518 13.7793 19.6924 13.3092 19.6924 13.1321V0.0405273H20.886H20.8867Z" fill="#ED1C25" fill-opacity="0.5"/>
<path d="M17.3062 37.0393H16.1126V24.6563C14.4354 24.086 12.9525 22.6032 12.383 20.9268H0V19.7332H13.0915C13.2799 19.7332 13.7425 20.994 13.889 21.2481C14.3255 22.0008 14.9959 22.6779 15.7456 23.1219C16.0064 23.2759 17.3062 23.7662 17.3062 23.9485V37.0401V37.0393Z" fill="#ED1C25" fill-opacity="0.5"/>
<path d="M17.3062 0.0405273V13.0573C17.3062 13.3653 16.0857 13.7591 15.7912 13.9296C15.0243 14.3743 14.333 15.0656 13.889 15.8317C13.7418 16.0851 13.2799 17.3467 13.0915 17.3467H0V16.1531H12.383C12.9533 14.4759 14.4361 12.9931 16.1126 12.4235V0.0405273H17.3062Z" fill="#ED1C25" fill-opacity="0.5"/>
<path d="M36.9995 19.7339V20.9275H24.6165C24.0462 22.6047 22.5634 24.0875 20.887 24.657V37.0401H19.6934V23.9485C19.6934 23.7706 20.952 23.3013 21.2083 23.151C21.9655 22.7071 22.6344 22.0508 23.0821 21.2945C23.2361 21.0336 23.7264 19.7339 23.9087 19.7339H37.0003H36.9995Z" fill="#ED1C25" fill-opacity="0.5"/>
<path d="M17.8843 14.979C22.948 14.2936 23.4861 21.5927 19.0502 22.1129C14.0606 22.6982 13.5351 15.5672 17.8843 14.979ZM18.4747 16.1823C15.3752 16.2182 15.4492 20.9343 18.5241 20.8984C21.6176 20.8625 21.557 16.1464 18.4747 16.1823Z" fill="#ED1C25" fill-opacity="0.5"/>
<path d="M32.8212 23.9111V25.1047H30.3966C30.0408 25.1047 29.8435 25.7012 29.8001 25.7012H28.6439C28.4189 25.0943 29.4137 23.9111 29.9496 23.9111H32.8212Z" fill="#ED1C25" fill-opacity="0.5"/>
<path d="M35.208 17.9431H33.418V19.1367H35.208V17.9431Z" fill="#ED1C25" fill-opacity="0.5"/>
<path d="M29.2402 17.9431H27.4502V19.1367H29.2402V17.9431Z" fill="#ED1C25" fill-opacity="0.5"/>
<path d="M9.54882 17.9431H7.75879V19.1367H9.54882V17.9431Z" fill="#ED1C25" fill-opacity="0.5"/>
<path d="M3.58007 17.9431H1.79004V19.1367H3.58007V17.9431Z" fill="#ED1C25" fill-opacity="0.5"/>
<path d="M19.0959 27.4912H17.9023V29.2812H19.0959V27.4912Z" fill="#ED1C25" fill-opacity="0.5"/>
<path d="M19.0959 7.79858H17.9023V9.58862H19.0959V7.79858Z" fill="#ED1C25" fill-opacity="0.5"/>
<path d="M19.0959 1.83057H17.9023V3.6206H19.0959V1.83057Z" fill="#ED1C25" fill-opacity="0.5"/>
<path d="M19.0959 33.4592H17.9023V35.2493H19.0959V33.4592Z" fill="#ED1C25" fill-opacity="0.5"/>
<path d="M34.0154 32.2656H28.6445V33.4592H34.0154V32.2656Z" fill="#ED1C25" fill-opacity="0.5"/>
</svg>
