<svg width="44" height="44" viewBox="0 0 44 44" fill="none" xmlns="http://www.w3.org/2000/svg">
<path d="M0.595574 0H43.1668V42.4023C42.9785 42.9817 42.7065 43.1135 42.1161 43.1642C28.2658 43.1 14.3927 43.2782 0.555876 43.0746C0.239138 42.9572 -0.0159414 42.6278 0.00179589 42.2798V0.880953C-0.0277663 0.453568 0.313466 0.241565 0.595574 0ZM16.4443 1.60143H1.60745V4.21472H16.4443V1.60143ZM20.2375 1.60143H18.0457V37.7653H20.2375V1.60143ZM37.7721 1.60143H21.8398V37.7653H37.7721V1.60143ZM41.5654 1.60143H39.2891V37.7653H41.5654V1.60143ZM16.4443 5.81699H1.60745V8.34583H16.4443V5.81699ZM16.4443 9.94725H1.60745V12.645H16.4443V9.94725ZM16.4443 14.162H1.60745V16.7753H16.4443V14.162ZM16.4443 18.3775H1.60745V20.9908H16.4443V18.3775ZM16.4443 22.5923H1.60745V25.2056H16.4443V22.5923ZM16.4443 26.807H1.60745V29.5048H16.4443V26.807ZM16.4443 31.0217H1.60745V33.635H16.4443V31.0217ZM16.4443 35.2373H1.60745V37.7661H16.4443V35.2373ZM41.5654 39.3675H1.60745V41.5594H41.5654V39.3675Z" fill="#E51B25" fill-opacity="0.5"/>
<path d="M29.6586 30.9525C30.2447 30.8545 30.5623 31.3951 30.6096 31.9044C30.6569 32.4137 30.6839 34.1055 30.5868 34.5861C30.4128 35.4502 29.1129 35.4561 29.0023 34.5236C28.9448 34.0354 28.9271 31.9306 29.0225 31.5049C29.0791 31.2515 29.4145 30.9939 29.6586 30.9534V30.9525Z" fill="#E51B25" fill-opacity="0.5"/>
<path d="M29.7409 4.14877C30.1227 4.11752 30.4867 4.44946 30.5695 4.79914C30.6624 5.18852 30.6632 7.4665 30.5661 7.84236C30.3608 8.63969 29.1876 8.60506 29.0221 7.86432C28.9419 7.50535 28.9545 5.0652 29.0441 4.7189C29.1243 4.40808 29.4199 4.17496 29.7409 4.14877Z" fill="#E51B25" fill-opacity="0.5"/>
<path d="M29.7416 17.5524C30.0905 17.5228 30.4528 17.815 30.5508 18.1385C30.6572 18.4891 30.6665 20.7898 30.5871 21.1826C30.4182 22.0179 29.2492 22.0129 29.0423 21.3329C28.9435 21.0086 28.9536 18.5828 29.0246 18.1875C29.0896 17.8252 29.3759 17.5836 29.7408 17.5532L29.7416 17.5524Z" fill="#E51B25" fill-opacity="0.5"/>
<path d="M29.1999 28.2978C29.0961 28.1847 29.0192 27.9338 29.0023 27.7784C28.9474 27.2885 28.9271 25.2681 29.0226 24.8441C29.1932 24.0831 30.461 24.0206 30.5987 25.0029C30.6713 25.5173 30.6764 27.3459 30.586 27.8417C30.4652 28.509 29.6197 28.7573 29.1999 28.2987V28.2978Z" fill="#E51B25" fill-opacity="0.5"/>
<path d="M29.1999 14.8943C29.0961 14.7811 29.0192 14.5302 29.0023 14.3748C28.9474 13.8849 28.9271 11.8646 29.0226 11.4406C29.1957 10.6686 30.4525 10.6322 30.6012 11.5968C30.6747 12.0732 30.6713 13.9711 30.5868 14.4373C30.4661 15.1046 29.6206 15.3529 29.2008 14.8943H29.1999Z" fill="#E51B25" fill-opacity="0.5"/>
</svg>
