<svg width="40" height="40" viewBox="0 0 40 40" fill="none" xmlns="http://www.w3.org/2000/svg">
<path d="M40 13.4316L38.3407 20.018C38.1629 20.6038 37.6805 20.7909 37.1966 21.0627L37.17 33.6583C36.9946 34.2597 35.9359 34.053 35.9359 33.5965V21.0133H22.7278V37.7381H25.698V32.9316C25.698 32.905 25.8664 32.4978 25.9008 32.4313C26.1177 32.0155 26.4944 31.7226 26.9447 31.5996C27.6526 31.4062 30.9555 31.3898 31.6384 31.602C32.0785 31.739 32.6078 32.241 32.7488 32.6795C32.7801 32.7774 32.8874 33.2566 32.8874 33.3224V37.7381H35.5835C35.7143 37.7381 35.9186 37.3106 35.9366 37.154C36.1332 35.4946 35.7824 33.4641 35.939 31.7641C36.0518 31.0515 37.0674 31.0515 37.1809 31.7641C37.0204 33.5346 37.4143 35.7405 37.1786 37.4578C37.0643 38.2902 36.3023 38.9527 35.4848 39.0466C24.4827 39.0278 13.4555 39.186 2.46745 38.9668C1.24352 38.6684 0.240402 37.6778 0.00391535 36.4281L0 28.5715L0.176974 28.2802C1.12292 27.6036 3.59821 24.2959 4.63343 24.2959H21.3974V21.0525C20.7443 20.8003 20.4209 20.6179 20.1648 19.9405C19.4006 17.9194 19.2048 15.2444 18.5141 13.1505C18.4296 12.5797 18.6997 11.961 19.1829 11.647C19.251 11.6024 19.6832 11.4003 19.7177 11.4003H22.8829L21.3175 4.64324C21.334 3.90793 22.099 3.03794 22.8437 3.03794H28.7442V1.78738C28.4818 1.76545 28.1843 1.82262 27.9282 1.78268C27.236 1.67462 27.2062 0.628435 28.0002 0.53525C28.6298 0.461641 30.0965 0.47417 30.741 0.532901C31.2586 0.579885 31.5656 0.94088 31.3424 1.45457C31.1388 1.92442 30.4873 1.76389 30.073 1.7866V3.03716H35.7393C35.78 3.03716 36.2413 3.2016 36.318 3.23997C36.8873 3.52501 37.2452 4.164 37.1896 4.79828L35.6226 11.3996H38.7878C39.2028 11.3996 39.8912 12.0816 39.9992 12.4935V13.4316H40ZM35.7409 4.36603H22.767C22.6166 4.36603 22.6268 4.89382 22.6699 5.0105L24.2603 11.4043L34.2992 11.3651C34.8787 9.11613 35.4668 6.8468 35.9226 4.57902C35.9061 4.52186 35.784 4.37856 35.7401 4.36603H35.7409ZM21.417 19.6664L36.8787 19.7283C37.1379 19.6437 37.224 19.2945 37.3047 19.0596C37.9374 17.2154 38.083 15.0064 38.733 13.1364C38.7808 12.9594 38.7573 12.7887 38.5936 12.6893L19.9894 12.6861C19.8453 12.737 19.7271 12.8138 19.7733 12.979L21.4177 19.6664H21.417ZM21.3997 25.5457H4.86991C4.75402 25.5457 4.3523 25.8355 4.24267 25.9349L2.0955 28.2035H21.3997V25.5465V25.5457ZM21.3997 29.4532H1.23568V36.2135C1.23568 36.6747 2.21217 37.7373 2.68123 37.7373H12.49V32.8526C12.49 32.3858 13.2832 31.7069 13.7217 31.5832C14.4085 31.3898 17.6637 31.4047 18.3528 31.6004C18.8054 31.7288 19.6018 32.3671 19.6018 32.8526V37.7373H21.3997V29.4532ZM18.3512 37.7381V33.1658C18.3512 33.0084 18.0944 32.833 17.9253 32.8103C17.2659 32.7202 14.8274 32.721 14.1657 32.8103C14.0389 32.8275 13.7397 32.9896 13.7397 33.0883V37.7381H18.3505H18.3512ZM31.5593 37.7381V33.0883C31.5593 32.9896 31.2609 32.8275 31.1333 32.8103C30.4716 32.7218 28.0331 32.7202 27.3738 32.8103C27.2046 32.8338 26.9478 33.0084 26.9478 33.1658V37.7381H31.5585H31.5593Z" fill="#E51B25" fill-opacity="0.5"/>
<path d="M16.0684 0.166428C16.9651 0.0842054 18.1311 0.71536 18.7418 1.35748C19.3902 2.03875 19.4952 2.37625 18.705 2.9612C15.0168 5.6949 10.4452 7.85461 6.681 10.5539C4.47979 11.8177 2.25901 10.6791 0.685819 9.01903C0.45403 8.77393 0.348316 8.46775 0.528422 8.15218C0.627089 7.9799 1.59731 7.30959 1.80404 7.23912C2.3796 7.04178 3.78599 7.57975 4.46335 7.47639L6.00208 6.12402L3.38819 3.81553C3.11803 3.44984 3.10081 3.03638 3.50879 2.77014C3.73196 2.62448 5.76951 1.78268 5.95745 1.7913L10.4844 3.48664L14.9667 0.551698C15.2956 0.361412 15.6863 0.201666 16.0677 0.166428H16.0684ZM2.09535 8.50847C3.14466 9.58911 4.34745 10.1983 5.84703 9.56249C9.51337 7.14437 13.3778 4.97604 17.0167 2.5219C17.5391 2.16952 17.8296 2.17579 17.1734 1.75371C16.7435 1.47729 16.3637 1.39037 15.8476 1.50939C14.2134 2.3371 12.6668 3.80692 11.0772 4.63306C10.7882 4.78341 10.5901 4.93298 10.2385 4.78106L6.00678 3.14601L4.98879 3.507L7.36384 5.62443C7.92374 6.23131 7.21506 6.72777 6.78672 7.14123C6.5009 7.41766 5.24485 8.58756 4.98879 8.70346C4.36312 8.98771 3.21592 8.55859 2.52525 8.50926C2.38273 8.49908 2.23865 8.50926 2.09691 8.50926L2.09535 8.50847Z" fill="#E51B25" fill-opacity="0.5"/>
<path d="M11.5302 10.7895C12.311 10.6149 12.6704 11.5655 12.0134 11.9782L6.13724 15.715C5.31267 16.0337 4.83578 15.0408 5.53897 14.5701L11.5295 10.7895H11.5302Z" fill="#E51B25" fill-opacity="0.5"/>
<path d="M26.2239 22.281L32.2167 22.27C32.9881 22.3013 33.0664 23.4391 32.3037 23.5151L26.1299 23.512C25.5113 23.2598 25.5403 22.4196 26.2239 22.2818V22.281Z" fill="#E51B25" fill-opacity="0.5"/>
<path d="M6.84111 17.9084C7.26867 18.3352 6.92725 18.7517 6.55999 19.0297C6.17472 19.321 4.46606 20.3915 4.06826 20.5301C3.39091 20.7658 2.85842 20.0094 3.46373 19.4502C3.71118 19.2216 5.81842 17.9099 6.11677 17.805C6.35404 17.7212 6.6477 17.7157 6.84111 17.9092V17.9084Z" fill="#E51B25" fill-opacity="0.5"/>
<path d="M3.87251 31.5041C5.68923 31.602 7.7722 31.3083 9.5576 31.4869C10.5404 31.5848 10.6977 32.4751 9.7886 32.8103L3.86076 32.8079C3.00565 32.6881 2.96102 31.6576 3.87251 31.5049V31.5041Z" fill="#E51B25" fill-opacity="0.5"/>
<path d="M28.0933 8.40194C27.4715 9.02291 26.4433 8.09654 27.0706 7.41762C27.7205 6.71364 28.7409 7.75434 28.0933 8.40194Z" fill="#E51B25" fill-opacity="0.5"/>
<path d="M30.7598 7.19363C31.5735 7.08713 31.8264 8.45907 30.9674 8.58358C29.9274 8.73471 29.8656 7.31109 30.7598 7.19363Z" fill="#E51B25" fill-opacity="0.5"/>
<path d="M23.9569 14.1521L34.9253 14.1701C35.1281 14.2367 35.2754 14.5256 35.3067 14.7269C35.3764 15.1842 35.3803 17.3212 35.2934 17.7519C35.2385 18.022 35.0263 18.2898 34.7264 18.2797L23.8966 18.2429C23.6867 18.1575 23.5497 17.9899 23.5144 17.7652C23.422 17.1732 23.4494 15.4293 23.5058 14.7966C23.5356 14.4669 23.6178 14.2586 23.9561 14.1529L23.9569 14.1521ZM34.0608 15.3854H24.7603V17.0267H34.0608V15.3854Z" fill="#E51B25" fill-opacity="0.5"/>
</svg>
